G04 #@! TF.FileFunction,Legend,Top*
%FSLAX46Y46*%
G04 Gerber Fmt 4.6, Leading zero omitted, Abs format (unit mm)*
G04 Created by KiCad (PCBNEW no-vcs-found-product) date Fri Nov  4 22:39:12 2016*
%MOMM*%
%LPD*%
G01*
G04 APERTURE LIST*
%ADD10C,0.100000*%
%ADD11C,0.150000*%
G04 APERTURE END LIST*
D10*
D11*
X85949200Y-115500180D02*
X86650240Y-115500180D01*
X86650240Y-115500180D02*
X86650240Y-115749100D01*
X86650240Y-118299160D02*
X86650240Y-118499820D01*
X86650240Y-118499820D02*
X85949200Y-118499820D01*
X93200000Y-97600000D02*
X93200000Y-108600000D01*
X93200000Y-108600000D02*
X86800000Y-108600000D01*
X86800000Y-108600000D02*
X86800000Y-97600000D01*
X91000000Y-98600000D02*
X91000000Y-108600000D01*
X91000000Y-108600000D02*
X89000000Y-108600000D01*
X89000000Y-108600000D02*
X89000000Y-98600000D01*
X89000000Y-98600000D02*
X91000000Y-98600000D01*
X94500000Y-97600000D02*
X94500000Y-112400000D01*
X94500000Y-112400000D02*
X85500000Y-112400000D01*
X85500000Y-112400000D02*
X85500000Y-97600000D01*
X85500000Y-97600000D02*
X94500000Y-97600000D01*
X86800000Y-153400000D02*
X86800000Y-142400000D01*
X86800000Y-142400000D02*
X93200000Y-142400000D01*
X93200000Y-142400000D02*
X93200000Y-153400000D01*
X89000000Y-152400000D02*
X89000000Y-142400000D01*
X89000000Y-142400000D02*
X91000000Y-142400000D01*
X91000000Y-142400000D02*
X91000000Y-152400000D01*
X91000000Y-152400000D02*
X89000000Y-152400000D01*
X85500000Y-153400000D02*
X85500000Y-138600000D01*
X85500000Y-138600000D02*
X94500000Y-138600000D01*
X94500000Y-138600000D02*
X94500000Y-153400000D01*
X94500000Y-153400000D02*
X85500000Y-153400000D01*
X128086000Y-104800000D02*
G75*
G03X128086000Y-104800000I-2286000J0D01*
G01*
X128086000Y-147000000D02*
G75*
G03X128086000Y-147000000I-2286000J0D01*
G01*
X120021000Y-145262000D02*
X120021000Y-143738000D01*
X119894000Y-143357000D02*
X119894000Y-145643000D01*
X119767000Y-145897000D02*
X119767000Y-143103000D01*
X119640000Y-142849000D02*
X119640000Y-146151000D01*
X119513000Y-146278000D02*
X119513000Y-142722000D01*
X120402000Y-147802000D02*
X120402000Y-141198000D01*
X120402000Y-141198000D02*
X114560000Y-141198000D01*
X114560000Y-141198000D02*
X113798000Y-141960000D01*
X113798000Y-141960000D02*
X113798000Y-147040000D01*
X113798000Y-147040000D02*
X114560000Y-147802000D01*
X114560000Y-147802000D02*
X120402000Y-147802000D01*
X114941000Y-144500000D02*
X115703000Y-144500000D01*
X115322000Y-144881000D02*
X115322000Y-144119000D01*
X120148000Y-144500000D02*
G75*
G03X120148000Y-144500000I-3048000J0D01*
G01*
X124475000Y-129000000D02*
X124475000Y-131000000D01*
X126525000Y-131000000D02*
X126525000Y-129000000D01*
X71000000Y-136375000D02*
X69000000Y-136375000D01*
X69000000Y-138425000D02*
X71000000Y-138425000D01*
X113500000Y-115975000D02*
X111500000Y-115975000D01*
X111500000Y-118025000D02*
X113500000Y-118025000D01*
X68500000Y-115975000D02*
X66500000Y-115975000D01*
X66500000Y-118025000D02*
X68500000Y-118025000D01*
X108579000Y-121738000D02*
X108579000Y-123262000D01*
X108706000Y-123643000D02*
X108706000Y-121357000D01*
X108833000Y-121103000D02*
X108833000Y-123897000D01*
X108960000Y-124151000D02*
X108960000Y-120849000D01*
X109087000Y-120722000D02*
X109087000Y-124278000D01*
X108198000Y-119198000D02*
X108198000Y-125802000D01*
X108198000Y-125802000D02*
X114040000Y-125802000D01*
X114040000Y-125802000D02*
X114802000Y-125040000D01*
X114802000Y-125040000D02*
X114802000Y-119960000D01*
X114802000Y-119960000D02*
X114040000Y-119198000D01*
X114040000Y-119198000D02*
X108198000Y-119198000D01*
X113659000Y-122500000D02*
X112897000Y-122500000D01*
X113278000Y-122119000D02*
X113278000Y-122881000D01*
X114548000Y-122500000D02*
G75*
G03X114548000Y-122500000I-3048000J0D01*
G01*
X83150000Y-130350000D02*
X79550000Y-130350000D01*
X83150000Y-132450000D02*
X79550000Y-132450000D01*
X81100000Y-131700000D02*
X81100000Y-131100000D01*
X81100000Y-131100000D02*
X81400000Y-131400000D01*
X81400000Y-131400000D02*
X81200000Y-131600000D01*
X81200000Y-131600000D02*
X81200000Y-131350000D01*
X81200000Y-131350000D02*
X81250000Y-131400000D01*
X81500000Y-131900000D02*
X81500000Y-130900000D01*
X81000000Y-131400000D02*
X80500000Y-131400000D01*
X81500000Y-131400000D02*
X81000000Y-131900000D01*
X81000000Y-131900000D02*
X81000000Y-130900000D01*
X81000000Y-130900000D02*
X81500000Y-131400000D01*
X75525000Y-124875000D02*
X75200000Y-124875000D01*
X75525000Y-132125000D02*
X75200000Y-132125000D01*
X68275000Y-132125000D02*
X68600000Y-132125000D01*
X68275000Y-124875000D02*
X68600000Y-124875000D01*
X75525000Y-124875000D02*
X75525000Y-125200000D01*
X68275000Y-124875000D02*
X68275000Y-125200000D01*
X68275000Y-132125000D02*
X68275000Y-131800000D01*
X75525000Y-132125000D02*
X75525000Y-131800000D01*
X75200000Y-124875000D02*
X75200000Y-123450000D01*
X67350000Y-111000000D02*
X61750000Y-111000000D01*
X61750000Y-111000000D02*
X61750000Y-98300000D01*
X61750000Y-98300000D02*
X73050000Y-98300000D01*
X73050000Y-98300000D02*
X73050000Y-111000000D01*
X73050000Y-111000000D02*
X67350000Y-111000000D01*
X112350000Y-111000000D02*
X106750000Y-111000000D01*
X106750000Y-111000000D02*
X106750000Y-98300000D01*
X106750000Y-98300000D02*
X118050000Y-98300000D01*
X118050000Y-98300000D02*
X118050000Y-111000000D01*
X118050000Y-111000000D02*
X112350000Y-111000000D01*
X128800000Y-121100000D02*
X128800000Y-119600000D01*
X128800000Y-117000000D02*
X128800000Y-118600000D01*
X125700000Y-114100000D02*
X121900000Y-114100000D01*
X119000000Y-117150000D02*
X119000000Y-118600000D01*
X119000000Y-121000000D02*
X119000000Y-119600000D01*
X125800000Y-124100000D02*
X122000000Y-124100000D01*
X128300000Y-119100000D02*
G75*
G03X128800000Y-119600000I500000J0D01*
G01*
X128800000Y-118600000D02*
G75*
G03X128300000Y-119100000I0J-500000D01*
G01*
X119500000Y-119100000D02*
G75*
G02X119000000Y-119600000I-500000J0D01*
G01*
X119000000Y-118600000D02*
G75*
G02X119500000Y-119100000I0J-500000D01*
G01*
X125800000Y-124100000D02*
G75*
G03X128800000Y-121100000I0J3000000D01*
G01*
X128800000Y-117000000D02*
G75*
G03X125700000Y-114100000I-3000000J-100000D01*
G01*
X121950000Y-114100000D02*
G75*
G03X119000000Y-117150000I50000J-3000000D01*
G01*
X119000000Y-121000000D02*
G75*
G03X122000000Y-124100000I3050000J-50000D01*
G01*
X58060000Y-135130000D02*
X58060000Y-127130000D01*
X58060000Y-127130000D02*
X60260000Y-127130000D01*
X60260000Y-127130000D02*
X60260000Y-135130000D01*
X60260000Y-135130000D02*
X58060000Y-135130000D01*
X93706000Y-126066000D02*
X98709800Y-126066000D01*
X98709800Y-126066000D02*
X98709800Y-136734000D01*
X98709800Y-136734000D02*
X93706000Y-136734000D01*
X93706000Y-136734000D02*
X93706000Y-126066000D01*
X116400000Y-137425000D02*
X118400000Y-137425000D01*
X118400000Y-139575000D02*
X116400000Y-139575000D01*
X118600000Y-127125000D02*
X120600000Y-127125000D01*
X120600000Y-129275000D02*
X118600000Y-129275000D01*
X113075000Y-129500000D02*
X113075000Y-131500000D01*
X110925000Y-131500000D02*
X110925000Y-129500000D01*
X88250000Y-132475000D02*
X86250000Y-132475000D01*
X86250000Y-130325000D02*
X88250000Y-130325000D01*
X78000000Y-110425000D02*
X80000000Y-110425000D01*
X80000000Y-112575000D02*
X78000000Y-112575000D01*
X78000000Y-114925000D02*
X80000000Y-114925000D01*
X80000000Y-117075000D02*
X78000000Y-117075000D01*
X117414000Y-135440000D02*
X117414000Y-130360000D01*
X117414000Y-130360000D02*
X121986000Y-130360000D01*
X121986000Y-130360000D02*
X121986000Y-135440000D01*
X121986000Y-135440000D02*
X117414000Y-135440000D01*
X118938000Y-135440000D02*
X118938000Y-134932000D01*
X118938000Y-134932000D02*
X120208000Y-134932000D01*
X120208000Y-134932000D02*
X120208000Y-135440000D01*
X57086000Y-104800000D02*
G75*
G03X57086000Y-104800000I-2286000J0D01*
G01*
X57086000Y-147000000D02*
G75*
G03X57086000Y-147000000I-2286000J0D01*
G01*
X126500000Y-138750000D02*
X126950000Y-139300000D01*
X126950000Y-139300000D02*
X126050000Y-139300000D01*
X126050000Y-139300000D02*
X126500000Y-138750000D01*
X127050000Y-138750000D02*
X125950000Y-138750000D01*
X124749940Y-137200860D02*
X125100460Y-137200860D01*
X128250060Y-137200860D02*
X127899540Y-137200860D01*
X124749940Y-141250440D02*
X125100460Y-141250440D01*
X124749940Y-136749560D02*
X125100460Y-136749560D01*
X128250060Y-136749560D02*
X127899540Y-136749560D01*
X128250060Y-141250440D02*
X127899540Y-141250440D01*
X124749940Y-136749560D02*
X124749940Y-141250440D01*
X128250060Y-136749560D02*
X128250060Y-141250440D01*
X54000000Y-114750000D02*
X54450000Y-115300000D01*
X54450000Y-115300000D02*
X53550000Y-115300000D01*
X53550000Y-115300000D02*
X54000000Y-114750000D01*
X54550000Y-114750000D02*
X53450000Y-114750000D01*
X52249940Y-113200860D02*
X52600460Y-113200860D01*
X55750060Y-113200860D02*
X55399540Y-113200860D01*
X52249940Y-117250440D02*
X52600460Y-117250440D01*
X52249940Y-112749560D02*
X52600460Y-112749560D01*
X55750060Y-112749560D02*
X55399540Y-112749560D01*
X55750060Y-117250440D02*
X55399540Y-117250440D01*
X52249940Y-112749560D02*
X52249940Y-117250440D01*
X55750060Y-112749560D02*
X55750060Y-117250440D01*
X83000000Y-138675000D02*
X81000000Y-138675000D01*
X81000000Y-136525000D02*
X83000000Y-136525000D01*
X75600000Y-120675000D02*
X73600000Y-120675000D01*
X73600000Y-118525000D02*
X75600000Y-118525000D01*
X104675000Y-136600000D02*
X104675000Y-138600000D01*
X102525000Y-138600000D02*
X102525000Y-136600000D01*
X79175000Y-106750000D02*
X79175000Y-104750000D01*
X81325000Y-104750000D02*
X81325000Y-106750000D01*
X88047619Y-119095238D02*
X88000000Y-119190476D01*
X87904761Y-119285714D01*
X87761904Y-119428571D01*
X87714285Y-119523809D01*
X87714285Y-119619047D01*
X87952380Y-119571428D02*
X87904761Y-119666666D01*
X87809523Y-119761904D01*
X87619047Y-119809523D01*
X87285714Y-119809523D01*
X87095238Y-119761904D01*
X87000000Y-119666666D01*
X86952380Y-119571428D01*
X86952380Y-119380952D01*
X87000000Y-119285714D01*
X87095238Y-119190476D01*
X87285714Y-119142857D01*
X87619047Y-119142857D01*
X87809523Y-119190476D01*
X87904761Y-119285714D01*
X87952380Y-119380952D01*
X87952380Y-119571428D01*
X87952380Y-118190476D02*
X87952380Y-118761904D01*
X87952380Y-118476190D02*
X86952380Y-118476190D01*
X87095238Y-118571428D01*
X87190476Y-118666666D01*
X87238095Y-118761904D01*
X87285714Y-110857142D02*
X87238095Y-110904761D01*
X87095238Y-110952380D01*
X87000000Y-110952380D01*
X86857142Y-110904761D01*
X86761904Y-110809523D01*
X86714285Y-110714285D01*
X86666666Y-110523809D01*
X86666666Y-110380952D01*
X86714285Y-110190476D01*
X86761904Y-110095238D01*
X86857142Y-110000000D01*
X87000000Y-109952380D01*
X87095238Y-109952380D01*
X87238095Y-110000000D01*
X87285714Y-110047619D01*
X87904761Y-109952380D02*
X88095238Y-109952380D01*
X88190476Y-110000000D01*
X88285714Y-110095238D01*
X88333333Y-110285714D01*
X88333333Y-110619047D01*
X88285714Y-110809523D01*
X88190476Y-110904761D01*
X88095238Y-110952380D01*
X87904761Y-110952380D01*
X87809523Y-110904761D01*
X87714285Y-110809523D01*
X87666666Y-110619047D01*
X87666666Y-110285714D01*
X87714285Y-110095238D01*
X87809523Y-110000000D01*
X87904761Y-109952380D01*
X88761904Y-110952380D02*
X88761904Y-109952380D01*
X89333333Y-110952380D01*
X89333333Y-109952380D01*
X89761904Y-110047619D02*
X89809523Y-110000000D01*
X89904761Y-109952380D01*
X90142857Y-109952380D01*
X90238095Y-110000000D01*
X90285714Y-110047619D01*
X90333333Y-110142857D01*
X90333333Y-110238095D01*
X90285714Y-110380952D01*
X89714285Y-110952380D01*
X90333333Y-110952380D01*
X89035714Y-140857142D02*
X88988095Y-140904761D01*
X88845238Y-140952380D01*
X88750000Y-140952380D01*
X88607142Y-140904761D01*
X88511904Y-140809523D01*
X88464285Y-140714285D01*
X88416666Y-140523809D01*
X88416666Y-140380952D01*
X88464285Y-140190476D01*
X88511904Y-140095238D01*
X88607142Y-140000000D01*
X88750000Y-139952380D01*
X88845238Y-139952380D01*
X88988095Y-140000000D01*
X89035714Y-140047619D01*
X89654761Y-139952380D02*
X89845238Y-139952380D01*
X89940476Y-140000000D01*
X90035714Y-140095238D01*
X90083333Y-140285714D01*
X90083333Y-140619047D01*
X90035714Y-140809523D01*
X89940476Y-140904761D01*
X89845238Y-140952380D01*
X89654761Y-140952380D01*
X89559523Y-140904761D01*
X89464285Y-140809523D01*
X89416666Y-140619047D01*
X89416666Y-140285714D01*
X89464285Y-140095238D01*
X89559523Y-140000000D01*
X89654761Y-139952380D01*
X90511904Y-140952380D02*
X90511904Y-139952380D01*
X91083333Y-140952380D01*
X91083333Y-139952380D01*
X92083333Y-140952380D02*
X91511904Y-140952380D01*
X91797619Y-140952380D02*
X91797619Y-139952380D01*
X91702380Y-140095238D01*
X91607142Y-140190476D01*
X91511904Y-140238095D01*
X116833333Y-146857142D02*
X116785714Y-146904761D01*
X116642857Y-146952380D01*
X116547619Y-146952380D01*
X116404761Y-146904761D01*
X116309523Y-146809523D01*
X116261904Y-146714285D01*
X116214285Y-146523809D01*
X116214285Y-146380952D01*
X116261904Y-146190476D01*
X116309523Y-146095238D01*
X116404761Y-146000000D01*
X116547619Y-145952380D01*
X116642857Y-145952380D01*
X116785714Y-146000000D01*
X116833333Y-146047619D01*
X117785714Y-146952380D02*
X117214285Y-146952380D01*
X117500000Y-146952380D02*
X117500000Y-145952380D01*
X117404761Y-146095238D01*
X117309523Y-146190476D01*
X117214285Y-146238095D01*
X124107142Y-129416666D02*
X124154761Y-129464285D01*
X124202380Y-129607142D01*
X124202380Y-129702380D01*
X124154761Y-129845238D01*
X124059523Y-129940476D01*
X123964285Y-129988095D01*
X123773809Y-130035714D01*
X123630952Y-130035714D01*
X123440476Y-129988095D01*
X123345238Y-129940476D01*
X123250000Y-129845238D01*
X123202380Y-129702380D01*
X123202380Y-129607142D01*
X123250000Y-129464285D01*
X123297619Y-129416666D01*
X123297619Y-129035714D02*
X123250000Y-128988095D01*
X123202380Y-128892857D01*
X123202380Y-128654761D01*
X123250000Y-128559523D01*
X123297619Y-128511904D01*
X123392857Y-128464285D01*
X123488095Y-128464285D01*
X123630952Y-128511904D01*
X124202380Y-129083333D01*
X124202380Y-128464285D01*
X71833333Y-135607142D02*
X71785714Y-135654761D01*
X71642857Y-135702380D01*
X71547619Y-135702380D01*
X71404761Y-135654761D01*
X71309523Y-135559523D01*
X71261904Y-135464285D01*
X71214285Y-135273809D01*
X71214285Y-135130952D01*
X71261904Y-134940476D01*
X71309523Y-134845238D01*
X71404761Y-134750000D01*
X71547619Y-134702380D01*
X71642857Y-134702380D01*
X71785714Y-134750000D01*
X71833333Y-134797619D01*
X72166666Y-134702380D02*
X72785714Y-134702380D01*
X72452380Y-135083333D01*
X72595238Y-135083333D01*
X72690476Y-135130952D01*
X72738095Y-135178571D01*
X72785714Y-135273809D01*
X72785714Y-135511904D01*
X72738095Y-135607142D01*
X72690476Y-135654761D01*
X72595238Y-135702380D01*
X72309523Y-135702380D01*
X72214285Y-135654761D01*
X72166666Y-135607142D01*
X116833333Y-117357142D02*
X116785714Y-117404761D01*
X116642857Y-117452380D01*
X116547619Y-117452380D01*
X116404761Y-117404761D01*
X116309523Y-117309523D01*
X116261904Y-117214285D01*
X116214285Y-117023809D01*
X116214285Y-116880952D01*
X116261904Y-116690476D01*
X116309523Y-116595238D01*
X116404761Y-116500000D01*
X116547619Y-116452380D01*
X116642857Y-116452380D01*
X116785714Y-116500000D01*
X116833333Y-116547619D01*
X117690476Y-116785714D02*
X117690476Y-117452380D01*
X117452380Y-116404761D02*
X117214285Y-117119047D01*
X117833333Y-117119047D01*
X67333333Y-119357142D02*
X67285714Y-119404761D01*
X67142857Y-119452380D01*
X67047619Y-119452380D01*
X66904761Y-119404761D01*
X66809523Y-119309523D01*
X66761904Y-119214285D01*
X66714285Y-119023809D01*
X66714285Y-118880952D01*
X66761904Y-118690476D01*
X66809523Y-118595238D01*
X66904761Y-118500000D01*
X67047619Y-118452380D01*
X67142857Y-118452380D01*
X67285714Y-118500000D01*
X67333333Y-118547619D01*
X68238095Y-118452380D02*
X67761904Y-118452380D01*
X67714285Y-118928571D01*
X67761904Y-118880952D01*
X67857142Y-118833333D01*
X68095238Y-118833333D01*
X68190476Y-118880952D01*
X68238095Y-118928571D01*
X68285714Y-119023809D01*
X68285714Y-119261904D01*
X68238095Y-119357142D01*
X68190476Y-119404761D01*
X68095238Y-119452380D01*
X67857142Y-119452380D01*
X67761904Y-119404761D01*
X67714285Y-119357142D01*
X110821428Y-120857142D02*
X110773809Y-120904761D01*
X110630952Y-120952380D01*
X110535714Y-120952380D01*
X110392857Y-120904761D01*
X110297619Y-120809523D01*
X110250000Y-120714285D01*
X110202380Y-120523809D01*
X110202380Y-120380952D01*
X110250000Y-120190476D01*
X110297619Y-120095238D01*
X110392857Y-120000000D01*
X110535714Y-119952380D01*
X110630952Y-119952380D01*
X110773809Y-120000000D01*
X110821428Y-120047619D01*
X111250000Y-120952380D02*
X111250000Y-119952380D01*
X111726190Y-120952380D02*
X111726190Y-119952380D01*
X112297619Y-120952380D01*
X112297619Y-119952380D01*
X113297619Y-120952380D02*
X112726190Y-120952380D01*
X113011904Y-120952380D02*
X113011904Y-119952380D01*
X112916666Y-120095238D01*
X112821428Y-120190476D01*
X112726190Y-120238095D01*
X80261904Y-133952380D02*
X80261904Y-132952380D01*
X80500000Y-132952380D01*
X80642857Y-133000000D01*
X80738095Y-133095238D01*
X80785714Y-133190476D01*
X80833333Y-133380952D01*
X80833333Y-133523809D01*
X80785714Y-133714285D01*
X80738095Y-133809523D01*
X80642857Y-133904761D01*
X80500000Y-133952380D01*
X80261904Y-133952380D01*
X81214285Y-133047619D02*
X81261904Y-133000000D01*
X81357142Y-132952380D01*
X81595238Y-132952380D01*
X81690476Y-133000000D01*
X81738095Y-133047619D01*
X81785714Y-133142857D01*
X81785714Y-133238095D01*
X81738095Y-133380952D01*
X81166666Y-133952380D01*
X81785714Y-133952380D01*
X73452380Y-129976190D02*
X72452380Y-129976190D01*
X73357142Y-128928571D02*
X73404761Y-128976190D01*
X73452380Y-129119047D01*
X73452380Y-129214285D01*
X73404761Y-129357142D01*
X73309523Y-129452380D01*
X73214285Y-129500000D01*
X73023809Y-129547619D01*
X72880952Y-129547619D01*
X72690476Y-129500000D01*
X72595238Y-129452380D01*
X72500000Y-129357142D01*
X72452380Y-129214285D01*
X72452380Y-129119047D01*
X72500000Y-128976190D01*
X72547619Y-128928571D01*
X73452380Y-127976190D02*
X73452380Y-128547619D01*
X73452380Y-128261904D02*
X72452380Y-128261904D01*
X72595238Y-128357142D01*
X72690476Y-128452380D01*
X72738095Y-128547619D01*
X67416666Y-103202380D02*
X67416666Y-103916666D01*
X67369047Y-104059523D01*
X67273809Y-104154761D01*
X67130952Y-104202380D01*
X67035714Y-104202380D01*
X68416666Y-104202380D02*
X67845238Y-104202380D01*
X68130952Y-104202380D02*
X68130952Y-103202380D01*
X68035714Y-103345238D01*
X67940476Y-103440476D01*
X67845238Y-103488095D01*
X111952380Y-104583333D02*
X112666666Y-104583333D01*
X112809523Y-104630952D01*
X112904761Y-104726190D01*
X112952380Y-104869047D01*
X112952380Y-104964285D01*
X112047619Y-104154761D02*
X112000000Y-104107142D01*
X111952380Y-104011904D01*
X111952380Y-103773809D01*
X112000000Y-103678571D01*
X112047619Y-103630952D01*
X112142857Y-103583333D01*
X112238095Y-103583333D01*
X112380952Y-103630952D01*
X112952380Y-104202380D01*
X112952380Y-103583333D01*
X124452380Y-119166666D02*
X124452380Y-119642857D01*
X123452380Y-119642857D01*
X124452380Y-118309523D02*
X124452380Y-118880952D01*
X124452380Y-118595238D02*
X123452380Y-118595238D01*
X123595238Y-118690476D01*
X123690476Y-118785714D01*
X123738095Y-118880952D01*
X57452380Y-127738095D02*
X56452380Y-127738095D01*
X56452380Y-127357142D01*
X56500000Y-127261904D01*
X56547619Y-127214285D01*
X56642857Y-127166666D01*
X56785714Y-127166666D01*
X56880952Y-127214285D01*
X56928571Y-127261904D01*
X56976190Y-127357142D01*
X56976190Y-127738095D01*
X57452380Y-126214285D02*
X57452380Y-126785714D01*
X57452380Y-126500000D02*
X56452380Y-126500000D01*
X56595238Y-126595238D01*
X56690476Y-126690476D01*
X56738095Y-126785714D01*
X95261904Y-136452380D02*
X95261904Y-135452380D01*
X95642857Y-135452380D01*
X95738095Y-135500000D01*
X95785714Y-135547619D01*
X95833333Y-135642857D01*
X95833333Y-135785714D01*
X95785714Y-135880952D01*
X95738095Y-135928571D01*
X95642857Y-135976190D01*
X95261904Y-135976190D01*
X96214285Y-135547619D02*
X96261904Y-135500000D01*
X96357142Y-135452380D01*
X96595238Y-135452380D01*
X96690476Y-135500000D01*
X96738095Y-135547619D01*
X96785714Y-135642857D01*
X96785714Y-135738095D01*
X96738095Y-135880952D01*
X96166666Y-136452380D01*
X96785714Y-136452380D01*
X117333333Y-140702380D02*
X117000000Y-140226190D01*
X116761904Y-140702380D02*
X116761904Y-139702380D01*
X117142857Y-139702380D01*
X117238095Y-139750000D01*
X117285714Y-139797619D01*
X117333333Y-139892857D01*
X117333333Y-140035714D01*
X117285714Y-140130952D01*
X117238095Y-140178571D01*
X117142857Y-140226190D01*
X116761904Y-140226190D01*
X118285714Y-140702380D02*
X117714285Y-140702380D01*
X118000000Y-140702380D02*
X118000000Y-139702380D01*
X117904761Y-139845238D01*
X117809523Y-139940476D01*
X117714285Y-139988095D01*
X118833333Y-126702380D02*
X118500000Y-126226190D01*
X118261904Y-126702380D02*
X118261904Y-125702380D01*
X118642857Y-125702380D01*
X118738095Y-125750000D01*
X118785714Y-125797619D01*
X118833333Y-125892857D01*
X118833333Y-126035714D01*
X118785714Y-126130952D01*
X118738095Y-126178571D01*
X118642857Y-126226190D01*
X118261904Y-126226190D01*
X119214285Y-125797619D02*
X119261904Y-125750000D01*
X119357142Y-125702380D01*
X119595238Y-125702380D01*
X119690476Y-125750000D01*
X119738095Y-125797619D01*
X119785714Y-125892857D01*
X119785714Y-125988095D01*
X119738095Y-126130952D01*
X119166666Y-126702380D01*
X119785714Y-126702380D01*
X110152380Y-130666666D02*
X109676190Y-131000000D01*
X110152380Y-131238095D02*
X109152380Y-131238095D01*
X109152380Y-130857142D01*
X109200000Y-130761904D01*
X109247619Y-130714285D01*
X109342857Y-130666666D01*
X109485714Y-130666666D01*
X109580952Y-130714285D01*
X109628571Y-130761904D01*
X109676190Y-130857142D01*
X109676190Y-131238095D01*
X109152380Y-130333333D02*
X109152380Y-129714285D01*
X109533333Y-130047619D01*
X109533333Y-129904761D01*
X109580952Y-129809523D01*
X109628571Y-129761904D01*
X109723809Y-129714285D01*
X109961904Y-129714285D01*
X110057142Y-129761904D01*
X110104761Y-129809523D01*
X110152380Y-129904761D01*
X110152380Y-130190476D01*
X110104761Y-130285714D01*
X110057142Y-130333333D01*
X88833333Y-134202380D02*
X88500000Y-133726190D01*
X88261904Y-134202380D02*
X88261904Y-133202380D01*
X88642857Y-133202380D01*
X88738095Y-133250000D01*
X88785714Y-133297619D01*
X88833333Y-133392857D01*
X88833333Y-133535714D01*
X88785714Y-133630952D01*
X88738095Y-133678571D01*
X88642857Y-133726190D01*
X88261904Y-133726190D01*
X89690476Y-133535714D02*
X89690476Y-134202380D01*
X89452380Y-133154761D02*
X89214285Y-133869047D01*
X89833333Y-133869047D01*
X78833333Y-113952380D02*
X78500000Y-113476190D01*
X78261904Y-113952380D02*
X78261904Y-112952380D01*
X78642857Y-112952380D01*
X78738095Y-113000000D01*
X78785714Y-113047619D01*
X78833333Y-113142857D01*
X78833333Y-113285714D01*
X78785714Y-113380952D01*
X78738095Y-113428571D01*
X78642857Y-113476190D01*
X78261904Y-113476190D01*
X79738095Y-112952380D02*
X79261904Y-112952380D01*
X79214285Y-113428571D01*
X79261904Y-113380952D01*
X79357142Y-113333333D01*
X79595238Y-113333333D01*
X79690476Y-113380952D01*
X79738095Y-113428571D01*
X79785714Y-113523809D01*
X79785714Y-113761904D01*
X79738095Y-113857142D01*
X79690476Y-113904761D01*
X79595238Y-113952380D01*
X79357142Y-113952380D01*
X79261904Y-113904761D01*
X79214285Y-113857142D01*
X78833333Y-118452380D02*
X78500000Y-117976190D01*
X78261904Y-118452380D02*
X78261904Y-117452380D01*
X78642857Y-117452380D01*
X78738095Y-117500000D01*
X78785714Y-117547619D01*
X78833333Y-117642857D01*
X78833333Y-117785714D01*
X78785714Y-117880952D01*
X78738095Y-117928571D01*
X78642857Y-117976190D01*
X78261904Y-117976190D01*
X79690476Y-117452380D02*
X79500000Y-117452380D01*
X79404761Y-117500000D01*
X79357142Y-117547619D01*
X79261904Y-117690476D01*
X79214285Y-117880952D01*
X79214285Y-118261904D01*
X79261904Y-118357142D01*
X79309523Y-118404761D01*
X79404761Y-118452380D01*
X79595238Y-118452380D01*
X79690476Y-118404761D01*
X79738095Y-118357142D01*
X79785714Y-118261904D01*
X79785714Y-118023809D01*
X79738095Y-117928571D01*
X79690476Y-117880952D01*
X79595238Y-117833333D01*
X79404761Y-117833333D01*
X79309523Y-117880952D01*
X79261904Y-117928571D01*
X79214285Y-118023809D01*
X119452380Y-133261904D02*
X120261904Y-133261904D01*
X120357142Y-133214285D01*
X120404761Y-133166666D01*
X120452380Y-133071428D01*
X120452380Y-132880952D01*
X120404761Y-132785714D01*
X120357142Y-132738095D01*
X120261904Y-132690476D01*
X119452380Y-132690476D01*
X120452380Y-131690476D02*
X120452380Y-132261904D01*
X120452380Y-131976190D02*
X119452380Y-131976190D01*
X119595238Y-132071428D01*
X119690476Y-132166666D01*
X119738095Y-132261904D01*
X129802380Y-139738095D02*
X128802380Y-139738095D01*
X128802380Y-139500000D01*
X128850000Y-139357142D01*
X128945238Y-139261904D01*
X129040476Y-139214285D01*
X129230952Y-139166666D01*
X129373809Y-139166666D01*
X129564285Y-139214285D01*
X129659523Y-139261904D01*
X129754761Y-139357142D01*
X129802380Y-139500000D01*
X129802380Y-139738095D01*
X129802380Y-138214285D02*
X129802380Y-138785714D01*
X129802380Y-138500000D02*
X128802380Y-138500000D01*
X128945238Y-138595238D01*
X129040476Y-138690476D01*
X129088095Y-138785714D01*
X124052380Y-136011904D02*
X123052380Y-136011904D01*
X124052380Y-135440476D02*
X123480952Y-135869047D01*
X123052380Y-135440476D02*
X123623809Y-136011904D01*
X123816666Y-142288095D02*
X123816666Y-141811904D01*
X124102380Y-142383333D02*
X123102380Y-142050000D01*
X124102380Y-141716666D01*
X57302380Y-115738095D02*
X56302380Y-115738095D01*
X56302380Y-115500000D01*
X56350000Y-115357142D01*
X56445238Y-115261904D01*
X56540476Y-115214285D01*
X56730952Y-115166666D01*
X56873809Y-115166666D01*
X57064285Y-115214285D01*
X57159523Y-115261904D01*
X57254761Y-115357142D01*
X57302380Y-115500000D01*
X57302380Y-115738095D01*
X56302380Y-114833333D02*
X56302380Y-114214285D01*
X56683333Y-114547619D01*
X56683333Y-114404761D01*
X56730952Y-114309523D01*
X56778571Y-114261904D01*
X56873809Y-114214285D01*
X57111904Y-114214285D01*
X57207142Y-114261904D01*
X57254761Y-114309523D01*
X57302380Y-114404761D01*
X57302380Y-114690476D01*
X57254761Y-114785714D01*
X57207142Y-114833333D01*
X51552380Y-112011904D02*
X50552380Y-112011904D01*
X51552380Y-111440476D02*
X50980952Y-111869047D01*
X50552380Y-111440476D02*
X51123809Y-112011904D01*
X51316666Y-118288095D02*
X51316666Y-117811904D01*
X51602380Y-118383333D02*
X50602380Y-118050000D01*
X51602380Y-117716666D01*
X79583333Y-139952380D02*
X79250000Y-139476190D01*
X79011904Y-139952380D02*
X79011904Y-138952380D01*
X79392857Y-138952380D01*
X79488095Y-139000000D01*
X79535714Y-139047619D01*
X79583333Y-139142857D01*
X79583333Y-139285714D01*
X79535714Y-139380952D01*
X79488095Y-139428571D01*
X79392857Y-139476190D01*
X79011904Y-139476190D01*
X79916666Y-138952380D02*
X80583333Y-138952380D01*
X80154761Y-139952380D01*
X76583333Y-122202380D02*
X76250000Y-121726190D01*
X76011904Y-122202380D02*
X76011904Y-121202380D01*
X76392857Y-121202380D01*
X76488095Y-121250000D01*
X76535714Y-121297619D01*
X76583333Y-121392857D01*
X76583333Y-121535714D01*
X76535714Y-121630952D01*
X76488095Y-121678571D01*
X76392857Y-121726190D01*
X76011904Y-121726190D01*
X77154761Y-121630952D02*
X77059523Y-121583333D01*
X77011904Y-121535714D01*
X76964285Y-121440476D01*
X76964285Y-121392857D01*
X77011904Y-121297619D01*
X77059523Y-121250000D01*
X77154761Y-121202380D01*
X77345238Y-121202380D01*
X77440476Y-121250000D01*
X77488095Y-121297619D01*
X77535714Y-121392857D01*
X77535714Y-121440476D01*
X77488095Y-121535714D01*
X77440476Y-121583333D01*
X77345238Y-121630952D01*
X77154761Y-121630952D01*
X77059523Y-121678571D01*
X77011904Y-121726190D01*
X76964285Y-121821428D01*
X76964285Y-122011904D01*
X77011904Y-122107142D01*
X77059523Y-122154761D01*
X77154761Y-122202380D01*
X77345238Y-122202380D01*
X77440476Y-122154761D01*
X77488095Y-122107142D01*
X77535714Y-122011904D01*
X77535714Y-121821428D01*
X77488095Y-121726190D01*
X77440476Y-121678571D01*
X77345238Y-121630952D01*
X101702380Y-139666666D02*
X101226190Y-140000000D01*
X101702380Y-140238095D02*
X100702380Y-140238095D01*
X100702380Y-139857142D01*
X100750000Y-139761904D01*
X100797619Y-139714285D01*
X100892857Y-139666666D01*
X101035714Y-139666666D01*
X101130952Y-139714285D01*
X101178571Y-139761904D01*
X101226190Y-139857142D01*
X101226190Y-140238095D01*
X101702380Y-139190476D02*
X101702380Y-139000000D01*
X101654761Y-138904761D01*
X101607142Y-138857142D01*
X101464285Y-138761904D01*
X101273809Y-138714285D01*
X100892857Y-138714285D01*
X100797619Y-138761904D01*
X100750000Y-138809523D01*
X100702380Y-138904761D01*
X100702380Y-139095238D01*
X100750000Y-139190476D01*
X100797619Y-139238095D01*
X100892857Y-139285714D01*
X101130952Y-139285714D01*
X101226190Y-139238095D01*
X101273809Y-139190476D01*
X101321428Y-139095238D01*
X101321428Y-138904761D01*
X101273809Y-138809523D01*
X101226190Y-138761904D01*
X101130952Y-138714285D01*
X78452380Y-103892857D02*
X77976190Y-104226190D01*
X78452380Y-104464285D02*
X77452380Y-104464285D01*
X77452380Y-104083333D01*
X77500000Y-103988095D01*
X77547619Y-103940476D01*
X77642857Y-103892857D01*
X77785714Y-103892857D01*
X77880952Y-103940476D01*
X77928571Y-103988095D01*
X77976190Y-104083333D01*
X77976190Y-104464285D01*
X78452380Y-102940476D02*
X78452380Y-103511904D01*
X78452380Y-103226190D02*
X77452380Y-103226190D01*
X77595238Y-103321428D01*
X77690476Y-103416666D01*
X77738095Y-103511904D01*
X77452380Y-102321428D02*
X77452380Y-102226190D01*
X77500000Y-102130952D01*
X77547619Y-102083333D01*
X77642857Y-102035714D01*
X77833333Y-101988095D01*
X78071428Y-101988095D01*
X78261904Y-102035714D01*
X78357142Y-102083333D01*
X78404761Y-102130952D01*
X78452380Y-102226190D01*
X78452380Y-102321428D01*
X78404761Y-102416666D01*
X78357142Y-102464285D01*
X78261904Y-102511904D01*
X78071428Y-102559523D01*
X77833333Y-102559523D01*
X77642857Y-102511904D01*
X77547619Y-102464285D01*
X77500000Y-102416666D01*
X77452380Y-102321428D01*
M02*
