<?xml version="1.0" standalone="no"?>
 <!DOCTYPE svg PUBLIC "-//W3C//DTD SVG 1.1//EN" 
 "http://www.w3.org/Graphics/SVG/1.1/DTD/svg11.dtd"> 
<svg xmlns="http://www.w3.org/2000/svg" version="1.1" 
    width="29.7002cm" height="21.0007cm" viewBox="0 0 116930 82680 ">
<title>SVG Picture created as motion-sensor-F.SilkS.svg date 2016/02/03 18:43:29 </title>
  <desc>Picture generated by PCBNEW </desc>
<g style="fill:#000000; fill-opacity:1;stroke:#000000; stroke-opacity:1;
stroke-linecap:round; stroke-linejoin:round; "
 transform="translate(0 0) scale(1 1)">
</g>
<g style="fill:#000000; fill-opacity:0.0; 
stroke:#000000; stroke-width:-0.000393701; stroke-opacity:1; 
stroke-linecap:round; stroke-linejoin:round;">
</g>
<g style="fill:#000000; fill-opacity:0.0; 
stroke:#000000; stroke-width:39.3701; stroke-opacity:1; 
stroke-linecap:round; stroke-linejoin:round;">
</g>
<g style="fill:#000000; fill-opacity:0.0; 
stroke:#000000; stroke-width:59.0551; stroke-opacity:1; 
stroke-linecap:round; stroke-linejoin:round;">
<rect x="69685.9" y="65357.2" width="42519.7" height="12598.4" rx="0" />
</g>
<g style="fill:#000000; fill-opacity:0.0; 
stroke:#000000; stroke-width:39.3701; stroke-opacity:1; 
stroke-linecap:round; stroke-linejoin:round;">
</g>
<g style="fill:#000000; fill-opacity:0.0; 
stroke:#000000; stroke-width:59.0551; stroke-opacity:1; 
stroke-linecap:round; stroke-linejoin:round;">
<rect x="3937.01" y="3937.01" width="109056" height="74806" rx="0" />
</g>
<g style="fill:#000000; fill-opacity:0.0; 
stroke:#000000; stroke-width:39.3701; stroke-opacity:1; 
stroke-linecap:round; stroke-linejoin:round;">
</g>
<g style="fill:#000000; fill-opacity:0.0; 
stroke:#000000; stroke-width:59.0551; stroke-opacity:1; 
stroke-linecap:round; stroke-linejoin:round;">
<rect x="4724.41" y="4724.41" width="107481" height="73231.2" rx="0" />
</g>
<g style="fill:#000000; fill-opacity:0.0; 
stroke:#000000; stroke-width:39.3701; stroke-opacity:1; 
stroke-linecap:round; stroke-linejoin:round;">
</g>
<g style="fill:#000000; fill-opacity:0.0; 
stroke:#000000; stroke-width:59.0551; stroke-opacity:1; 
stroke-linecap:round; stroke-linejoin:round;">
<path d="M23622 4724
L23622 3937
" />
</g>
<g style="fill:#000000; fill-opacity:0.0; 
stroke:#000000; stroke-width:39.3701; stroke-opacity:1; 
stroke-linecap:round; stroke-linejoin:round;">
</g>
<g style="fill:#000000; fill-opacity:0.0; 
stroke:#000000; stroke-width:59.0551; stroke-opacity:1; 
stroke-linecap:round; stroke-linejoin:round;">
<path d="M43307 4724
L43307 3937
" />
</g>
<g style="fill:#000000; fill-opacity:0.0; 
stroke:#000000; stroke-width:39.3701; stroke-opacity:1; 
stroke-linecap:round; stroke-linejoin:round;">
</g>
<g style="fill:#000000; fill-opacity:0.0; 
stroke:#000000; stroke-width:59.0551; stroke-opacity:1; 
stroke-linecap:round; stroke-linejoin:round;">
<path d="M62992 4724
L62992 3937
" />
</g>
<g style="fill:#000000; fill-opacity:0.0; 
stroke:#000000; stroke-width:39.3701; stroke-opacity:1; 
stroke-linecap:round; stroke-linejoin:round;">
</g>
<g style="fill:#000000; fill-opacity:0.0; 
stroke:#000000; stroke-width:59.0551; stroke-opacity:1; 
stroke-linecap:round; stroke-linejoin:round;">
<path d="M82677 4724
L82677 3937
" />
</g>
<g style="fill:#000000; fill-opacity:0.0; 
stroke:#000000; stroke-width:39.3701; stroke-opacity:1; 
stroke-linecap:round; stroke-linejoin:round;">
</g>
<g style="fill:#000000; fill-opacity:0.0; 
stroke:#000000; stroke-width:59.0551; stroke-opacity:1; 
stroke-linecap:round; stroke-linejoin:round;">
<path d="M102362 4724
L102362 3937
" />
</g>
<g style="fill:#000000; fill-opacity:0.0; 
stroke:#000000; stroke-width:39.3701; stroke-opacity:1; 
stroke-linecap:round; stroke-linejoin:round;">
</g>
<g style="fill:#000000; fill-opacity:0.0; 
stroke:#000000; stroke-width:59.0551; stroke-opacity:1; 
stroke-linecap:round; stroke-linejoin:round;">
<path d="M14169 4562
L13877 4562
" />
<path d="M14023 4562
L14023 4050
L13974 4123
L13925 4172
L13877 4196
" />
</g>
<g style="fill:#000000; fill-opacity:0.0; 
stroke:#000000; stroke-width:39.3701; stroke-opacity:1; 
stroke-linecap:round; stroke-linejoin:round;">
</g>
<g style="fill:#000000; fill-opacity:0.0; 
stroke:#000000; stroke-width:59.0551; stroke-opacity:1; 
stroke-linecap:round; stroke-linejoin:round;">
<path d="M33562 4099
L33586 4074
L33635 4050
L33757 4050
L33805 4074
L33830 4099
L33854 4147
L33854 4196
L33830 4269
L33537 4562
L33854 4562
" />
</g>
<g style="fill:#000000; fill-opacity:0.0; 
stroke:#000000; stroke-width:39.3701; stroke-opacity:1; 
stroke-linecap:round; stroke-linejoin:round;">
</g>
<g style="fill:#000000; fill-opacity:0.0; 
stroke:#000000; stroke-width:59.0551; stroke-opacity:1; 
stroke-linecap:round; stroke-linejoin:round;">
<path d="M53222 4050
L53539 4050
L53368 4245
L53442 4245
L53490 4269
L53515 4294
L53539 4342
L53539 4464
L53515 4513
L53490 4537
L53442 4562
L53295 4562
L53247 4537
L53222 4513
" />
</g>
<g style="fill:#000000; fill-opacity:0.0; 
stroke:#000000; stroke-width:39.3701; stroke-opacity:1; 
stroke-linecap:round; stroke-linejoin:round;">
</g>
<g style="fill:#000000; fill-opacity:0.0; 
stroke:#000000; stroke-width:59.0551; stroke-opacity:1; 
stroke-linecap:round; stroke-linejoin:round;">
<path d="M73175 4221
L73175 4562
" />
<path d="M73053 4026
L72932 4391
L73248 4391
" />
</g>
<g style="fill:#000000; fill-opacity:0.0; 
stroke:#000000; stroke-width:39.3701; stroke-opacity:1; 
stroke-linecap:round; stroke-linejoin:round;">
</g>
<g style="fill:#000000; fill-opacity:0.0; 
stroke:#000000; stroke-width:59.0551; stroke-opacity:1; 
stroke-linecap:round; stroke-linejoin:round;">
<path d="M92885 4050
L92641 4050
L92617 4294
L92641 4269
L92690 4245
L92812 4245
L92860 4269
L92885 4294
L92909 4342
L92909 4464
L92885 4513
L92860 4537
L92812 4562
L92690 4562
L92641 4537
L92617 4513
" />
</g>
<g style="fill:#000000; fill-opacity:0.0; 
stroke:#000000; stroke-width:39.3701; stroke-opacity:1; 
stroke-linecap:round; stroke-linejoin:round;">
</g>
<g style="fill:#000000; fill-opacity:0.0; 
stroke:#000000; stroke-width:59.0551; stroke-opacity:1; 
stroke-linecap:round; stroke-linejoin:round;">
<path d="M112545 4050
L112448 4050
L112399 4074
L112375 4099
L112326 4172
L112302 4269
L112302 4464
L112326 4513
L112350 4537
L112399 4562
L112497 4562
L112545 4537
L112570 4513
L112594 4464
L112594 4342
L112570 4294
L112545 4269
L112497 4245
L112399 4245
L112350 4269
L112326 4294
L112302 4342
" />
</g>
<g style="fill:#000000; fill-opacity:0.0; 
stroke:#000000; stroke-width:39.3701; stroke-opacity:1; 
stroke-linecap:round; stroke-linejoin:round;">
</g>
<g style="fill:#000000; fill-opacity:0.0; 
stroke:#000000; stroke-width:59.0551; stroke-opacity:1; 
stroke-linecap:round; stroke-linejoin:round;">
<path d="M23622 77955
L23622 78742
" />
</g>
<g style="fill:#000000; fill-opacity:0.0; 
stroke:#000000; stroke-width:39.3701; stroke-opacity:1; 
stroke-linecap:round; stroke-linejoin:round;">
</g>
<g style="fill:#000000; fill-opacity:0.0; 
stroke:#000000; stroke-width:59.0551; stroke-opacity:1; 
stroke-linecap:round; stroke-linejoin:round;">
<path d="M43307 77955
L43307 78742
" />
</g>
<g style="fill:#000000; fill-opacity:0.0; 
stroke:#000000; stroke-width:39.3701; stroke-opacity:1; 
stroke-linecap:round; stroke-linejoin:round;">
</g>
<g style="fill:#000000; fill-opacity:0.0; 
stroke:#000000; stroke-width:59.0551; stroke-opacity:1; 
stroke-linecap:round; stroke-linejoin:round;">
<path d="M62992 77955
L62992 78742
" />
</g>
<g style="fill:#000000; fill-opacity:0.0; 
stroke:#000000; stroke-width:39.3701; stroke-opacity:1; 
stroke-linecap:round; stroke-linejoin:round;">
</g>
<g style="fill:#000000; fill-opacity:0.0; 
stroke:#000000; stroke-width:59.0551; stroke-opacity:1; 
stroke-linecap:round; stroke-linejoin:round;">
<path d="M82677 77955
L82677 78742
" />
</g>
<g style="fill:#000000; fill-opacity:0.0; 
stroke:#000000; stroke-width:39.3701; stroke-opacity:1; 
stroke-linecap:round; stroke-linejoin:round;">
</g>
<g style="fill:#000000; fill-opacity:0.0; 
stroke:#000000; stroke-width:59.0551; stroke-opacity:1; 
stroke-linecap:round; stroke-linejoin:round;">
<path d="M102362 77955
L102362 78742
" />
</g>
<g style="fill:#000000; fill-opacity:0.0; 
stroke:#000000; stroke-width:39.3701; stroke-opacity:1; 
stroke-linecap:round; stroke-linejoin:round;">
</g>
<g style="fill:#000000; fill-opacity:0.0; 
stroke:#000000; stroke-width:59.0551; stroke-opacity:1; 
stroke-linecap:round; stroke-linejoin:round;">
<path d="M14169 78580
L13877 78580
" />
<path d="M14023 78580
L14023 78069
L13974 78142
L13925 78190
L13877 78215
" />
</g>
<g style="fill:#000000; fill-opacity:0.0; 
stroke:#000000; stroke-width:39.3701; stroke-opacity:1; 
stroke-linecap:round; stroke-linejoin:round;">
</g>
<g style="fill:#000000; fill-opacity:0.0; 
stroke:#000000; stroke-width:59.0551; stroke-opacity:1; 
stroke-linecap:round; stroke-linejoin:round;">
<path d="M33562 78117
L33586 78093
L33635 78069
L33757 78069
L33805 78093
L33830 78117
L33854 78166
L33854 78215
L33830 78288
L33537 78580
L33854 78580
" />
</g>
<g style="fill:#000000; fill-opacity:0.0; 
stroke:#000000; stroke-width:39.3701; stroke-opacity:1; 
stroke-linecap:round; stroke-linejoin:round;">
</g>
<g style="fill:#000000; fill-opacity:0.0; 
stroke:#000000; stroke-width:59.0551; stroke-opacity:1; 
stroke-linecap:round; stroke-linejoin:round;">
<path d="M53222 78069
L53539 78069
L53368 78263
L53442 78263
L53490 78288
L53515 78312
L53539 78361
L53539 78483
L53515 78532
L53490 78556
L53442 78580
L53295 78580
L53247 78556
L53222 78532
" />
</g>
<g style="fill:#000000; fill-opacity:0.0; 
stroke:#000000; stroke-width:39.3701; stroke-opacity:1; 
stroke-linecap:round; stroke-linejoin:round;">
</g>
<g style="fill:#000000; fill-opacity:0.0; 
stroke:#000000; stroke-width:59.0551; stroke-opacity:1; 
stroke-linecap:round; stroke-linejoin:round;">
<path d="M73175 78239
L73175 78580
" />
<path d="M73053 78044
L72932 78410
L73248 78410
" />
</g>
<g style="fill:#000000; fill-opacity:0.0; 
stroke:#000000; stroke-width:39.3701; stroke-opacity:1; 
stroke-linecap:round; stroke-linejoin:round;">
</g>
<g style="fill:#000000; fill-opacity:0.0; 
stroke:#000000; stroke-width:59.0551; stroke-opacity:1; 
stroke-linecap:round; stroke-linejoin:round;">
<path d="M92885 78069
L92641 78069
L92617 78312
L92641 78288
L92690 78263
L92812 78263
L92860 78288
L92885 78312
L92909 78361
L92909 78483
L92885 78532
L92860 78556
L92812 78580
L92690 78580
L92641 78556
L92617 78532
" />
</g>
<g style="fill:#000000; fill-opacity:0.0; 
stroke:#000000; stroke-width:39.3701; stroke-opacity:1; 
stroke-linecap:round; stroke-linejoin:round;">
</g>
<g style="fill:#000000; fill-opacity:0.0; 
stroke:#000000; stroke-width:59.0551; stroke-opacity:1; 
stroke-linecap:round; stroke-linejoin:round;">
<path d="M112545 78069
L112448 78069
L112399 78093
L112375 78117
L112326 78190
L112302 78288
L112302 78483
L112326 78532
L112350 78556
L112399 78580
L112497 78580
L112545 78556
L112570 78532
L112594 78483
L112594 78361
L112570 78312
L112545 78288
L112497 78263
L112399 78263
L112350 78288
L112326 78312
L112302 78361
" />
</g>
<g style="fill:#000000; fill-opacity:0.0; 
stroke:#000000; stroke-width:39.3701; stroke-opacity:1; 
stroke-linecap:round; stroke-linejoin:round;">
</g>
<g style="fill:#000000; fill-opacity:0.0; 
stroke:#000000; stroke-width:59.0551; stroke-opacity:1; 
stroke-linecap:round; stroke-linejoin:round;">
<path d="M3937 23622
L4724 23622
" />
</g>
<g style="fill:#000000; fill-opacity:0.0; 
stroke:#000000; stroke-width:39.3701; stroke-opacity:1; 
stroke-linecap:round; stroke-linejoin:round;">
</g>
<g style="fill:#000000; fill-opacity:0.0; 
stroke:#000000; stroke-width:59.0551; stroke-opacity:1; 
stroke-linecap:round; stroke-linejoin:round;">
<path d="M3937 43307
L4724 43307
" />
</g>
<g style="fill:#000000; fill-opacity:0.0; 
stroke:#000000; stroke-width:39.3701; stroke-opacity:1; 
stroke-linecap:round; stroke-linejoin:round;">
</g>
<g style="fill:#000000; fill-opacity:0.0; 
stroke:#000000; stroke-width:59.0551; stroke-opacity:1; 
stroke-linecap:round; stroke-linejoin:round;">
<path d="M3937 62992
L4724 62992
" />
</g>
<g style="fill:#000000; fill-opacity:0.0; 
stroke:#000000; stroke-width:39.3701; stroke-opacity:1; 
stroke-linecap:round; stroke-linejoin:round;">
</g>
<g style="fill:#000000; fill-opacity:0.0; 
stroke:#000000; stroke-width:59.0551; stroke-opacity:1; 
stroke-linecap:round; stroke-linejoin:round;">
<path d="M4208 13864
L4452 13864
" />
<path d="M4160 14011
L4330 13499
L4501 14011
" />
</g>
<g style="fill:#000000; fill-opacity:0.0; 
stroke:#000000; stroke-width:39.3701; stroke-opacity:1; 
stroke-linecap:round; stroke-linejoin:round;">
</g>
<g style="fill:#000000; fill-opacity:0.0; 
stroke:#000000; stroke-width:59.0551; stroke-opacity:1; 
stroke-linecap:round; stroke-linejoin:round;">
<path d="M4367 33428
L4440 33452
L4464 33476
L4489 33525
L4489 33598
L4464 33647
L4440 33671
L4391 33696
L4196 33696
L4196 33184
L4367 33184
L4416 33208
L4440 33233
L4464 33281
L4464 33330
L4440 33379
L4416 33403
L4367 33428
L4196 33428
" />
</g>
<g style="fill:#000000; fill-opacity:0.0; 
stroke:#000000; stroke-width:39.3701; stroke-opacity:1; 
stroke-linecap:round; stroke-linejoin:round;">
</g>
<g style="fill:#000000; fill-opacity:0.0; 
stroke:#000000; stroke-width:59.0551; stroke-opacity:1; 
stroke-linecap:round; stroke-linejoin:round;">
<path d="M4489 53332
L4464 53356
L4391 53381
L4342 53381
L4269 53356
L4221 53308
L4196 53259
L4172 53161
L4172 53088
L4196 52991
L4221 52942
L4269 52893
L4342 52869
L4391 52869
L4464 52893
L4489 52918
" />
</g>
<g style="fill:#000000; fill-opacity:0.0; 
stroke:#000000; stroke-width:39.3701; stroke-opacity:1; 
stroke-linecap:round; stroke-linejoin:round;">
</g>
<g style="fill:#000000; fill-opacity:0.0; 
stroke:#000000; stroke-width:59.0551; stroke-opacity:1; 
stroke-linecap:round; stroke-linejoin:round;">
<path d="M4196 73066
L4196 72554
L4318 72554
L4391 72578
L4440 72627
L4464 72676
L4489 72773
L4489 72846
L4464 72944
L4440 72993
L4391 73041
L4318 73066
L4196 73066
" />
</g>
<g style="fill:#000000; fill-opacity:0.0; 
stroke:#000000; stroke-width:39.3701; stroke-opacity:1; 
stroke-linecap:round; stroke-linejoin:round;">
</g>
<g style="fill:#000000; fill-opacity:0.0; 
stroke:#000000; stroke-width:59.0551; stroke-opacity:1; 
stroke-linecap:round; stroke-linejoin:round;">
<path d="M112992 23622
L112205 23622
" />
</g>
<g style="fill:#000000; fill-opacity:0.0; 
stroke:#000000; stroke-width:39.3701; stroke-opacity:1; 
stroke-linecap:round; stroke-linejoin:round;">
</g>
<g style="fill:#000000; fill-opacity:0.0; 
stroke:#000000; stroke-width:59.0551; stroke-opacity:1; 
stroke-linecap:round; stroke-linejoin:round;">
<path d="M112992 43307
L112205 43307
" />
</g>
<g style="fill:#000000; fill-opacity:0.0; 
stroke:#000000; stroke-width:39.3701; stroke-opacity:1; 
stroke-linecap:round; stroke-linejoin:round;">
</g>
<g style="fill:#000000; fill-opacity:0.0; 
stroke:#000000; stroke-width:59.0551; stroke-opacity:1; 
stroke-linecap:round; stroke-linejoin:round;">
<path d="M112992 62992
L112205 62992
" />
</g>
<g style="fill:#000000; fill-opacity:0.0; 
stroke:#000000; stroke-width:39.3701; stroke-opacity:1; 
stroke-linecap:round; stroke-linejoin:round;">
</g>
<g style="fill:#000000; fill-opacity:0.0; 
stroke:#000000; stroke-width:59.0551; stroke-opacity:1; 
stroke-linecap:round; stroke-linejoin:round;">
<path d="M112477 13864
L112721 13864
" />
<path d="M112428 14011
L112599 13499
L112769 14011
" />
</g>
<g style="fill:#000000; fill-opacity:0.0; 
stroke:#000000; stroke-width:39.3701; stroke-opacity:1; 
stroke-linecap:round; stroke-linejoin:round;">
</g>
<g style="fill:#000000; fill-opacity:0.0; 
stroke:#000000; stroke-width:59.0551; stroke-opacity:1; 
stroke-linecap:round; stroke-linejoin:round;">
<path d="M112635 33428
L112708 33452
L112733 33476
L112757 33525
L112757 33598
L112733 33647
L112708 33671
L112660 33696
L112465 33696
L112465 33184
L112635 33184
L112684 33208
L112708 33233
L112733 33281
L112733 33330
L112708 33379
L112684 33403
L112635 33428
L112465 33428
" />
</g>
<g style="fill:#000000; fill-opacity:0.0; 
stroke:#000000; stroke-width:39.3701; stroke-opacity:1; 
stroke-linecap:round; stroke-linejoin:round;">
</g>
<g style="fill:#000000; fill-opacity:0.0; 
stroke:#000000; stroke-width:59.0551; stroke-opacity:1; 
stroke-linecap:round; stroke-linejoin:round;">
<path d="M112757 53332
L112733 53356
L112660 53381
L112611 53381
L112538 53356
L112489 53308
L112465 53259
L112440 53161
L112440 53088
L112465 52991
L112489 52942
L112538 52893
L112611 52869
L112660 52869
L112733 52893
L112757 52918
" />
</g>
<g style="fill:#000000; fill-opacity:0.0; 
stroke:#000000; stroke-width:39.3701; stroke-opacity:1; 
stroke-linecap:round; stroke-linejoin:round;">
</g>
<g style="fill:#000000; fill-opacity:0.0; 
stroke:#000000; stroke-width:59.0551; stroke-opacity:1; 
stroke-linecap:round; stroke-linejoin:round;">
<path d="M112465 73066
L112465 72554
L112587 72554
L112660 72578
L112708 72627
L112733 72676
L112757 72773
L112757 72846
L112733 72944
L112708 72993
L112660 73041
L112587 73066
L112465 73066
" />
</g>
<g style="fill:#000000; fill-opacity:0.0; 
stroke:#000000; stroke-width:39.3701; stroke-opacity:1; 
stroke-linecap:round; stroke-linejoin:round;">
</g>
<g style="fill:#000000; fill-opacity:0.0; 
stroke:#000000; stroke-width:59.0551; stroke-opacity:1; 
stroke-linecap:round; stroke-linejoin:round;">
<path d="M78881 76293
L78881 75703
L79022 75703
L79106 75731
L79162 75787
L79190 75843
L79219 75956
L79219 76040
L79190 76153
L79162 76209
L79106 76265
L79022 76293
L78881 76293
" />
<path d="M79725 76293
L79725 75984
L79697 75928
L79640 75899
L79528 75899
L79472 75928
" />
<path d="M79725 76265
L79669 76293
L79528 76293
L79472 76265
L79444 76209
L79444 76153
L79472 76096
L79528 76068
L79669 76068
L79725 76040
" />
<path d="M79922 75899
L80147 75899
" />
<path d="M80006 75703
L80006 76209
L80034 76265
L80090 76293
L80147 76293
" />
<path d="M80568 76265
L80512 76293
L80400 76293
L80343 76265
L80315 76209
L80315 75984
L80343 75928
L80400 75899
L80512 75899
L80568 75928
L80597 75984
L80597 76040
L80315 76096
" />
<path d="M80850 76237
L80878 76265
L80850 76293
L80822 76265
L80850 76237
L80850 76293
" />
<path d="M80850 75928
L80878 75956
L80850 75984
L80822 75956
L80850 75928
L80850 75984
" />
<path d="M81553 75759
L81581 75731
L81637 75703
L81778 75703
L81834 75731
L81862 75759
L81890 75815
L81890 75871
L81862 75956
L81525 76293
L81890 76293
" />
<path d="M82256 75703
L82312 75703
L82368 75731
L82396 75759
L82424 75815
L82453 75928
L82453 76068
L82424 76181
L82396 76237
L82368 76265
L82312 76293
L82256 76293
L82199 76265
L82171 76237
L82143 76181
L82115 76068
L82115 75928
L82143 75815
L82171 75759
L82199 75731
L82256 75703
" />
<path d="M83015 76293
L82678 76293
" />
<path d="M82846 76293
L82846 75703
L82790 75787
L82734 75843
L82678 75871
" />
<path d="M83549 75703
L83268 75703
L83240 75984
L83268 75956
L83324 75928
L83465 75928
L83521 75956
L83549 75984
L83577 76040
L83577 76181
L83549 76237
L83521 76265
L83465 76293
L83324 76293
L83268 76265
L83240 76237
" />
<path d="M83831 76068
L84280 76068
" />
<path d="M84871 76293
L84534 76293
" />
<path d="M84702 76293
L84702 75703
L84646 75787
L84590 75843
L84534 75871
" />
<path d="M85096 75759
L85124 75731
L85180 75703
L85321 75703
L85377 75731
L85405 75759
L85433 75815
L85433 75871
L85405 75956
L85068 76293
L85433 76293
" />
<path d="M85687 76068
L86136 76068
" />
<path d="M86390 75759
L86418 75731
L86474 75703
L86615 75703
L86671 75731
L86699 75759
L86727 75815
L86727 75871
L86699 75956
L86361 76293
L86727 76293
" />
<path d="M87008 76293
L87121 76293
L87177 76265
L87205 76237
L87261 76153
L87289 76040
L87289 75815
L87261 75759
L87233 75731
L87177 75703
L87064 75703
L87008 75731
L86980 75759
L86952 75815
L86952 75956
L86980 76012
L87008 76040
L87064 76068
L87177 76068
L87233 76040
L87261 76012
L87289 75956
" />
</g>
<g style="fill:#000000; fill-opacity:0.0; 
stroke:#000000; stroke-width:39.3701; stroke-opacity:1; 
stroke-linecap:round; stroke-linejoin:round;">
</g>
<g style="fill:#000000; fill-opacity:0.0; 
stroke:#000000; stroke-width:59.0551; stroke-opacity:1; 
stroke-linecap:round; stroke-linejoin:round;">
<path d="M69685 76577
L112205 76577
" />
</g>
<g style="fill:#000000; fill-opacity:0.0; 
stroke:#000000; stroke-width:39.3701; stroke-opacity:1; 
stroke-linecap:round; stroke-linejoin:round;">
</g>
<g style="fill:#000000; fill-opacity:0.0; 
stroke:#000000; stroke-width:59.0551; stroke-opacity:1; 
stroke-linecap:round; stroke-linejoin:round;">
<path d="M70220 77395
L70220 76805
" />
<path d="M70557 77395
L70304 77058
" />
<path d="M70557 76805
L70220 77142
" />
<path d="M70810 77395
L70810 77002
" />
<path d="M70810 76805
L70782 76833
L70810 76861
L70838 76833
L70810 76805
L70810 76861
" />
<path d="M71429 77339
L71401 77367
L71316 77395
L71260 77395
L71176 77367
L71120 77311
L71091 77255
L71063 77142
L71063 77058
L71091 76946
L71120 76889
L71176 76833
L71260 76805
L71316 76805
L71401 76833
L71429 76861
" />
<path d="M71935 77395
L71935 77086
L71907 77030
L71851 77002
L71738 77002
L71682 77030
" />
<path d="M71935 77367
L71879 77395
L71738 77395
L71682 77367
L71654 77311
L71654 77255
L71682 77199
L71738 77171
L71879 77171
L71935 77142
" />
<path d="M72469 77395
L72469 76805
" />
<path d="M72469 77367
L72413 77395
L72301 77395
L72244 77367
L72216 77339
L72188 77283
L72188 77114
L72216 77058
L72244 77030
L72301 77002
L72413 77002
L72469 77030
" />
<path d="M73201 77086
L73397 77086
" />
<path d="M73482 77395
L73201 77395
L73201 76805
L73482 76805
" />
<path d="M73735 77339
L73763 77367
L73735 77395
L73707 77367
L73735 77339
L73735 77395
" />
<path d="M74016 77395
L74016 76805
L74157 76805
L74241 76833
L74297 76889
L74325 76946
L74354 77058
L74354 77142
L74325 77255
L74297 77311
L74241 77367
L74157 77395
L74016 77395
" />
<path d="M74607 77339
L74635 77367
L74607 77395
L74579 77367
L74607 77339
L74607 77395
" />
<path d="M74860 77227
L75141 77227
" />
<path d="M74804 77395
L75000 76805
L75197 77395
" />
<path d="M75394 77339
L75422 77367
L75394 77395
L75366 77367
L75394 77339
L75394 77395
" />
<path d="M76575 77395
L76575 76805
" />
<path d="M76631 77171
L76800 77395
" />
<path d="M76800 77002
L76575 77227
" />
<path d="M77053 77395
L77053 77002
" />
<path d="M77053 76805
L77025 76833
L77053 76861
L77081 76833
L77053 76805
L77053 76861
" />
<path d="M77588 77367
L77531 77395
L77419 77395
L77363 77367
L77334 77339
L77306 77283
L77306 77114
L77334 77058
L77363 77030
L77419 77002
L77531 77002
L77588 77030
" />
<path d="M78094 77395
L78094 77086
L78066 77030
L78009 77002
L77897 77002
L77841 77030
" />
<path d="M78094 77367
L78037 77395
L77897 77395
L77841 77367
L77813 77311
L77813 77255
L77841 77199
L77897 77171
L78037 77171
L78094 77142
" />
<path d="M78628 77395
L78628 76805
" />
<path d="M78628 77367
L78572 77395
L78459 77395
L78403 77367
L78375 77339
L78347 77283
L78347 77114
L78375 77058
L78403 77030
L78459 77002
L78572 77002
L78628 77030
" />
<path d="M79359 77002
L79359 77395
" />
<path d="M79359 77058
L79387 77030
L79444 77002
L79528 77002
L79584 77030
L79612 77086
L79612 77395
" />
<path d="M79978 77395
L79922 77367
L79894 77339
L79865 77283
L79865 77114
L79894 77058
L79922 77030
L79978 77002
L80062 77002
L80118 77030
L80147 77058
L80175 77114
L80175 77283
L80147 77339
L80118 77367
L80062 77395
L79978 77395
" />
<path d="M80428 77171
L80878 77171
" />
<path d="M81103 77002
L81243 77395
L81384 77002
" />
<path d="M81862 77367
L81806 77395
L81693 77395
L81637 77367
L81609 77339
L81581 77283
L81581 77114
L81609 77058
L81637 77030
L81693 77002
L81806 77002
L81862 77030
" />
<path d="M82087 77367
L82143 77395
L82256 77395
L82312 77367
L82340 77311
L82340 77283
L82312 77227
L82256 77199
L82171 77199
L82115 77171
L82087 77114
L82087 77086
L82115 77030
L82171 77002
L82256 77002
L82312 77030
" />
<path d="M82593 77171
L83043 77171
" />
<path d="M83240 77002
L83465 77002
" />
<path d="M83324 77395
L83324 76889
L83352 76833
L83409 76805
L83465 76805
" />
<path d="M83746 77395
L83690 77367
L83662 77339
L83634 77283
L83634 77114
L83662 77058
L83690 77030
L83746 77002
L83831 77002
L83887 77030
L83915 77058
L83943 77114
L83943 77283
L83915 77339
L83887 77367
L83831 77395
L83746 77395
" />
<path d="M84449 77002
L84449 77395
" />
<path d="M84196 77002
L84196 77311
L84224 77367
L84280 77395
L84365 77395
L84421 77367
L84449 77339
" />
<path d="M84730 77002
L84730 77395
" />
<path d="M84730 77058
L84759 77030
L84815 77002
L84899 77002
L84955 77030
L84983 77086
L84983 77395
" />
<path d="M85518 77395
L85518 76805
" />
<path d="M85518 77367
L85462 77395
L85349 77395
L85293 77367
L85265 77339
L85237 77283
L85237 77114
L85265 77058
L85293 77030
L85349 77002
L85462 77002
L85518 77030
" />
<path d="M85799 77171
L86249 77171
" />
<path d="M86530 77002
L86530 77592
" />
<path d="M86530 77030
L86586 77002
L86699 77002
L86755 77030
L86783 77058
L86811 77114
L86811 77283
L86783 77339
L86755 77367
L86699 77395
L86586 77395
L86530 77367
" />
<path d="M87064 77395
L87064 77002
" />
<path d="M87064 77114
L87093 77058
L87121 77030
L87177 77002
L87233 77002
" />
<path d="M87514 77395
L87458 77367
L87430 77339
L87402 77283
L87402 77114
L87430 77058
L87458 77030
L87514 77002
L87599 77002
L87655 77030
L87683 77058
L87711 77114
L87711 77283
L87683 77339
L87655 77367
L87599 77395
L87514 77395
" />
<path d="M88217 77395
L88217 76805
" />
<path d="M88217 77367
L88161 77395
L88049 77395
L87992 77367
L87964 77339
L87936 77283
L87936 77114
L87964 77058
L87992 77030
L88049 77002
L88161 77002
L88217 77030
" />
<path d="M88752 77002
L88752 77395
" />
<path d="M88499 77002
L88499 77311
L88527 77367
L88583 77395
L88667 77395
L88724 77367
L88752 77339
" />
<path d="M89286 77367
L89230 77395
L89117 77395
L89061 77367
L89033 77339
L89005 77283
L89005 77114
L89033 77058
L89061 77030
L89117 77002
L89230 77002
L89286 77030
" />
<path d="M89455 77002
L89680 77002
" />
<path d="M89539 76805
L89539 77311
L89567 77367
L89624 77395
L89680 77395
" />
</g>
<g style="fill:#000000; fill-opacity:0.0; 
stroke:#000000; stroke-width:39.3701; stroke-opacity:1; 
stroke-linecap:round; stroke-linejoin:round;">
</g>
<g style="fill:#000000; fill-opacity:0.0; 
stroke:#000000; stroke-width:59.0551; stroke-opacity:1; 
stroke-linecap:round; stroke-linejoin:round;">
<path d="M69685 75396
L112205 75396
" />
</g>
<g style="fill:#000000; fill-opacity:0.0; 
stroke:#000000; stroke-width:39.3701; stroke-opacity:1; 
stroke-linecap:round; stroke-linejoin:round;">
</g>
<g style="fill:#000000; fill-opacity:0.0; 
stroke:#000000; stroke-width:118.11; stroke-opacity:1; 
stroke-linecap:round; stroke-linejoin:round;">
<path d="M104022 76293
L103825 76012
" />
<path d="M103684 76293
L103684 75703
L103909 75703
L103965 75731
L103994 75759
L104022 75815
L104022 75899
L103994 75956
L103965 75984
L103909 76012
L103684 76012
" />
<path d="M104500 76265
L104444 76293
L104331 76293
L104275 76265
L104247 76209
L104247 75984
L104275 75928
L104331 75899
L104444 75899
L104500 75928
L104528 75984
L104528 76040
L104247 76096
" />
<path d="M104725 75899
L104865 76293
L105006 75899
" />
<path d="M105231 76237
L105259 76265
L105231 76293
L105203 76265
L105231 76237
L105231 76293
" />
<path d="M105231 75928
L105259 75956
L105231 75984
L105203 75956
L105231 75928
L105231 75984
" />
<path d="M106075 75703
L106131 75703
L106187 75731
L106215 75759
L106243 75815
L106271 75928
L106271 76068
L106243 76181
L106215 76237
L106187 76265
L106131 76293
L106075 76293
L106018 76265
L105990 76237
L105962 76181
L105934 76068
L105934 75928
L105962 75815
L105990 75759
L106018 75731
L106075 75703
" />
<path d="M106525 76237
L106553 76265
L106525 76293
L106496 76265
L106525 76237
L106525 76293
" />
<path d="M107115 76293
L106778 76293
" />
<path d="M106946 76293
L106946 75703
L106890 75787
L106834 75843
L106778 75871
" />
</g>
<g style="fill:#000000; fill-opacity:0.0; 
stroke:#000000; stroke-width:39.3701; stroke-opacity:1; 
stroke-linecap:round; stroke-linejoin:round;">
</g>
<g style="fill:#000000; fill-opacity:0.0; 
stroke:#000000; stroke-width:59.0551; stroke-opacity:1; 
stroke-linecap:round; stroke-linejoin:round;">
<path d="M70192 76265
L70276 76293
L70417 76293
L70473 76265
L70501 76237
L70529 76181
L70529 76124
L70501 76068
L70473 76040
L70417 76012
L70304 75984
L70248 75956
L70220 75928
L70192 75871
L70192 75815
L70220 75759
L70248 75731
L70304 75703
L70445 75703
L70529 75731
" />
<path d="M70782 76293
L70782 75899
" />
<path d="M70782 75703
L70754 75731
L70782 75759
L70810 75731
L70782 75703
L70782 75759
" />
<path d="M71007 75899
L71316 75899
L71007 76293
L71316 76293
" />
<path d="M71766 76265
L71710 76293
L71598 76293
L71541 76265
L71513 76209
L71513 75984
L71541 75928
L71598 75899
L71710 75899
L71766 75928
L71795 75984
L71795 76040
L71513 76096
" />
<path d="M72048 76237
L72076 76265
L72048 76293
L72019 76265
L72048 76237
L72048 76293
" />
<path d="M72048 75928
L72076 75956
L72048 75984
L72019 75956
L72048 75928
L72048 75984
" />
<path d="M72751 76124
L73032 76124
" />
<path d="M72694 76293
L72891 75703
L73088 76293
" />
<path d="M73538 75899
L73538 76293
" />
<path d="M73397 75674
L73257 76096
L73622 76096
" />
</g>
<g style="fill:#000000; fill-opacity:0.0; 
stroke:#000000; stroke-width:39.3701; stroke-opacity:1; 
stroke-linecap:round; stroke-linejoin:round;">
</g>
<g style="fill:#000000; fill-opacity:0.0; 
stroke:#000000; stroke-width:59.0551; stroke-opacity:1; 
stroke-linecap:round; stroke-linejoin:round;">
<path d="M103684 77395
L103684 76805
" />
<path d="M104219 77395
L104219 76805
" />
<path d="M104219 77367
L104162 77395
L104050 77395
L103994 77367
L103965 77339
L103937 77283
L103937 77114
L103965 77058
L103994 77030
L104050 77002
L104162 77002
L104219 77030
" />
<path d="M104500 77339
L104528 77367
L104500 77395
L104472 77367
L104500 77339
L104500 77395
" />
<path d="M104500 77030
L104528 77058
L104500 77086
L104472 77058
L104500 77030
L104500 77086
" />
<path d="M105540 77395
L105203 77395
" />
<path d="M105372 77395
L105372 76805
L105315 76889
L105259 76946
L105203 76974
" />
<path d="M106215 76777
L105709 77536
" />
<path d="M106721 77395
L106384 77395
" />
<path d="M106553 77395
L106553 76805
L106496 76889
L106440 76946
L106384 76974
" />
</g>
<g style="fill:#000000; fill-opacity:0.0; 
stroke:#000000; stroke-width:39.3701; stroke-opacity:1; 
stroke-linecap:round; stroke-linejoin:round;">
</g>
<g style="fill:#000000; fill-opacity:0.0; 
stroke:#000000; stroke-width:59.0551; stroke-opacity:1; 
stroke-linecap:round; stroke-linejoin:round;">
<path d="M69685 73821
L112205 73821
" />
</g>
<g style="fill:#000000; fill-opacity:0.0; 
stroke:#000000; stroke-width:39.3701; stroke-opacity:1; 
stroke-linecap:round; stroke-linejoin:round;">
</g>
<g style="fill:#000000; fill-opacity:0.0; 
stroke:#000000; stroke-width:157.48; stroke-opacity:1; 
stroke-linecap:round; stroke-linejoin:round;">
<path d="M70257 74099
L70707 74099
" />
<path d="M70384 74886
L70482 74099
" />
<path d="M70871 74886
L70937 74361
" />
<path d="M70970 74099
L70927 74136
L70960 74174
L71002 74136
L70970 74099
L70960 74174
" />
<path d="M71199 74361
L71499 74361
" />
<path d="M71345 74099
L71260 74774
L71288 74849
L71359 74886
L71434 74886
" />
<path d="M71809 74886
L71738 74849
L71710 74774
L71795 74099
" />
<path d="M72413 74849
L72334 74886
L72184 74886
L72113 74849
L72085 74774
L72123 74474
L72169 74399
L72249 74361
L72399 74361
L72469 74399
L72498 74474
L72488 74549
L72104 74624
" />
<path d="M72793 74811
L72826 74849
L72783 74886
L72751 74849
L72793 74811
L72783 74886
" />
<path d="M72844 74399
L72877 74436
L72835 74474
L72802 74436
L72844 74399
L72835 74474
" />
<path d="M73758 74886
L73857 74099
L74049 74661
L74382 74099
L74283 74886
" />
<path d="M74771 74886
L74700 74849
L74668 74811
L74639 74736
L74668 74511
L74714 74436
L74757 74399
L74836 74361
L74949 74361
L75019 74399
L75052 74436
L75080 74511
L75052 74736
L75005 74811
L74963 74849
L74883 74886
L74771 74886
" />
<path d="M75324 74361
L75624 74361
" />
<path d="M75469 74099
L75385 74774
L75413 74849
L75483 74886
L75558 74886
" />
<path d="M75821 74886
L75886 74361
" />
<path d="M75919 74099
L75877 74136
L75910 74174
L75952 74136
L75919 74099
L75910 74174
" />
<path d="M76308 74886
L76238 74849
L76205 74811
L76177 74736
L76205 74511
L76252 74436
L76294 74399
L76374 74361
L76486 74361
L76556 74399
L76589 74436
L76617 74511
L76589 74736
L76542 74811
L76500 74849
L76421 74886
L76308 74886
" />
<path d="M76974 74361
L76908 74886
" />
<path d="M76964 74436
L77006 74399
L77086 74361
L77199 74361
L77269 74399
L77297 74474
L77245 74886
" />
<path d="M78187 74849
L78295 74886
L78483 74886
L78562 74849
L78605 74811
L78651 74736
L78661 74661
L78633 74586
L78600 74549
L78530 74511
L78384 74474
L78314 74436
L78281 74399
L78253 74324
L78262 74249
L78309 74174
L78352 74136
L78431 74099
L78619 74099
L78726 74136
" />
<path d="M79275 74849
L79195 74886
L79045 74886
L78975 74849
L78947 74774
L78984 74474
L79031 74399
L79111 74361
L79261 74361
L79331 74399
L79359 74474
L79350 74549
L78965 74624
" />
<path d="M79711 74361
L79645 74886
" />
<path d="M79701 74436
L79744 74399
L79823 74361
L79936 74361
L80006 74399
L80034 74474
L79983 74886
" />
<path d="M80325 74849
L80395 74886
L80545 74886
L80625 74849
L80672 74774
L80676 74736
L80648 74661
L80578 74624
L80465 74624
L80395 74586
L80367 74511
L80372 74474
L80418 74399
L80498 74361
L80611 74361
L80681 74399
" />
<path d="M81107 74886
L81037 74849
L81004 74811
L80976 74736
L81004 74511
L81051 74436
L81093 74399
L81173 74361
L81286 74361
L81356 74399
L81389 74436
L81417 74511
L81389 74736
L81342 74811
L81300 74849
L81220 74886
L81107 74886
" />
<path d="M81707 74886
L81773 74361
" />
<path d="M81754 74511
L81801 74436
L81843 74399
L81923 74361
L81998 74361
" />
<path d="M82785 74361
L82870 74886
L83067 74511
L83170 74886
L83385 74361
" />
<path d="M83620 74886
L83685 74361
" />
<path d="M83718 74099
L83676 74136
L83709 74174
L83751 74136
L83718 74099
L83709 74174
" />
<path d="M83948 74361
L84248 74361
" />
<path d="M84093 74099
L84009 74774
L84037 74849
L84107 74886
L84182 74886
" />
<path d="M84444 74886
L84543 74099
" />
<path d="M84782 74886
L84834 74474
L84805 74399
L84735 74361
L84623 74361
L84543 74399
L84501 74436
" />
<path d="M85757 74886
L85855 74099
L86155 74099
L86226 74136
L86258 74174
L86286 74249
L86272 74361
L86226 74436
L86183 74474
L86104 74511
L85804 74511
" />
<path d="M86568 74099
L86657 74886
L86877 74324
L86957 74886
L87243 74099
" />
<path d="M87444 74886
L87543 74099
L87735 74661
L88067 74099
L87969 74886
" />
<path d="M89319 74886
L88944 74886
L89042 74099
" />
<path d="M89633 74474
L89895 74474
" />
<path d="M89956 74886
L89581 74886
L89680 74099
L90055 74099
" />
<path d="M90294 74886
L90392 74099
L90580 74099
L90687 74136
L90753 74211
L90781 74286
L90800 74436
L90786 74549
L90730 74699
L90683 74774
L90598 74849
L90481 74886
L90294 74886
" />
<path d="M91648 74849
L91756 74886
L91944 74886
L92023 74849
L92065 74811
L92112 74736
L92122 74661
L92094 74586
L92061 74549
L91990 74511
L91845 74474
L91775 74436
L91742 74399
L91714 74324
L91723 74249
L91770 74174
L91812 74136
L91892 74099
L92079 74099
L92187 74136
" />
<path d="M92384 74361
L92684 74361
" />
<path d="M92529 74099
L92445 74774
L92473 74849
L92543 74886
L92618 74886
" />
<path d="M92881 74886
L92947 74361
" />
<path d="M92928 74511
L92975 74436
L93017 74399
L93097 74361
L93172 74361
" />
<path d="M93368 74886
L93434 74361
" />
<path d="M93467 74099
L93425 74136
L93457 74174
L93500 74136
L93467 74099
L93457 74174
" />
<path d="M93809 74361
L93711 75149
" />
<path d="M93804 74399
L93884 74361
L94034 74361
L94104 74399
L94137 74436
L94165 74511
L94137 74736
L94090 74811
L94048 74849
L93968 74886
L93818 74886
L93748 74849
" />
</g>
<g style="fill:#000000; fill-opacity:0.0; 
stroke:#000000; stroke-width:39.3701; stroke-opacity:1; 
stroke-linecap:round; stroke-linejoin:round;">
</g>
<g style="fill:#000000; fill-opacity:0.0; 
stroke:#000000; stroke-width:59.0551; stroke-opacity:1; 
stroke-linecap:round; stroke-linejoin:round;">
<path d="M70417 73070
L70220 73070
" />
<path d="M70220 73380
L70220 72789
L70501 72789
" />
<path d="M70726 73380
L70726 72986
" />
<path d="M70726 72789
L70698 72817
L70726 72845
L70754 72817
L70726 72789
L70726 72845
" />
<path d="M71091 73380
L71035 73352
L71007 73295
L71007 72789
" />
<path d="M71541 73352
L71485 73380
L71373 73380
L71316 73352
L71288 73295
L71288 73070
L71316 73014
L71373 72986
L71485 72986
L71541 73014
L71570 73070
L71570 73127
L71288 73183
" />
<path d="M71823 73323
L71851 73352
L71823 73380
L71795 73352
L71823 73323
L71823 73380
" />
<path d="M71823 73014
L71851 73042
L71823 73070
L71795 73042
L71823 73014
L71823 73070
" />
<path d="M72554 73380
L72554 72986
" />
<path d="M72554 73042
L72582 73014
L72638 72986
L72723 72986
L72779 73014
L72807 73070
L72807 73380
" />
<path d="M72807 73070
L72835 73014
L72891 72986
L72976 72986
L73032 73014
L73060 73070
L73060 73380
" />
<path d="M73426 73380
L73369 73352
L73341 73323
L73313 73267
L73313 73099
L73341 73042
L73369 73014
L73426 72986
L73510 72986
L73566 73014
L73594 73042
L73622 73099
L73622 73267
L73594 73323
L73566 73352
L73510 73380
L73426 73380
" />
<path d="M73791 72986
L74016 72986
" />
<path d="M73876 72789
L73876 73295
L73904 73352
L73960 73380
L74016 73380
" />
<path d="M74213 73380
L74213 72986
" />
<path d="M74213 72789
L74185 72817
L74213 72845
L74241 72817
L74213 72789
L74213 72845
" />
<path d="M74579 73380
L74522 73352
L74494 73323
L74466 73267
L74466 73099
L74494 73042
L74522 73014
L74579 72986
L74663 72986
L74719 73014
L74747 73042
L74775 73099
L74775 73267
L74747 73323
L74719 73352
L74663 73380
L74579 73380
" />
<path d="M75028 72986
L75028 73380
" />
<path d="M75028 73042
L75057 73014
L75113 72986
L75197 72986
L75253 73014
L75282 73070
L75282 73380
" />
<path d="M75563 73155
L76013 73155
" />
<path d="M76266 73352
L76322 73380
L76435 73380
L76491 73352
L76519 73295
L76519 73267
L76491 73211
L76435 73183
L76350 73183
L76294 73155
L76266 73099
L76266 73070
L76294 73014
L76350 72986
L76435 72986
L76491 73014
" />
<path d="M76997 73352
L76941 73380
L76828 73380
L76772 73352
L76744 73295
L76744 73070
L76772 73014
L76828 72986
L76941 72986
L76997 73014
L77025 73070
L77025 73127
L76744 73183
" />
<path d="M77278 72986
L77278 73380
" />
<path d="M77278 73042
L77306 73014
L77363 72986
L77447 72986
L77503 73014
L77531 73070
L77531 73380
" />
<path d="M77784 73352
L77841 73380
L77953 73380
L78009 73352
L78037 73295
L78037 73267
L78009 73211
L77953 73183
L77869 73183
L77813 73155
L77784 73099
L77784 73070
L77813 73014
L77869 72986
L77953 72986
L78009 73014
" />
<path d="M78375 73380
L78319 73352
L78291 73323
L78262 73267
L78262 73099
L78291 73042
L78319 73014
L78375 72986
L78459 72986
L78516 73014
L78544 73042
L78572 73099
L78572 73267
L78544 73323
L78516 73352
L78459 73380
L78375 73380
" />
<path d="M78825 73380
L78825 72986
" />
<path d="M78825 73099
L78853 73042
L78881 73014
L78937 72986
L78994 72986
" />
<path d="M79190 73323
L79219 73352
L79190 73380
L79162 73352
L79190 73323
L79190 73380
" />
<path d="M79472 73380
L79472 72789
" />
<path d="M79528 73155
L79697 73380
" />
<path d="M79697 72986
L79472 73211
" />
<path d="M79950 73380
L79950 72986
" />
<path d="M79950 72789
L79922 72817
L79950 72845
L79978 72817
L79950 72789
L79950 72845
" />
<path d="M80484 73352
L80428 73380
L80315 73380
L80259 73352
L80231 73323
L80203 73267
L80203 73099
L80231 73042
L80259 73014
L80315 72986
L80428 72986
L80484 73014
" />
<path d="M80990 73380
L80990 73070
L80962 73014
L80906 72986
L80793 72986
L80737 73014
" />
<path d="M80990 73352
L80934 73380
L80793 73380
L80737 73352
L80709 73295
L80709 73239
L80737 73183
L80793 73155
L80934 73155
L80990 73127
" />
<path d="M81525 73380
L81525 72789
" />
<path d="M81525 73352
L81468 73380
L81356 73380
L81300 73352
L81271 73323
L81243 73267
L81243 73099
L81271 73042
L81300 73014
L81356 72986
L81468 72986
L81525 73014
" />
<path d="M81665 73436
L82115 73436
" />
<path d="M82256 72986
L82256 73577
" />
<path d="M82256 73014
L82312 72986
L82424 72986
L82481 73014
L82509 73042
L82537 73099
L82537 73267
L82509 73323
L82481 73352
L82424 73380
L82312 73380
L82256 73352
" />
<path d="M83043 73352
L82987 73380
L82874 73380
L82818 73352
L82790 73323
L82762 73267
L82762 73099
L82790 73042
L82818 73014
L82874 72986
L82987 72986
L83043 73014
" />
<path d="M83296 73380
L83296 72789
" />
<path d="M83296 73014
L83352 72986
L83465 72986
L83521 73014
L83549 73042
L83577 73099
L83577 73267
L83549 73323
L83521 73352
L83465 73380
L83352 73380
L83296 73352
" />
</g>
<g style="fill:#000000; fill-opacity:0.0; 
stroke:#000000; stroke-width:39.3701; stroke-opacity:1; 
stroke-linecap:round; stroke-linejoin:round;">
</g>
<g style="fill:#000000; fill-opacity:0.0; 
stroke:#000000; stroke-width:59.0551; stroke-opacity:1; 
stroke-linecap:round; stroke-linejoin:round;">
<path d="M69685 71459
L112205 71459
" />
</g>
<g style="fill:#000000; fill-opacity:0.0; 
stroke:#000000; stroke-width:39.3701; stroke-opacity:1; 
stroke-linecap:round; stroke-linejoin:round;">
</g>
<g style="fill:#000000; fill-opacity:0.0; 
stroke:#000000; stroke-width:59.0551; stroke-opacity:1; 
stroke-linecap:round; stroke-linejoin:round;">
<path d="M70192 72289
L70276 72317
L70417 72317
L70473 72289
L70501 72260
L70529 72204
L70529 72148
L70501 72092
L70473 72064
L70417 72036
L70304 72007
L70248 71979
L70220 71951
L70192 71895
L70192 71839
L70220 71782
L70248 71754
L70304 71726
L70445 71726
L70529 71754
" />
<path d="M70782 72317
L70782 71726
" />
<path d="M71035 72317
L71035 72007
L71007 71951
L70951 71923
L70867 71923
L70810 71951
L70782 71979
" />
<path d="M71541 72289
L71485 72317
L71373 72317
L71316 72289
L71288 72232
L71288 72007
L71316 71951
L71373 71923
L71485 71923
L71541 71951
L71570 72007
L71570 72064
L71288 72120
" />
<path d="M72048 72289
L71991 72317
L71879 72317
L71823 72289
L71795 72232
L71795 72007
L71823 71951
L71879 71923
L71991 71923
L72048 71951
L72076 72007
L72076 72064
L71795 72120
" />
<path d="M72244 71923
L72469 71923
" />
<path d="M72329 71726
L72329 72232
L72357 72289
L72413 72317
L72469 72317
" />
<path d="M72666 72260
L72694 72289
L72666 72317
L72638 72289
L72666 72260
L72666 72317
" />
<path d="M72666 71951
L72694 71979
L72666 72007
L72638 71979
L72666 71951
L72666 72007
" />
</g>
<g style="fill:#000000; fill-opacity:0.0; 
stroke:#000000; stroke-width:39.3701; stroke-opacity:1; 
stroke-linecap:round; stroke-linejoin:round;">
</g>
<g style="fill:#000000; fill-opacity:0.0; 
stroke:#000000; stroke-width:118.11; stroke-opacity:1; 
stroke-linecap:round; stroke-linejoin:round;">
<path d="M70388 70545
L70388 70967
L70360 71051
L70304 71108
L70220 71136
L70163 71136
" />
<path d="M70754 71136
L70698 71108
L70670 71079
L70642 71023
L70642 70854
L70670 70798
L70698 70770
L70754 70742
L70838 70742
L70895 70770
L70923 70798
L70951 70854
L70951 71023
L70923 71079
L70895 71108
L70838 71136
L70754 71136
" />
<path d="M70698 70545
L70726 70573
L70698 70601
L70670 70573
L70698 70545
L70698 70601
" />
<path d="M70923 70545
L70951 70573
L70923 70601
L70895 70573
L70923 70545
L70923 70601
" />
<path d="M71204 71136
L71204 70742
" />
<path d="M71204 70854
L71232 70798
L71260 70770
L71316 70742
L71373 70742
" />
<path d="M71823 70742
L71823 71220
L71795 71276
L71766 71304
L71710 71332
L71626 71332
L71570 71304
" />
<path d="M71823 71108
L71766 71136
L71654 71136
L71598 71108
L71570 71079
L71541 71023
L71541 70854
L71570 70798
L71598 70770
L71654 70742
L71766 70742
L71823 70770
" />
<path d="M72751 70826
L72835 70854
L72863 70883
L72891 70939
L72891 71023
L72863 71079
L72835 71108
L72779 71136
L72554 71136
L72554 70545
L72751 70545
L72807 70573
L72835 70601
L72863 70658
L72863 70714
L72835 70770
L72807 70798
L72751 70826
L72554 70826
" />
<path d="M73229 71136
L73172 71108
L73144 71079
L73116 71023
L73116 70854
L73144 70798
L73172 70770
L73229 70742
L73313 70742
L73369 70770
L73397 70798
L73426 70854
L73426 71023
L73397 71079
L73369 71108
L73313 71136
L73229 71136
" />
<path d="M73763 71136
L73707 71108
L73679 71051
L73679 70545
" />
<path d="M74241 71136
L74241 70826
L74213 70770
L74157 70742
L74044 70742
L73988 70770
" />
<path d="M74241 71108
L74185 71136
L74044 71136
L73988 71108
L73960 71051
L73960 70995
L73988 70939
L74044 70911
L74185 70911
L74241 70883
" />
<path d="M74466 70742
L74607 71136
" />
<path d="M74747 70742
L74607 71136
L74550 71276
L74522 71304
L74466 71332
" />
</g>
<g style="fill:#000000; fill-opacity:0.0; 
stroke:#000000; stroke-width:39.3701; stroke-opacity:1; 
stroke-linecap:round; stroke-linejoin:round;">
</g>
<g style="fill:#000000; fill-opacity:0.0; 
stroke:#000000; stroke-width:59.0551; stroke-opacity:1; 
stroke-linecap:round; stroke-linejoin:round;">
<path d="M77559 75396
L77559 76577
" />
</g>
<g style="fill:#000000; fill-opacity:0.0; 
stroke:#000000; stroke-width:39.3701; stroke-opacity:1; 
stroke-linecap:round; stroke-linejoin:round;">
</g>
<g style="fill:#000000; fill-opacity:0.0; 
stroke:#000000; stroke-width:59.0551; stroke-opacity:1; 
stroke-linecap:round; stroke-linejoin:round;">
<path d="M102756 75396
L102756 77955
" />
</g>
<g style="fill:#008484; fill-opacity:0.0; 
stroke:#008484; stroke-width:59.0551; stroke-opacity:1; 
stroke-linecap:round; stroke-linejoin:round;">
</g>
<g style="fill:#008484; fill-opacity:0.0; 
stroke:#008484; stroke-width:118.11; stroke-opacity:1; 
stroke-linecap:round; stroke-linejoin:round;">
<path d="M27173 30849
L27173 30511
" />
<path d="M27173 30680
L27764 30680
L27679 30624
L27623 30568
L27595 30511
" />
<path d="M27764 31946
L27764 32311
L27539 32114
L27539 32199
L27511 32255
L27483 32283
L27426 32311
L27286 32311
L27230 32283
L27201 32255
L27173 32199
L27173 32030
L27201 31974
L27230 31946
" />
<path d="M27764 33745
L27764 33464
L27483 33436
L27511 33464
L27539 33520
L27539 33661
L27511 33717
L27483 33745
L27426 33773
L27286 33773
L27230 33745
L27201 33717
L27173 33661
L27173 33520
L27201 33464
L27230 33436
" />
<path d="M27764 34870
L27764 35264
L27173 35011
" />
<path d="M26763 30511
L26791 30539
L26819 30596
L26819 30736
L26791 30793
L26763 30821
L26706 30849
L26650 30849
L26566 30821
L26228 30483
L26228 30849
" />
<path d="M26622 32255
L26228 32255
" />
<path d="M26847 32114
L26425 31974
L26425 32339
" />
<path d="M26819 33717
L26819 33605
L26791 33548
L26763 33520
L26678 33464
L26566 33436
L26341 33436
L26285 33464
L26257 33492
L26228 33548
L26228 33661
L26257 33717
L26285 33745
L26341 33773
L26482 33773
L26538 33745
L26566 33717
L26594 33661
L26594 33548
L26566 33492
L26538 33464
L26482 33436
" />
<path d="M26566 35011
L26594 34955
L26622 34926
L26678 34898
L26706 34898
L26763 34926
L26791 34955
L26819 35011
L26819 35123
L26791 35179
L26763 35208
L26706 35236
L26678 35236
L26622 35208
L26594 35179
L26566 35123
L26566 35011
L26538 34955
L26510 34926
L26453 34898
L26341 34898
L26285 34926
L26257 34955
L26228 35011
L26228 35123
L26257 35179
L26285 35208
L26341 35236
L26453 35236
L26510 35208
L26538 35179
L26566 35123
" />
<path d="M21105 31439
L21105 31636
" />
<path d="M20795 31721
L20795 31439
L21386 31439
L21386 31721
" />
<path d="M20823 31946
L20795 32030
L20795 32170
L20823 32227
L20852 32255
L20908 32283
L20964 32283
L21020 32255
L21048 32227
L21077 32170
L21105 32058
L21133 32002
L21161 31974
L21217 31946
L21273 31946
L21330 31974
L21358 32002
L21386 32058
L21386 32199
L21358 32283
" />
<path d="M20795 32536
L21386 32536
L21386 32761
L21358 32817
L21330 32845
L21273 32874
L21189 32874
L21133 32845
L21105 32817
L21077 32761
L21077 32536
" />
<path d="M21133 33211
L21161 33155
L21189 33127
L21245 33098
L21273 33098
L21330 33127
L21358 33155
L21386 33211
L21386 33323
L21358 33380
L21330 33408
L21273 33436
L21245 33436
L21189 33408
L21161 33380
L21133 33323
L21133 33211
L21105 33155
L21077 33127
L21020 33098
L20908 33098
L20852 33127
L20823 33155
L20795 33211
L20795 33323
L20823 33380
L20852 33408
L20908 33436
L21020 33436
L21077 33408
L21105 33380
L21133 33323
" />
<path d="M21330 33661
L21358 33689
L21386 33745
L21386 33886
L21358 33942
L21330 33970
L21273 33998
L21217 33998
L21133 33970
L20795 33633
L20795 33998
" />
<path d="M21386 34505
L21386 34392
L21358 34336
L21330 34308
L21245 34251
L21133 34223
L20908 34223
L20852 34251
L20823 34280
L20795 34336
L20795 34448
L20823 34505
L20852 34533
L20908 34561
L21048 34561
L21105 34533
L21133 34505
L21161 34448
L21161 34336
L21133 34280
L21105 34251
L21048 34223
" />
<path d="M21386 35067
L21386 34955
L21358 34898
L21330 34870
L21245 34814
L21133 34786
L20908 34786
L20852 34814
L20823 34842
L20795 34898
L20795 35011
L20823 35067
L20852 35095
L20908 35123
L21048 35123
L21105 35095
L21133 35067
L21161 35011
L21161 34898
L21133 34842
L21105 34814
L21048 34786
" />
</g>
<g style="fill:#008484; fill-opacity:0.0; 
stroke:#008484; stroke-width:78.7402; stroke-opacity:1; 
stroke-linecap:round; stroke-linejoin:round;">
<path d="M18307 30118
L28149 30118
" />
<path d="M18307 36023
L18307 30118
" />
<path d="M28149 36023
L18307 36023
" />
<path d="M28149 30118
L28149 36023
" />
</g>
<g style="fill:#C2C200; fill-opacity:0.0; 
stroke:#C2C200; stroke-width:78.7402; stroke-opacity:1; 
stroke-linecap:round; stroke-linejoin:round;">
</g>
<g style="fill:#C2C200; fill-opacity:0.0; 
stroke:#C2C200; stroke-width:59.0551; stroke-opacity:1; 
stroke-linecap:round; stroke-linejoin:round;">
<path d="M51456 39370
L19685 39370
" />
<path d="M51456 59409
L51456 39370
" />
<path d="M19685 59409
L51456 59409
" />
<path d="M19685 39370
L19685 59409
" />
<path d="M64503 30145
L64503 18846
" />
<path d="M85644 30145
L64503 30145
" />
<path d="M85644 18846
L85644 30145
" />
<path d="M64503 18846
L85644 18846
" />
<path d="M46036 58730
L46017 58749
L45961 58767
L45924 58767
L45868 58749
L45830 58711
L45811 58674
L45793 58599
L45793 58542
L45811 58467
L45830 58430
L45868 58392
L45924 58374
L45961 58374
L46017 58392
L46036 58411
" />
<path d="M46411 58767
L46186 58767
" />
<path d="M46299 58767
L46299 58374
L46261 58430
L46224 58467
L46186 58486
" />
<path d="M48644 51246
L48663 51265
L48682 51321
L48682 51359
L48663 51415
L48625 51452
L48588 51471
L48513 51490
L48457 51490
L48382 51471
L48344 51452
L48307 51415
L48288 51359
L48288 51321
L48307 51265
L48325 51246
" />
<path d="M48325 51096
L48307 51077
L48288 51040
L48288 50946
L48307 50909
L48325 50890
L48363 50871
L48400 50871
L48457 50890
L48682 51115
L48682 50871
" />
<path d="M27493 53329
L27474 53348
L27418 53367
L27380 53367
L27324 53348
L27287 53310
L27268 53273
L27249 53198
L27249 53142
L27268 53067
L27287 53029
L27324 52992
L27380 52973
L27418 52973
L27474 52992
L27493 53010
" />
<path d="M27624 52973
L27868 52973
L27737 53123
L27793 53123
L27830 53142
L27849 53160
L27868 53198
L27868 53292
L27849 53329
L27830 53348
L27793 53367
L27680 53367
L27643 53348
L27624 53329
" />
<path d="M44225 45298
L44206 45316
L44150 45335
L44113 45335
L44056 45316
L44019 45279
L44000 45241
L43982 45166
L43982 45110
L44000 45035
L44019 44998
L44056 44960
L44113 44941
L44150 44941
L44206 44960
L44225 44979
" />
<path d="M44563 45073
L44563 45335
" />
<path d="M44469 44923
L44375 45204
L44619 45204
" />
<path d="M26509 45298
L26490 45316
L26434 45335
L26396 45335
L26340 45316
L26302 45279
L26284 45241
L26265 45166
L26265 45110
L26284 45035
L26302 44998
L26340 44960
L26396 44941
L26434 44941
L26490 44960
L26509 44979
" />
<path d="M26865 44941
L26677 44941
L26659 45129
L26677 45110
L26715 45091
L26809 45091
L26846 45110
L26865 45129
L26884 45166
L26884 45260
L26865 45298
L26846 45316
L26809 45335
L26715 45335
L26677 45316
L26659 45298
" />
<path d="M43532 46668
L43513 46687
L43457 46706
L43419 46706
L43363 46687
L43325 46650
L43307 46612
L43288 46537
L43288 46481
L43307 46406
L43325 46368
L43363 46331
L43419 46312
L43457 46312
L43513 46331
L43532 46350
" />
<path d="M43700 46706
L43700 46312
" />
<path d="M43888 46706
L43888 46312
L44113 46706
L44113 46312
" />
<path d="M44506 46706
L44281 46706
" />
<path d="M44394 46706
L44394 46312
L44356 46368
L44319 46406
L44281 46425
" />
<path d="M38998 57761
L39017 57780
L39036 57836
L39036 57874
L39017 57930
L38980 57967
L38942 57986
L38867 58005
L38811 58005
L38736 57986
L38698 57967
L38661 57930
L38642 57874
L38642 57836
L38661 57780
L38680 57761
" />
<path d="M38642 57517
L38642 57442
L38661 57405
L38698 57367
L38773 57349
L38905 57349
L38980 57367
L39017 57405
L39036 57442
L39036 57517
L39017 57555
L38980 57592
L38905 57611
L38773 57611
L38698 57592
L38661 57555
L38642 57517
" />
<path d="M39036 57180
L38642 57180
L39036 56955
L38642 56955
" />
<path d="M39036 56561
L39036 56786
" />
<path d="M39036 56674
L38642 56674
L38698 56711
L38736 56749
L38755 56786
" />
<path d="M32148 42013
L32167 42032
L32185 42088
L32185 42125
L32167 42182
L32129 42219
L32092 42238
L32017 42257
L31961 42257
L31886 42238
L31848 42219
L31811 42182
L31792 42125
L31792 42088
L31811 42032
L31829 42013
" />
<path d="M31792 41769
L31792 41694
L31811 41657
L31848 41619
L31923 41601
L32054 41601
L32129 41619
L32167 41657
L32185 41694
L32185 41769
L32167 41807
L32129 41844
L32054 41863
L31923 41863
L31848 41844
L31811 41807
L31792 41769
" />
<path d="M32185 41432
L31792 41432
L32185 41207
L31792 41207
" />
<path d="M31829 41038
L31811 41019
L31792 40982
L31792 40888
L31811 40851
L31829 40832
L31867 40813
L31904 40813
L31961 40832
L32185 41057
L32185 40813
" />
<path d="M31599 52697
L31599 52304
L31692 52304
L31749 52322
L31786 52360
L31805 52397
L31824 52472
L31824 52529
L31805 52604
L31786 52641
L31749 52679
L31692 52697
L31599 52697
" />
<path d="M31974 52341
L31992 52322
L32030 52304
L32124 52304
L32161 52322
L32180 52341
L32199 52379
L32199 52416
L32180 52472
L31955 52697
L32199 52697
" />
<path d="M30867 50974
L30473 50974
" />
<path d="M30829 50562
L30848 50581
L30867 50637
L30867 50674
L30848 50731
L30810 50768
L30773 50787
L30698 50806
L30642 50806
L30567 50787
L30529 50768
L30492 50731
L30473 50674
L30473 50637
L30492 50581
L30510 50562
" />
<path d="M30867 50187
L30867 50412
" />
<path d="M30867 50299
L30473 50299
L30529 50337
L30567 50374
L30585 50412
" />
<path d="M29863 41450
L30144 41450
L30200 41468
L30238 41506
L30256 41562
L30256 41600
" />
<path d="M30256 41056
L30256 41281
" />
<path d="M30256 41168
L29863 41168
L29919 41206
L29956 41243
L29975 41281
" />
<path d="M47579 41450
L47860 41450
L47917 41468
L47954 41506
L47973 41562
L47973 41600
" />
<path d="M47617 41281
L47598 41262
L47579 41225
L47579 41131
L47598 41093
L47617 41075
L47654 41056
L47692 41056
L47748 41075
L47973 41300
L47973 41056
" />
<path d="M48517 44430
L48329 44430
L48329 44036
" />
<path d="M48854 44430
L48629 44430
" />
<path d="M48742 44430
L48742 44036
L48704 44092
L48667 44130
L48629 44148
" />
<path d="M24961 51849
L24567 51849
L24567 51699
L24586 51662
L24605 51643
L24642 51624
L24699 51624
L24736 51643
L24755 51662
L24774 51699
L24774 51849
" />
<path d="M24961 51249
L24961 51474
" />
<path d="M24961 51362
L24567 51362
L24624 51399
L24661 51437
L24680 51474
" />
<path d="M40170 51722
L39776 51722
L39776 51572
L39795 51535
L39814 51516
L39851 51497
L39907 51497
L39945 51516
L39964 51535
L39982 51572
L39982 51722
" />
<path d="M39814 51347
L39795 51329
L39776 51291
L39776 51197
L39795 51160
L39814 51141
L39851 51122
L39889 51122
L39945 51141
L40170 51366
L40170 51122
" />
<path d="M35573 45509
L35555 45547
L35517 45584
L35461 45641
L35442 45678
L35442 45716
" />
<path d="M35536 45697
L35517 45734
L35480 45772
L35405 45791
L35273 45791
L35198 45772
L35161 45734
L35142 45697
L35142 45622
L35161 45584
L35198 45547
L35273 45528
L35405 45528
L35480 45547
L35517 45584
L35536 45622
L35536 45697
" />
<path d="M35536 45153
L35536 45378
" />
<path d="M35536 45266
L35142 45266
L35198 45303
L35236 45341
L35255 45378
" />
<path d="M46154 55611
L46023 55423
" />
<path d="M45929 55611
L45929 55217
L46079 55217
L46117 55236
L46136 55254
L46154 55292
L46154 55348
L46136 55386
L46117 55404
L46079 55423
L45929 55423
" />
<path d="M46529 55611
L46304 55611
" />
<path d="M46417 55611
L46417 55217
L46379 55273
L46342 55311
L46304 55329
" />
<path d="M47020 51556
L46889 51368
" />
<path d="M46796 51556
L46796 51162
L46946 51162
L46983 51181
L47002 51199
L47020 51237
L47020 51293
L47002 51331
L46983 51349
L46946 51368
L46796 51368
" />
<path d="M47170 51199
L47189 51181
L47227 51162
L47320 51162
L47358 51181
L47377 51199
L47395 51237
L47395 51274
L47377 51331
L47152 51556
L47395 51556
" />
<path d="M43367 51443
L43179 51574
" />
<path d="M43367 51668
L42973 51668
L42973 51518
L42992 51481
L43010 51462
L43048 51443
L43104 51443
L43142 51462
L43160 51481
L43179 51518
L43179 51668
" />
<path d="M42973 51312
L42973 51068
L43123 51199
L43123 51143
L43142 51106
L43160 51087
L43198 51068
L43292 51068
L43329 51087
L43348 51106
L43367 51143
L43367 51256
L43348 51293
L43329 51312
" />
<path d="M34284 51004
L34153 50817
" />
<path d="M34059 51004
L34059 50611
L34209 50611
L34247 50629
L34266 50648
L34284 50686
L34284 50742
L34266 50779
L34247 50798
L34209 50817
L34059 50817
" />
<path d="M34622 50742
L34622 51004
" />
<path d="M34528 50592
L34434 50873
L34678 50873
" />
<path d="M31036 44981
L30905 44793
" />
<path d="M30811 44981
L30811 44587
L30961 44587
L30999 44606
L31017 44625
L31036 44662
L31036 44718
L31017 44756
L30999 44775
L30961 44793
L30811 44793
" />
<path d="M31392 44587
L31205 44587
L31186 44775
L31205 44756
L31242 44737
L31336 44737
L31374 44756
L31392 44775
L31411 44812
L31411 44906
L31392 44943
L31374 44962
L31336 44981
L31242 44981
L31205 44962
L31186 44943
" />
<path d="M31036 46752
L30905 46565
" />
<path d="M30811 46752
L30811 46359
L30961 46359
L30999 46377
L31017 46396
L31036 46434
L31036 46490
L31017 46527
L30999 46546
L30961 46565
L30811 46565
" />
<path d="M31374 46359
L31299 46359
L31261 46377
L31242 46396
L31205 46452
L31186 46527
L31186 46677
L31205 46715
L31224 46734
L31261 46752
L31336 46752
L31374 46734
L31392 46715
L31411 46677
L31411 46584
L31392 46546
L31374 46527
L31336 46509
L31261 46509
L31224 46527
L31205 46546
L31186 46584
" />
<path d="M46410 52622
L46729 52622
L46766 52604
L46785 52585
L46804 52547
L46804 52472
L46785 52435
L46766 52416
L46729 52397
L46410 52397
" />
<path d="M46804 52004
L46804 52229
" />
<path d="M46804 52116
L46410 52116
L46466 52154
L46504 52191
L46522 52229
" />
<path d="M51103 55014
L50709 55014
L50709 54921
L50728 54865
L50765 54827
L50803 54808
L50878 54790
L50934 54790
L51009 54808
L51047 54827
L51084 54865
L51103 54921
L51103 55014
" />
<path d="M51103 54415
L51103 54640
" />
<path d="M51103 54527
L50709 54527
L50765 54565
L50803 54602
L50822 54640
" />
</g>
<g style="fill:#008484; fill-opacity:0.0; 
stroke:#008484; stroke-width:59.0551; stroke-opacity:1; 
stroke-linecap:round; stroke-linejoin:round;">
<path d="M48839 53547
L48445 53547
" />
<path d="M48839 53323
L48614 53491
" />
<path d="M48445 53323
L48670 53547
" />
<path d="M48746 56018
L48746 55831
" />
<path d="M48859 56056
L48465 55925
L48859 55793
" />
</g>
<g style="fill:#C2C200; fill-opacity:0.0; 
stroke:#C2C200; stroke-width:59.0551; stroke-opacity:1; 
stroke-linecap:round; stroke-linejoin:round;">
<path d="M22559 45566
L22166 45566
L22166 45472
L22185 45416
L22222 45378
L22260 45359
L22335 45341
L22391 45341
L22466 45359
L22503 45378
L22541 45416
L22559 45472
L22559 45566
" />
<path d="M22166 45209
L22166 44966
L22316 45097
L22316 45041
L22335 45003
L22353 44985
L22391 44966
L22485 44966
L22522 44985
L22541 45003
L22559 45041
L22559 45153
L22541 45191
L22522 45209
" />
</g>
<g style="fill:#008484; fill-opacity:0.0; 
stroke:#008484; stroke-width:59.0551; stroke-opacity:1; 
stroke-linecap:round; stroke-linejoin:round;">
<path d="M20296 44099
L19902 44099
" />
<path d="M20296 43874
L20071 44042
" />
<path d="M19902 43874
L20127 44099
" />
<path d="M20203 46570
L20203 46382
" />
<path d="M20315 46607
L19922 46476
L20315 46345
" />
</g>
<g style="fill:#C2C200; fill-opacity:0.0; 
stroke:#C2C200; stroke-width:59.0551; stroke-opacity:1; 
stroke-linecap:round; stroke-linejoin:round;">
<path d="M32217 53445
L32086 53258
" />
<path d="M31992 53445
L31992 53052
L32142 53052
L32180 53070
L32199 53089
L32217 53127
L32217 53183
L32199 53220
L32180 53239
L32142 53258
L31992 53258
" />
<path d="M32349 53052
L32611 53052
L32442 53445
" />
<path d="M29304 46359
L29173 46171
" />
<path d="M29079 46359
L29079 45965
L29229 45965
L29266 45984
L29285 46002
L29304 46040
L29304 46096
L29285 46134
L29266 46152
L29229 46171
L29079 46171
" />
<path d="M29529 46134
L29491 46115
L29473 46096
L29454 46059
L29454 46040
L29473 46002
L29491 45984
L29529 45965
L29604 45965
L29641 45984
L29660 46002
L29679 46040
L29679 46059
L29660 46096
L29641 46115
L29604 46134
L29529 46134
L29491 46152
L29473 46171
L29454 46209
L29454 46284
L29473 46321
L29491 46340
L29529 46359
L29604 46359
L29641 46340
L29660 46321
L29679 46284
L29679 46209
L29660 46171
L29641 46152
L29604 46134
" />
<path d="M40059 54238
L39872 54370
" />
<path d="M40059 54463
L39666 54463
L39666 54313
L39685 54276
L39703 54257
L39741 54238
L39797 54238
L39835 54257
L39853 54276
L39872 54313
L39872 54463
" />
<path d="M40059 54051
L40059 53976
L40041 53938
L40022 53920
L39966 53882
L39891 53863
L39741 53863
L39703 53882
L39685 53901
L39666 53938
L39666 54013
L39685 54051
L39703 54070
L39741 54088
L39835 54088
L39872 54070
L39891 54051
L39910 54013
L39910 53938
L39891 53901
L39872 53882
L39835 53863
" />
</g>
<g style="fill:#008484; fill-opacity:0.0; 
stroke:#008484; stroke-width:59.0551; stroke-opacity:1; 
stroke-linecap:round; stroke-linejoin:round;">
<circle cx="49527.6" cy="41259.8" r="900" /> 
<circle cx="49527.6" cy="57874" r="900" /> 
<path d="M47252 57189
L47252 56589
" />
<path d="M47202 56439
L47202 57339
" />
<path d="M47152 57439
L47152 56339
" />
<path d="M47102 56239
L47102 57539
" />
<path d="M47052 57589
L47052 56189
" />
<path d="M47402 58189
L47402 55589
" />
<path d="M47402 55589
L45102 55589
" />
<path d="M45102 55589
L44802 55889
" />
<path d="M44802 55889
L44802 57889
" />
<path d="M44802 57889
L45102 58189
" />
<path d="M45102 58189
L47402 58189
" />
<path d="M45252 56889
L45552 56889
" />
<path d="M45402 57039
L45402 56739
" />
<circle cx="46102.4" cy="56889.8" r="1200" /> 
<path d="M49005 50787
L49005 51574
" />
<path d="M49812 51574
L49812 50787
" />
<path d="M27952 53690
L27165 53690
" />
<path d="M27165 54498
L27952 54498
" />
<path d="M44685 45659
L43897 45659
" />
<path d="M43897 46466
L44685 46466
" />
<path d="M26968 45659
L26181 45659
" />
<path d="M26181 46466
L26968 46466
" />
<path d="M42747 47928
L42747 48528
" />
<path d="M42797 48678
L42797 47778
" />
<path d="M42847 47678
L42847 48778
" />
<path d="M42897 48878
L42897 47578
" />
<path d="M42947 47528
L42947 48928
" />
<path d="M42597 46928
L42597 49528
" />
<path d="M42597 49528
L44897 49528
" />
<path d="M44897 49528
L45197 49228
" />
<path d="M45197 49228
L45197 47228
" />
<path d="M45197 47228
L44897 46928
" />
<path d="M44897 46928
L42597 46928
" />
<path d="M44747 48228
L44447 48228
" />
<path d="M44597 48078
L44597 48378
" />
<circle cx="43897.6" cy="48228.3" r="1200" /> 
<path d="M34173 60393
L34173 56062
" />
<path d="M34173 56062
L36692 56062
" />
<path d="M36692 56062
L36692 60393
" />
<path d="M35039 60000
L35039 56062
" />
<path d="M35039 56062
L35826 56062
" />
<path d="M35826 56062
L35826 60000
" />
<path d="M35826 60000
L35039 60000
" />
<path d="M33661 60393
L33661 54566
" />
<path d="M33661 54566
L37204 54566
" />
<path d="M37204 54566
L37204 60393
" />
<path d="M37204 60393
L33661 60393
" />
<path d="M36692 38425
L36692 42755
" />
<path d="M36692 42755
L34173 42755
" />
<path d="M34173 42755
L34173 38425
" />
<path d="M35826 38818
L35826 42755
" />
<path d="M35826 42755
L35039 42755
" />
<path d="M35039 42755
L35039 38818
" />
<path d="M35039 38818
L35826 38818
" />
<path d="M37204 38425
L37204 44251
" />
<path d="M37204 44251
L33661 44251
" />
<path d="M33661 44251
L33661 38425
" />
<path d="M33661 38425
L37204 38425
" />
<path d="M32736 51318
L31318 51318
" />
<path d="M32736 52145
L31318 52145
" />
<path d="M31929 51850
L31929 51614
" />
<path d="M31929 51614
L32047 51732
" />
<path d="M32047 51732
L31968 51811
" />
<path d="M31968 51811
L31968 51712
" />
<path d="M31968 51712
L31988 51732
" />
<path d="M32086 51929
L32086 51535
" />
<path d="M31889 51732
L31692 51732
" />
<path d="M32086 51732
L31889 51929
" />
<path d="M31889 51929
L31889 51535
" />
<path d="M31889 51535
L32086 51732
" />
<path d="M29734 49163
L29606 49163
" />
<path d="M29734 52017
L29606 52017
" />
<path d="M26879 52017
L27007 52017
" />
<path d="M26879 49163
L27007 49163
" />
<path d="M29734 49163
L29734 49291
" />
<path d="M26879 49163
L26879 49291
" />
<path d="M26879 52017
L26879 51889
" />
<path d="M29734 52017
L29734 51889
" />
<path d="M29606 49163
L29606 48602
" />
<path d="M26515 43700
L24311 43700
" />
<path d="M24311 43700
L24311 38700
" />
<path d="M24311 38700
L28759 38700
" />
<path d="M28759 38700
L28759 43700
" />
<path d="M28759 43700
L26515 43700
" />
<path d="M44232 43700
L42027 43700
" />
<path d="M42027 43700
L42027 38700
" />
<path d="M42027 38700
L46476 38700
" />
<path d="M46476 38700
L46476 43700
" />
<path d="M46476 43700
L44232 43700
" />
<path d="M50708 47677
L50708 47086
" />
<path d="M50708 46062
L50708 46692
" />
<path d="M49488 44921
L47992 44921
" />
<path d="M46850 46122
L46850 46692
" />
<path d="M46850 47637
L46850 47086
" />
<path d="M49527 48858
L48031 48858
" />
<path d="M50511.8 46889.8 A196.85 196.85 0.0 0 0 50708.7 47086.6 " />
<path d="M50708.7 46692.9 A196.85 196.85 0.0 0 0 50511.8 46889.8 " />
<path d="M46850.4 47086.6 A196.85 196.85 0.0 0 0 47047.2 46889.8 " />
<path d="M47047.2 46889.8 A196.85 196.85 0.0 0 0 46850.4 46692.9 " />
<path d="M49527.6 48858.3 A1181.1 1181.1 0.0 0 0 50708.7 47677.2 " />
<path d="M50708.7 46063 A1181.76 1181.76 0.0 0 0 49488.2 44921.3 " />
<path d="M48011.8 44921.3 A1181.27 1181.27 0.0 0 0 46850.4 46122 " />
<path d="M46850.4 47637.8 A1200.95 1200.95 0.0 0 0 48031.5 48858.3 " />
<path d="M22858 53200
L22858 50051
" />
<path d="M22858 50051
L23724 50051
" />
<path d="M23724 50051
L23724 53200
" />
<path d="M23724 53200
L22858 53200
" />
<path d="M36892 49632
L38862 49632
" />
<path d="M38862 49632
L38862 53832
" />
<path d="M38862 53832
L36892 53832
" />
<path d="M36892 53832
L36892 49632
" />
<path d="M33838 44881
L34114 44881
" />
<path d="M34114 44881
L34114 44979
" />
<path d="M34114 45983
L34114 46062
" />
<path d="M34114 46062
L33838 46062
" />
<path d="M45826 54104
L46614 54104
" />
<path d="M46614 54950
L45826 54950
" />
<path d="M46692 50049
L47480 50049
" />
<path d="M47480 50895
L46692 50895
" />
<path d="M44517 50984
L44517 51771
" />
<path d="M43671 51771
L43671 50984
" />
<path d="M34744 52155
L33956 52155
" />
<path d="M33956 51309
L34744 51309
" />
<path d="M30708 43474
L31496 43474
" />
<path d="M31496 44320
L30708 44320
" />
<path d="M30708 45246
L31496 45246
" />
<path d="M31496 46092
L30708 46092
" />
<path d="M46225 53322
L46225 51322
" />
<path d="M46225 51322
L48025 51322
" />
<path d="M48025 51322
L48025 53322
" />
<path d="M48025 53322
L46225 53322
" />
<path d="M46825 53322
L46825 53122
" />
<path d="M46825 53122
L47325 53122
" />
<path d="M47325 53122
L47325 53322
" />
<circle cx="21574.8" cy="41259.8" r="900" /> 
<circle cx="21574.8" cy="57874" r="900" /> 
<path d="M49803 54625
L49980 54842
" />
<path d="M49980 54842
L49625 54842
" />
<path d="M49625 54842
L49803 54625
" />
<path d="M50019 54625
L49586 54625
" />
<path d="M49114 54016
L49252 54016
" />
<path d="M50492 54016
L50354 54016
" />
<path d="M49114 55610
L49252 55610
" />
<path d="M49114 53838
L49252 53838
" />
<path d="M50492 53838
L50354 53838
" />
<path d="M50492 55610
L50354 55610
" />
<path d="M49114 53838
L49114 55610
" />
<path d="M50492 53838
L50492 55610
" />
<path d="M21259 45177
L21437 45393
" />
<path d="M21437 45393
L21082 45393
" />
<path d="M21082 45393
L21259 45177
" />
<path d="M21476 45177
L21043 45177
" />
<path d="M20570 44567
L20708 44567
" />
<path d="M21948 44567
L21810 44567
" />
<path d="M20570 46161
L20708 46161
" />
<path d="M20570 44389
L20708 44389
" />
<path d="M21948 44389
L21810 44389
" />
<path d="M21948 46161
L21810 46161
" />
<path d="M20570 44389
L20570 46161
" />
<path d="M21948 44389
L21948 46161
" />
<path d="M32677 54596
L31889 54596
" />
<path d="M31889 53750
L32677 53750
" />
<path d="M29763 47509
L28976 47509
" />
<path d="M28976 46663
L29763 46663
" />
<path d="M41210 53779
L41210 54566
" />
<path d="M40364 54566
L40364 53779
" />
</g>
<g style="fill:#840000; fill-opacity:0.0; 
stroke:#840000; stroke-width:59.0551; stroke-opacity:1; 
stroke-linecap:round; stroke-linejoin:round;">
</g>
<g style="fill:#840000; fill-opacity:1.0; 
stroke:#840000; stroke-width:0; stroke-opacity:1; 
stroke-linecap:round; stroke-linejoin:round;">
<circle cx="49527.6" cy="41259.8" r="767.717" /> 
</g>
<g style="fill:#840000; fill-opacity:1.0; 
stroke:#840000; stroke-width:39.3701; stroke-opacity:1; 
stroke-linecap:round; stroke-linejoin:round;">
</g>
<g style="fill:#840000; fill-opacity:1.0; 
stroke:#840000; stroke-width:0; stroke-opacity:1; 
stroke-linecap:round; stroke-linejoin:round;">
<circle cx="49527.6" cy="57874" r="767.717" /> 
</g>
<g style="fill:#840000; fill-opacity:1.0; 
stroke:#840000; stroke-width:39.3701; stroke-opacity:1; 
stroke-linecap:round; stroke-linejoin:round;">
</g>
<g style="fill:#840000; fill-opacity:1.0; 
stroke:#840000; stroke-width:0; stroke-opacity:1; 
stroke-linecap:round; stroke-linejoin:round;">
<circle cx="21574.8" cy="41259.8" r="728.346" /> 
</g>
<g style="fill:#840000; fill-opacity:1.0; 
stroke:#840000; stroke-width:39.3701; stroke-opacity:1; 
stroke-linecap:round; stroke-linejoin:round;">
</g>
<g style="fill:#840000; fill-opacity:1.0; 
stroke:#840000; stroke-width:0; stroke-opacity:1; 
stroke-linecap:round; stroke-linejoin:round;">
<circle cx="21574.8" cy="57874" r="767.717" /> 
</g>
<g style="fill:#840000; fill-opacity:1.0; 
stroke:#840000; stroke-width:39.3701; stroke-opacity:1; 
stroke-linecap:round; stroke-linejoin:round;">
</g> 
</svg>
