<?xml version="1.0" standalone="no"?>
 <!DOCTYPE svg PUBLIC "-//W3C//DTD SVG 1.1//EN" 
 "http://www.w3.org/Graphics/SVG/1.1/DTD/svg11.dtd"> 
<svg xmlns="http://www.w3.org/2000/svg" version="1.1" 
    width="29.7002cm" height="21.0007cm" viewBox="0 0 116930 82680 ">
<title>SVG Picture created as motion-sensor-F.Cu.svg date 2016/02/11 20:57:52 </title>
  <desc>Picture generated by PCBNEW </desc>
<g style="fill:#000000; fill-opacity:1;stroke:#000000; stroke-opacity:1;
stroke-linecap:round; stroke-linejoin:round; "
 transform="translate(0 0) scale(1 1)">
</g>
<g style="fill:#000000; fill-opacity:0.0; 
stroke:#000000; stroke-width:-0.000393701; stroke-opacity:1; 
stroke-linecap:round; stroke-linejoin:round;">
</g>
<g style="fill:#000000; fill-opacity:0.0; 
stroke:#000000; stroke-width:118.11; stroke-opacity:1; 
stroke-linecap:round; stroke-linejoin:round;">
<path d="M38428 43613
L38652 43613
" />
<path d="M38512 43416
L38512 43922
L38540 43979
L38596 44007
L38652 44007
" />
<path d="M38934 44007
L38877 43979
L38849 43951
L38821 43894
L38821 43726
L38849 43669
L38877 43641
L38934 43613
L39018 43613
L39074 43641
L39102 43669
L39131 43726
L39131 43894
L39102 43951
L39074 43979
L39018 44007
L38934 44007
" />
<path d="M39384 43613
L39384 44204
" />
<path d="M39384 43641
L39440 43613
L39552 43613
L39609 43641
L39637 43669
L39665 43726
L39665 43894
L39637 43951
L39609 43979
L39552 44007
L39440 44007
L39384 43979
" />
<path d="M35897 44952
L35897 44558
" />
<path d="M35897 44614
L35925 44586
L35981 44558
L36065 44558
L36122 44586
L36150 44642
L36150 44952
" />
<path d="M36150 44642
L36178 44586
L36234 44558
L36318 44558
L36375 44586
L36403 44642
L36403 44952
" />
<path d="M36768 44952
L36712 44924
L36684 44895
L36656 44839
L36656 44670
L36684 44614
L36712 44586
L36768 44558
L36853 44558
L36909 44586
L36937 44614
L36965 44670
L36965 44839
L36937 44895
L36909 44924
L36853 44952
L36768 44952
" />
<path d="M37134 44558
L37359 44558
" />
<path d="M37218 44361
L37218 44867
L37246 44924
L37303 44952
L37359 44952
" />
<path d="M37556 44952
L37556 44558
" />
<path d="M37556 44361
L37528 44389
L37556 44417
L37584 44389
L37556 44361
L37556 44417
" />
<path d="M37921 44952
L37865 44924
L37837 44895
L37809 44839
L37809 44670
L37837 44614
L37865 44586
L37921 44558
L38006 44558
L38062 44586
L38090 44614
L38118 44670
L38118 44839
L38090 44895
L38062 44924
L38006 44952
L37921 44952
" />
<path d="M38371 44558
L38371 44952
" />
<path d="M38371 44614
L38399 44586
L38456 44558
L38540 44558
L38596 44586
L38624 44642
L38624 44952
" />
<path d="M38906 44727
L39356 44727
" />
<path d="M39609 44924
L39665 44952
L39777 44952
L39834 44924
L39862 44867
L39862 44839
L39834 44783
L39777 44755
L39693 44755
L39637 44727
L39609 44670
L39609 44642
L39637 44586
L39693 44558
L39777 44558
L39834 44586
" />
<path d="M40340 44924
L40284 44952
L40171 44952
L40115 44924
L40087 44867
L40087 44642
L40115 44586
L40171 44558
L40284 44558
L40340 44586
L40368 44642
L40368 44699
L40087 44755
" />
<path d="M40621 44558
L40621 44952
" />
<path d="M40621 44614
L40649 44586
L40705 44558
L40790 44558
L40846 44586
L40874 44642
L40874 44952
" />
<path d="M41127 44924
L41183 44952
L41296 44952
L41352 44924
L41380 44867
L41380 44839
L41352 44783
L41296 44755
L41212 44755
L41155 44727
L41127 44670
L41127 44642
L41155 44586
L41212 44558
L41296 44558
L41352 44586
" />
<path d="M41718 44952
L41661 44924
L41633 44895
L41605 44839
L41605 44670
L41633 44614
L41661 44586
L41718 44558
L41802 44558
L41858 44586
L41886 44614
L41915 44670
L41915 44839
L41886 44895
L41858 44924
L41802 44952
L41718 44952
" />
<path d="M42168 44952
L42168 44558
" />
<path d="M42168 44670
L42196 44614
L42224 44586
L42280 44558
L42336 44558
" />
<path d="M35939 45503
L35939 46009
L35911 46065
L35854 46093
L35826 46093
" />
<path d="M35939 45306
L35911 45334
L35939 45362
L35967 45334
L35939 45306
L35939 45362
" />
<path d="M36304 45897
L36248 45868
L36220 45840
L36192 45784
L36192 45615
L36220 45559
L36248 45531
L36304 45503
L36389 45503
L36445 45531
L36473 45559
L36501 45615
L36501 45784
L36473 45840
L36445 45868
L36389 45897
L36304 45897
" />
<path d="M36754 45897
L36754 45503
" />
<path d="M36754 45615
L36782 45559
L36811 45531
L36867 45503
L36923 45503
" />
<path d="M37373 45503
L37373 45981
L37345 46037
L37317 46065
L37260 46093
L37176 46093
L37120 46065
" />
<path d="M37373 45868
L37317 45897
L37204 45897
L37148 45868
L37120 45840
L37092 45784
L37092 45615
L37120 45559
L37148 45531
L37204 45503
L37317 45503
L37373 45531
" />
<path d="M38020 45615
L37992 45587
L37935 45559
L37879 45559
L37823 45587
L37795 45615
L37767 45672
L37767 45728
L37795 45784
L37823 45812
L37879 45840
L37935 45840
L37992 45812
L38020 45784
" />
<path d="M38020 45559
L38020 45784
L38048 45812
L38076 45812
L38132 45784
L38160 45728
L38160 45587
L38104 45503
L38020 45447
L37907 45419
L37795 45447
L37710 45503
L37654 45587
L37626 45700
L37654 45812
L37710 45897
L37795 45953
L37907 45981
L38020 45953
L38104 45897
" />
<path d="M38413 45897
L38413 45306
" />
<path d="M38413 45531
L38470 45503
L38582 45503
L38638 45531
L38667 45559
L38695 45615
L38695 45784
L38667 45840
L38638 45868
L38582 45897
L38470 45897
L38413 45868
" />
<path d="M39032 45897
L38976 45868
L38948 45840
L38920 45784
L38920 45615
L38948 45559
L38976 45531
L39032 45503
L39116 45503
L39173 45531
L39201 45559
L39229 45615
L39229 45784
L39201 45840
L39173 45868
L39116 45897
L39032 45897
" />
<path d="M39566 45897
L39510 45868
L39482 45812
L39482 45306
" />
<path d="M40044 45897
L40044 45587
L40016 45531
L39960 45503
L39848 45503
L39791 45531
" />
<path d="M40044 45868
L39988 45897
L39848 45897
L39791 45868
L39763 45812
L39763 45756
L39791 45700
L39848 45672
L39988 45672
L40044 45643
" />
<path d="M40269 45503
L40410 45897
" />
<path d="M40551 45503
L40410 45897
L40354 46037
L40326 46065
L40269 46093
" />
<path d="M40776 45840
L40804 45868
L40776 45897
L40748 45868
L40776 45840
L40776 45897
" />
<path d="M41141 45897
L41085 45868
L41057 45840
L41029 45784
L41029 45615
L41057 45559
L41085 45531
L41141 45503
L41226 45503
L41282 45531
L41310 45559
L41338 45615
L41338 45784
L41310 45840
L41282 45868
L41226 45897
L41141 45897
" />
<path d="M41591 45897
L41591 45503
" />
<path d="M41591 45615
L41619 45559
L41647 45531
L41704 45503
L41760 45503
" />
<path d="M42210 45503
L42210 45981
L42182 46037
L42154 46065
L42097 46093
L42013 46093
L41957 46065
" />
<path d="M42210 45868
L42154 45897
L42041 45897
L41985 45868
L41957 45840
L41929 45784
L41929 45615
L41957 45559
L41985 45531
L42041 45503
L42154 45503
L42210 45531
" />
</g>
<g style="fill:#000000; fill-opacity:1.0; 
stroke:#000000; stroke-width:0; stroke-opacity:1; 
stroke-linecap:round; stroke-linejoin:round;">
<circle cx="49527.6" cy="41259.8" r="767.717" /> 
</g>
<g style="fill:#000000; fill-opacity:1.0; 
stroke:#000000; stroke-width:39.3701; stroke-opacity:1; 
stroke-linecap:round; stroke-linejoin:round;">
</g>
<g style="fill:#000000; fill-opacity:1.0; 
stroke:#000000; stroke-width:0; stroke-opacity:1; 
stroke-linecap:round; stroke-linejoin:round;">
<circle cx="49527.6" cy="57874" r="767.717" /> 
</g>
<g style="fill:#000000; fill-opacity:1.0; 
stroke:#000000; stroke-width:39.3701; stroke-opacity:1; 
stroke-linecap:round; stroke-linejoin:round;">
</g>
<g style="fill:#000000; fill-opacity:1.0; 
stroke:#000000; stroke-width:0; stroke-opacity:1; 
stroke-linecap:round; stroke-linejoin:round;">
<polyline style="fill-rule:evenodd;"
points="45727,56574
45727,57204
44310,57204
44310,56574
45727,56574
" /> 
<polyline style="fill-rule:evenodd;"
points="47893,56574
47893,57204
46476,57204
46476,56574
47893,56574
" /> 
<polyline style="fill-rule:evenodd;"
points="49724,52362
49094,52362
49094,51574
49724,51574
49724,52362
" /> 
<polyline style="fill-rule:evenodd;"
points="49724,50787
49094,50787
49094,50000
49724,50000
49724,50787
" /> 
<polyline style="fill-rule:evenodd;"
points="26377,54409
26377,53779
27165,53779
27165,54409
26377,54409
" /> 
<polyline style="fill-rule:evenodd;"
points="27952,54409
27952,53779
28740,53779
28740,54409
27952,54409
" /> 
<polyline style="fill-rule:evenodd;"
points="43110,46377
43110,45748
43897,45748
43897,46377
43110,46377
" /> 
<polyline style="fill-rule:evenodd;"
points="44685,46377
44685,45748
45472,45748
45472,46377
44685,46377
" /> 
<polyline style="fill-rule:evenodd;"
points="25393,46377
25393,45748
26181,45748
26181,46377
25393,46377
" /> 
<polyline style="fill-rule:evenodd;"
points="26968,46377
26968,45748
27755,45748
27755,46377
26968,46377
" /> 
<polyline style="fill-rule:evenodd;"
points="44272,48543
44272,47913
45689,47913
45689,48543
44272,48543
" /> 
<polyline style="fill-rule:evenodd;"
points="42106,48543
42106,47913
43523,47913
43523,48543
42106,48543
" /> 
<polyline style="fill-rule:evenodd;"
points="33720,58799
32814,58799
32814,58051
33720,58051
33720,58799
" /> 
<polyline style="fill-rule:evenodd;"
points="38051,57027
37145,57027
37145,56279
38051,56279
38051,57027
" /> 
<polyline style="fill-rule:evenodd;"
points="38051,58799
37145,58799
37145,58051
38051,58051
38051,58799
" /> 
<polyline style="fill-rule:evenodd;"
points="33720,57027
32814,57027
32814,56279
33720,56279
33720,57027
" /> 
<polyline style="fill-rule:evenodd;"
points="37145,40019
38051,40019
38051,40767
37145,40767
37145,40019
" /> 
<polyline style="fill-rule:evenodd;"
points="32814,41791
33720,41791
33720,42539
32814,42539
32814,41791
" /> 
<polyline style="fill-rule:evenodd;"
points="32814,40019
33720,40019
33720,40767
32814,40767
32814,40019
" /> 
<polyline style="fill-rule:evenodd;"
points="37145,41791
38051,41791
38051,42539
37145,42539
37145,41791
" /> 
<polyline style="fill-rule:evenodd;"
points="31016,52086
31016,51377
31645,51377
31645,52086
31016,52086
" /> 
<polyline style="fill-rule:evenodd;"
points="32134,52086
32134,51377
32763,51377
32763,52086
32134,52086
" /> 
<polyline style="fill-rule:evenodd;"
points="29301,48602
29517,48602
29517,49232
29301,49232
29301,48602
" /> 
<polyline style="fill-rule:evenodd;"
points="28986,48602
29202,48602
29202,49232
28986,49232
28986,48602
" /> 
<polyline style="fill-rule:evenodd;"
points="28671,48602
28887,48602
28887,49232
28671,49232
28671,48602
" /> 
<polyline style="fill-rule:evenodd;"
points="28356,48602
28572,48602
28572,49232
28356,49232
28356,48602
" /> 
<polyline style="fill-rule:evenodd;"
points="28041,48602
28257,48602
28257,49232
28041,49232
28041,48602
" /> 
<polyline style="fill-rule:evenodd;"
points="27726,48602
27942,48602
27942,49232
27726,49232
27726,48602
" /> 
<polyline style="fill-rule:evenodd;"
points="27411,48602
27627,48602
27627,49232
27411,49232
27411,48602
" /> 
<polyline style="fill-rule:evenodd;"
points="27096,48602
27312,48602
27312,49232
27096,49232
27096,48602
" /> 
<polyline style="fill-rule:evenodd;"
points="26318,49596
26318,49379
26948,49379
26948,49596
26318,49596
" /> 
<polyline style="fill-rule:evenodd;"
points="26318,49911
26318,49694
26948,49694
26948,49911
26318,49911
" /> 
<polyline style="fill-rule:evenodd;"
points="26318,50226
26318,50009
26948,50009
26948,50226
26318,50226
" /> 
<polyline style="fill-rule:evenodd;"
points="26318,50541
26318,50324
26948,50324
26948,50541
26318,50541
" /> 
<polyline style="fill-rule:evenodd;"
points="26318,50856
26318,50639
26948,50639
26948,50856
26318,50856
" /> 
<polyline style="fill-rule:evenodd;"
points="26318,51171
26318,50954
26948,50954
26948,51171
26318,51171
" /> 
<polyline style="fill-rule:evenodd;"
points="26318,51486
26318,51269
26948,51269
26948,51486
26318,51486
" /> 
<polyline style="fill-rule:evenodd;"
points="26318,51801
26318,51584
26948,51584
26948,51801
26318,51801
" /> 
<polyline style="fill-rule:evenodd;"
points="27096,51948
27312,51948
27312,52578
27096,52578
27096,51948
" /> 
<polyline style="fill-rule:evenodd;"
points="27411,51948
27627,51948
27627,52578
27411,52578
27411,51948
" /> 
<polyline style="fill-rule:evenodd;"
points="27726,51948
27942,51948
27942,52578
27726,52578
27726,51948
" /> 
<polyline style="fill-rule:evenodd;"
points="28041,51948
28257,51948
28257,52578
28041,52578
28041,51948
" /> 
<polyline style="fill-rule:evenodd;"
points="28356,51948
28572,51948
28572,52578
28356,52578
28356,51948
" /> 
<polyline style="fill-rule:evenodd;"
points="28671,51948
28887,51948
28887,52578
28671,52578
28671,51948
" /> 
<polyline style="fill-rule:evenodd;"
points="28986,51948
29202,51948
29202,52578
28986,52578
28986,51948
" /> 
<polyline style="fill-rule:evenodd;"
points="29301,51948
29517,51948
29517,52578
29301,52578
29301,51948
" /> 
<polyline style="fill-rule:evenodd;"
points="29665,51801
29665,51584
30295,51584
30295,51801
29665,51801
" /> 
<polyline style="fill-rule:evenodd;"
points="29665,51486
29665,51269
30295,51269
30295,51486
29665,51486
" /> 
<polyline style="fill-rule:evenodd;"
points="29665,51171
29665,50954
30295,50954
30295,51171
29665,51171
" /> 
<polyline style="fill-rule:evenodd;"
points="29665,50856
29665,50639
30295,50639
30295,50856
29665,50856
" /> 
<polyline style="fill-rule:evenodd;"
points="29665,50541
29665,50324
30295,50324
30295,50541
29665,50541
" /> 
<polyline style="fill-rule:evenodd;"
points="29665,50226
29665,50009
30295,50009
30295,50226
29665,50226
" /> 
<polyline style="fill-rule:evenodd;"
points="29665,49911
29665,49694
30295,49694
30295,49911
29665,49911
" /> 
<polyline style="fill-rule:evenodd;"
points="29665,49596
29665,49379
30295,49379
30295,49596
29665,49596
" /> 
<polyline style="fill-rule:evenodd;"
points="27423,45120
27108,45120
27108,43702
27423,43702
27423,45120
" /> 
<polyline style="fill-rule:evenodd;"
points="26923,45120
26608,45120
26608,43702
26923,43702
26923,45120
" /> 
<polyline style="fill-rule:evenodd;"
points="26423,45120
26108,45120
26108,43702
26423,43702
26423,45120
" /> 
<polyline style="fill-rule:evenodd;"
points="29074,42027
28051,42027
28051,39822
29074,39822
29074,42027
" /> 
<polyline style="fill-rule:evenodd;"
points="24980,42027
23956,42027
23956,39822
24980,39822
24980,42027
" /> 
<polyline style="fill-rule:evenodd;"
points="25923,45120
25608,45120
25608,43702
25923,43702
25923,45120
" /> 
<polyline style="fill-rule:evenodd;"
points="45139,45120
44824,45120
44824,43702
45139,43702
45139,45120
" /> 
<polyline style="fill-rule:evenodd;"
points="44639,45120
44324,45120
44324,43702
44639,43702
44639,45120
" /> 
<polyline style="fill-rule:evenodd;"
points="44139,45120
43824,45120
43824,43702
44139,43702
44139,45120
" /> 
<polyline style="fill-rule:evenodd;"
points="46791,42027
45767,42027
45767,39822
46791,39822
46791,42027
" /> 
<polyline style="fill-rule:evenodd;"
points="42696,42027
41673,42027
41673,39822
42696,39822
42696,42027
" /> 
<polyline style="fill-rule:evenodd;"
points="43639,45120
43324,45120
43324,43702
43639,43702
43639,45120
" /> 
<polyline style="fill-rule:evenodd;"
points="48169,44881
48169,48897
46791,48897
46791,44881
48169,44881
" /> 
<polyline style="fill-rule:evenodd;"
points="50767,44881
50767,48897
49389,48897
49389,44881
50767,44881
" /> 
<polyline style="fill-rule:evenodd;"
points="24275,50519
23488,50519
23488,50244
24275,50244
24275,50519
" /> 
<polyline style="fill-rule:evenodd;"
points="23094,51019
22307,51019
22307,50744
23094,50744
23094,51019
" /> 
<polyline style="fill-rule:evenodd;"
points="24275,51519
23488,51519
23488,51244
24275,51244
24275,51519
" /> 
<polyline style="fill-rule:evenodd;"
points="23094,52019
22307,52019
22307,51744
23094,51744
23094,52019
" /> 
<polyline style="fill-rule:evenodd;"
points="24275,52519
23488,52519
23488,52244
24275,52244
24275,52519
" /> 
<polyline style="fill-rule:evenodd;"
points="23094,53019
22307,53019
22307,52744
23094,52744
23094,53019
" /> 
<polyline style="fill-rule:evenodd;"
points="37292,50427
36292,50427
36292,50037
37292,50037
37292,50427
" /> 
<polyline style="fill-rule:evenodd;"
points="37292,51427
36292,51427
36292,51037
37292,51037
37292,51427
" /> 
<polyline style="fill-rule:evenodd;"
points="37292,52427
36292,52427
36292,52037
37292,52037
37292,52427
" /> 
<polyline style="fill-rule:evenodd;"
points="39492,50427
38492,50427
38492,50037
39492,50037
39492,50427
" /> 
<polyline style="fill-rule:evenodd;"
points="39492,51427
38492,51427
38492,51037
39492,51037
39492,51427
" /> 
<polyline style="fill-rule:evenodd;"
points="39492,52427
38492,52427
38492,52037
39492,52037
39492,52427
" /> 
<polyline style="fill-rule:evenodd;"
points="39492,53427
38492,53427
38492,53037
39492,53037
39492,53427
" /> 
<polyline style="fill-rule:evenodd;"
points="37292,53427
36292,53427
36292,53037
37292,53037
37292,53427
" /> 
<polyline style="fill-rule:evenodd;"
points="32912,44940
33621,44940
33621,45255
32912,45255
32912,44940
" /> 
<polyline style="fill-rule:evenodd;"
points="32912,45688
33621,45688
33621,46003
32912,46003
32912,45688
" /> 
<polyline style="fill-rule:evenodd;"
points="34094,45314
34803,45314
34803,45629
34094,45629
34094,45314
" /> 
<polyline style="fill-rule:evenodd;"
points="47401,54192
47401,54862
46614,54862
46614,54192
47401,54192
" /> 
<polyline style="fill-rule:evenodd;"
points="45826,54192
45826,54862
45039,54862
45039,54192
45826,54192
" /> 
<polyline style="fill-rule:evenodd;"
points="48267,50137
48267,50807
47480,50807
47480,50137
48267,50137
" /> 
<polyline style="fill-rule:evenodd;"
points="46692,50137
46692,50807
45905,50807
45905,50137
46692,50137
" /> 
<polyline style="fill-rule:evenodd;"
points="44429,52559
43759,52559
43759,51771
44429,51771
44429,52559
" /> 
<polyline style="fill-rule:evenodd;"
points="44429,50984
43759,50984
43759,50196
44429,50196
44429,50984
" /> 
<polyline style="fill-rule:evenodd;"
points="33169,52066
33169,51397
33956,51397
33956,52066
33169,52066
" /> 
<polyline style="fill-rule:evenodd;"
points="34744,52066
34744,51397
35531,51397
35531,52066
34744,52066
" /> 
<polyline style="fill-rule:evenodd;"
points="32283,43562
32283,44232
31496,44232
31496,43562
32283,43562
" /> 
<polyline style="fill-rule:evenodd;"
points="30708,43562
30708,44232
29921,44232
29921,43562
30708,43562
" /> 
<polyline style="fill-rule:evenodd;"
points="32283,45334
32283,46003
31496,46003
31496,45334
32283,45334
" /> 
<polyline style="fill-rule:evenodd;"
points="30708,45334
30708,46003
29921,46003
29921,45334
30708,45334
" /> 
<polyline style="fill-rule:evenodd;"
points="46100,53172
45650,53172
45650,52972
46100,52972
46100,53172
" /> 
<polyline style="fill-rule:evenodd;"
points="46100,52672
45650,52672
45650,52472
46100,52472
46100,52672
" /> 
<polyline style="fill-rule:evenodd;"
points="46100,52172
45650,52172
45650,51972
46100,51972
46100,52172
" /> 
<polyline style="fill-rule:evenodd;"
points="46100,51672
45650,51672
45650,51472
46100,51472
46100,51672
" /> 
<polyline style="fill-rule:evenodd;"
points="48600,51672
48150,51672
48150,51472
48600,51472
48600,51672
" /> 
<polyline style="fill-rule:evenodd;"
points="48600,52172
48150,52172
48150,51972
48600,51972
48600,52172
" /> 
<polyline style="fill-rule:evenodd;"
points="48600,52672
48150,52672
48150,52472
48600,52472
48600,52672
" /> 
<polyline style="fill-rule:evenodd;"
points="48600,53172
48150,53172
48150,52972
48600,52972
48600,53172
" /> 
<circle cx="21574.8" cy="41259.8" r="728.346" /> 
</g>
<g style="fill:#000000; fill-opacity:1.0; 
stroke:#000000; stroke-width:39.3701; stroke-opacity:1; 
stroke-linecap:round; stroke-linejoin:round;">
</g>
<g style="fill:#000000; fill-opacity:1.0; 
stroke:#000000; stroke-width:0; stroke-opacity:1; 
stroke-linecap:round; stroke-linejoin:round;">
<circle cx="21574.8" cy="57874" r="767.717" /> 
</g>
<g style="fill:#000000; fill-opacity:1.0; 
stroke:#000000; stroke-width:39.3701; stroke-opacity:1; 
stroke-linecap:round; stroke-linejoin:round;">
</g>
<g style="fill:#000000; fill-opacity:1.0; 
stroke:#000000; stroke-width:0; stroke-opacity:1; 
stroke-linecap:round; stroke-linejoin:round;">
<polyline style="fill-rule:evenodd;"
points="49448,53051
50157,53051
50157,54429
49448,54429
49448,53051
" /> 
<polyline style="fill-rule:evenodd;"
points="49448,55019
50157,55019
50157,56397
49448,56397
49448,55019
" /> 
<polyline style="fill-rule:evenodd;"
points="20905,43602
21614,43602
21614,44980
20905,44980
20905,43602
" /> 
<polyline style="fill-rule:evenodd;"
points="20905,45570
21614,45570
21614,46948
20905,46948
20905,45570
" /> 
<polyline style="fill-rule:evenodd;"
points="31102,54507
31102,53838
31889,53838
31889,54507
31102,54507
" /> 
<polyline style="fill-rule:evenodd;"
points="32677,54507
32677,53838
33464,53838
33464,54507
32677,54507
" /> 
<polyline style="fill-rule:evenodd;"
points="28188,47421
28188,46751
28976,46751
28976,47421
28188,47421
" /> 
<polyline style="fill-rule:evenodd;"
points="29763,47421
29763,46751
30551,46751
30551,47421
29763,47421
" /> 
<polyline style="fill-rule:evenodd;"
points="41122,55354
40452,55354
40452,54566
41122,54566
41122,55354
" /> 
<polyline style="fill-rule:evenodd;"
points="41122,53779
40452,53779
40452,52992
41122,52992
41122,53779
" /> 
</g>
<g style="fill:#000000; fill-opacity:1.0; 
stroke:#000000; stroke-width:393.701; stroke-opacity:1; 
stroke-linecap:round; stroke-linejoin:round;">
</g>
<g style="fill:#000000; fill-opacity:0.0; 
stroke:#000000; stroke-width:393.701; stroke-opacity:1; 
stroke-linecap:round; stroke-linejoin:round;">
<path d="M21259 46259
L21259 47342
" />
<path d="M35885 58425
L37598 58425
" />
<path d="M35039 57578
L35885 58425
" />
<path d="M23425 57578
L35039 57578
" />
<path d="M20374 54527
L23425 57578
" />
<path d="M20374 48228
L20374 54527
" />
<path d="M21259 47342
L20374 48228
" />
</g>
<g style="fill:#000000; fill-opacity:0.0; 
stroke:#000000; stroke-width:157.48; stroke-opacity:1; 
stroke-linecap:round; stroke-linejoin:round;">
<path d="M45019 56889
L42519 56889
" />
<path d="M40984 58425
L37598 58425
" />
<path d="M42519 56889
L40984 58425
" />
<path d="M45875 52072
L45368 52072
" />
<path d="M45078 54173
L45433 54527
" />
<path d="M45078 52362
L45078 54173
" />
<path d="M45368 52072
L45078 52362
" />
<path d="M45433 54527
L45433 55551
" />
<path d="M45433 55551
L45019 55964
" />
<path d="M45019 55964
L45019 56889
" />
<path d="M28779 48917
L28779 50511
" />
<path d="M28464 50826
L28464 52263
" />
<path d="M28779 50511
L28464 50826
" />
<path d="M28779 48917
L28779 48464
" />
<path d="M28149 48464
L28149 48917
" />
<path d="M28346 48267
L28149 48464
" />
<path d="M28582 48267
L28346 48267
" />
<path d="M28779 48464
L28582 48267
" />
<path d="M28464 52263
L28464 53188
" />
<path d="M28464 53188
L28346 53307
" />
<path d="M28346 53307
L28346 54094
" />
<path d="M27362 46062
L27952 46062
" />
<path d="M27952 46062
L28149 46259
" />
<path d="M27265 45966
L27362 46062
" />
<path d="M44982 45966
L45078 46062
" />
<path d="M48375 52072
L49305 52072
" />
<path d="M49305 52072
L49409 51968
" />
<path d="M47480 46889
L47480 43622
" />
<path d="M43482 43131
L43482 44411
" />
<path d="M43858 42755
L43482 43131
" />
<path d="M46614 42755
L43858 42755
" />
<path d="M47480 43622
L46614 42755
" />
<path d="M27834 48917
L27834 50196
" />
<path d="M27519 50511
L27519 52263
" />
<path d="M27834 50196
L27519 50511
" />
<path d="M31496 54173
L30551 54173
" />
<path d="M26771 54803
L26771 54094
" />
<path d="M27007 55039
L26771 54803
" />
<path d="M29685 55039
L27007 55039
" />
<path d="M30551 54173
L29685 55039
" />
<path d="M33070 54173
L36792 54173
" />
<path d="M36792 54173
L36771 54152
" />
<path d="M36771 54152
L36771 54094
" />
<path d="M36792 53232
L36792 54173
" />
<path d="M36771 54094
L36771 54173
" />
<path d="M36771 54152
L36771 54094
" />
<path d="M36792 54173
L36771 54152
" />
<path d="M44980 48228
L44980 48877
" />
<path d="M41338 54173
L36771 54173
" />
<path d="M42440 53070
L41338 54173
" />
<path d="M42440 50000
L42440 53070
" />
<path d="M43149 49291
L42440 50000
" />
<path d="M44566 49291
L43149 49291
" />
<path d="M44980 48877
L44566 49291
" />
<path d="M27834 48917
L27834 49409
" />
<path d="M28464 49409
L28464 48917
" />
<path d="M28346 49527
L28464 49409
" />
<path d="M27952 49527
L28346 49527
" />
<path d="M27834 49409
L27952 49527
" />
<path d="M27834 48917
L27834 48070
" />
<path d="M25787 46811
L25787 46062
" />
<path d="M26535 47559
L25787 46811
" />
<path d="M27322 47559
L26535 47559
" />
<path d="M27834 48070
L27322 47559
" />
<path d="M26771 54094
L24724 54094
" />
<path d="M24724 54094
L23881 53251
" />
<path d="M23881 53251
L23881 52381
" />
<path d="M26771 54094
L26771 53307
" />
<path d="M26771 53307
L26929 53149
" />
<path d="M26929 53149
L27244 53149
" />
<path d="M27244 53149
L27519 52874
" />
<path d="M27519 52874
L27519 52263
" />
<path d="M44980 48228
L46141 48228
" />
<path d="M46141 48228
L47480 46889
" />
<path d="M36792 51232
L36704 51232
" />
<path d="M36792 51232
L36507 51232
" />
<path d="M44980 48228
L44980 48523
" />
<path d="M36792 53232
L36792 52232
" />
<path d="M36792 52232
L36792 51232
" />
<path d="M44980 48228
L44980 47933
" />
<path d="M43482 44411
L43482 46041
" />
<path d="M43482 46041
L43503 46062
" />
<path d="M25765 44411
L25765 46041
" />
<path d="M25765 46041
L25787 46062
" />
<path d="M44706 48206
L44685 48228
" />
<path d="M47617 46752
L47480 46889
" />
<path d="M47480 46889
L47480 49251
" />
<path d="M47480 49251
L47874 49645
" />
<path d="M47874 49645
L47874 50472
" />
</g>
<g style="fill:#000000; fill-opacity:0.0; 
stroke:#000000; stroke-width:393.701; stroke-opacity:1; 
stroke-linecap:round; stroke-linejoin:round;">
<path d="M33267 42165
L37598 42165
" />
<path d="M33267 42165
L33267 45097
" />
<path d="M33267 45097
L33267 45098
" />
<path d="M21259 44291
L21259 43503
" />
<path d="M31653 40393
L33267 40393
" />
<path d="M29527 42519
L31653 40393
" />
<path d="M22244 42519
L29527 42519
" />
<path d="M21259 43503
L22244 42519
" />
</g>
<g style="fill:#000000; fill-opacity:0.0; 
stroke:#000000; stroke-width:157.48; stroke-opacity:1; 
stroke-linecap:round; stroke-linejoin:round;">
<path d="M48375 52572
L49226 52572
" />
<path d="M49226 52572
L49803 53149
" />
<path d="M49803 53149
L49803 53740
" />
<path d="M50078 46889
L50078 48700
" />
<path d="M50078 48700
L50196 48818
" />
<path d="M50196 48818
L50196 52755
" />
<path d="M50196 52755
L49803 53149
" />
<path d="M49803 53149
L49803 53740
" />
<path d="M49960 47007
L50078 46889
" />
<path d="M29980 51692
L31291 51692
" />
<path d="M31291 51692
L31330 51732
" />
<path d="M32448 51732
L33562 51732
" />
<path d="M33673 51621
L33562 51732
" />
<path d="M26633 49803
L25944 49803
" />
<path d="M29133 43897
L28149 42913
" />
<path d="M28149 42913
L25295 42913
" />
<path d="M25295 42913
L24114 44094
" />
<path d="M29133 43897
L30314 43897
" />
<path d="M24114 46318
L24114 44094
" />
<path d="M25511 47716
L24114 46318
" />
<path d="M25511 49370
L25511 47716
" />
<path d="M25944 49803
L25511 49370
" />
<path d="M23881 51381
L26629 51381
" />
<path d="M26629 51381
L26633 51377
" />
</g>
<g style="fill:#000000; fill-opacity:0.0; 
stroke:#000000; stroke-width:98.4252; stroke-opacity:1; 
stroke-linecap:round; stroke-linejoin:round;">
<path d="M22700 52881
L22094 52881
" />
<path d="M25236 51692
L26633 51692
" />
<path d="M25196 51732
L25236 51692
" />
<path d="M23385 51732
L25196 51732
" />
<path d="M22992 51338
L23385 51732
" />
<path d="M22204 51338
L22992 51338
" />
<path d="M21889 51653
L22204 51338
" />
<path d="M21889 52677
L21889 51653
" />
<path d="M22094 52881
L21889 52677
" />
<path d="M22700 51881
L23220 51881
" />
<path d="M23220 51881
L23307 51968
" />
<path d="M23307 51968
L25354 51968
" />
<path d="M25354 51968
L25649 52263
" />
<path d="M25649 52263
L27204 52263
" />
</g>
<g style="fill:#000000; fill-opacity:0.0; 
stroke:#000000; stroke-width:157.48; stroke-opacity:1; 
stroke-linecap:round; stroke-linejoin:round;">
<path d="M26265 44411
L26265 43517
" />
<path d="M29409 45059
L29409 48917
" />
<path d="M27657 43307
L29409 45059
" />
<path d="M26476 43307
L27657 43307
" />
<path d="M26265 43517
L26476 43307
" />
<path d="M43982 44411
L43982 45320
" />
<path d="M33897 49488
L29980 49488
" />
<path d="M34566 48818
L33897 49488
" />
<path d="M39685 48818
L34566 48818
" />
<path d="M41496 47007
L39685 48818
" />
<path d="M43937 47007
L41496 47007
" />
<path d="M44330 46614
L43937 47007
" />
<path d="M44330 45669
L44330 46614
" />
<path d="M43982 45320
L44330 45669
" />
</g>
<g style="fill:#000000; fill-opacity:0.0; 
stroke:#000000; stroke-width:98.4252; stroke-opacity:1; 
stroke-linecap:round; stroke-linejoin:round;">
<path d="M29980 50433
L31240 50433
" />
<path d="M22051 50881
L22700 50881
" />
<path d="M21555 51377
L22051 50881
" />
<path d="M21555 52755
L21555 51377
" />
<path d="M24114 55314
L21555 52755
" />
<path d="M31496 55314
L24114 55314
" />
<path d="M32283 54527
L31496 55314
" />
<path d="M32283 53444
L32283 54527
" />
<path d="M31889 53051
L32283 53444
" />
<path d="M31889 51082
L31889 53051
" />
<path d="M31240 50433
L31889 51082
" />
</g>
<g style="fill:#000000; fill-opacity:0.0; 
stroke:#000000; stroke-width:157.48; stroke-opacity:1; 
stroke-linecap:round; stroke-linejoin:round;">
<path d="M29980 50118
L34901 50118
" />
<path d="M35015 50232
L36792 50232
" />
<path d="M34901 50118
L35015 50232
" />
<path d="M36792 50232
L37082 50232
" />
<path d="M29980 49803
L34389 49803
" />
<path d="M38409 53232
L38992 53232
" />
<path d="M38090 52913
L38409 53232
" />
<path d="M38090 49960
L38090 52913
" />
<path d="M37500 49370
L38090 49960
" />
<path d="M34822 49370
L37500 49370
" />
<path d="M34389 49803
L34822 49370
" />
<path d="M38507 53232
L38992 53232
" />
<path d="M31889 45669
L31889 43897
" />
<path d="M33267 45846
L32066 45846
" />
<path d="M32066 45846
L31889 45669
" />
<path d="M45875 52572
L45875 53139
" />
<path d="M45875 53139
L47007 54271
" />
<path d="M47007 54271
L47177 54271
" />
<path d="M47177 54271
L48375 53072
" />
<path d="M46299 50472
L44212 50472
" />
<path d="M44212 50472
L44094 50590
" />
<path d="M44212 50472
L44094 50590
" />
<path d="M45875 51572
L45875 51564
" />
<path d="M45875 51564
L46299 51141
" />
<path d="M46299 51141
L46299 50472
" />
</g>
<g style="fill:#000000; fill-opacity:1.0; 
stroke:#000000; stroke-width:100; stroke-opacity:1; 
stroke-linecap:round; stroke-linejoin:round;">
<polyline style="fill-rule:evenodd;"
points="23744,39681
23706,39773
23706,40812
23769,40875
24418,40875
24418,40867
24518,40867
24518,40875
25167,40875
25230,40812
25230,39773
25192,39681
25160,39649
27870,39649
27839,39681
27801,39773
27801,40812
27863,40875
28512,40875
28512,40867
28612,40867
28612,40875
29262,40875
29324,40812
29324,39773
29286,39681
29255,39649
41492,39649
41461,39681
41423,39773
41423,40812
41485,40875
42135,40875
42135,40867
42235,40867
42235,40875
42884,40875
42946,40812
42946,39773
42908,39681
42877,39649
45587,39649
45555,39681
45517,39773
45517,40812
45580,40875
46229,40875
46229,40867
46329,40867
46329,40875
46978,40875
47041,40812
47041,39773
47003,39681
46971,39649
51177,39649
51177,59129
19964,59129
19964,58075
20556,58075
20711,58449
20997,58736
21371,58891
21776,58891
22150,58737
22437,58451
22592,58077
22592,57672
22438,57298
22152,57011
21778,56856
21373,56856
20999,57010
20712,57296
20557,57670
20556,58075
19964,58075
19964,54703
20046,54826
20058,54843
23109,57894
23254,57991
23425,58025
32565,58025
32560,58051
32560,58799
32577,58891
32632,58976
32715,59034
32814,59054
33720,59054
33813,59036
33898,58981
33955,58898
33975,58799
33975,58051
33970,58025
34854,58025
35569,58741
35714,58838
35885,58872
36904,58872
36908,58891
36962,58976
37046,59034
37145,59054
38051,59054
38143,59036
38228,58981
38285,58898
38306,58799
38306,58753
40984,58753
41110,58728
41216,58657
41798,58075
48509,58075
48664,58449
48950,58736
49324,58891
49729,58891
50103,58737
50389,58451
50545,58077
50545,57672
50390,57298
50104,57011
49730,56856
49326,56856
48951,57010
48665,57296
48510,57670
48509,58075
41798,58075
42655,57218
44058,57218
44073,57297
44128,57382
44211,57439
44310,57459
45727,57459
45820,57442
45905,57387
45962,57303
45982,57204
45982,57002
46226,57002
46226,57254
46264,57346
46335,57416
46427,57454
47072,57454
47135,57392
47135,56939
47235,56939
47235,57392
47297,57454
47943,57454
48035,57416
48105,57346
48143,57254
48143,57002
48081,56939
47235,56939
47135,56939
46289,56939
46226,57002
45982,57002
45982,56574
45973,56525
46226,56525
46226,56777
46289,56839
47135,56839
47135,56387
47235,56387
47235,56839
48081,56839
48143,56777
48143,56525
48105,56433
48035,56362
47943,56324
47297,56324
47235,56387
47135,56387
47072,56324
46427,56324
46335,56362
46264,56433
46226,56525
45973,56525
45965,56482
45910,56397
45827,56339
45727,56319
45348,56319
45348,56101
45628,55820
49198,55820
49198,56447
49236,56539
49307,56609
49398,56647
49690,56647
49753,56584
49753,55758
49853,55758
49853,56584
49915,56647
50207,56647
50299,56609
50369,56539
50407,56447
50407,55820
50345,55758
49853,55758
49753,55758
49261,55758
49198,55820
45628,55820
45665,55783
45699,55732
45736,55676
45761,55551
45761,55117
45826,55117
45919,55099
46004,55044
46061,54961
46081,54862
46081,54192
46064,54100
46009,54015
45925,53958
45826,53938
45407,53938
45407,53233
45413,53265
45468,53350
45551,53407
45650,53427
45699,53427
46376,54105
46359,54192
46359,54862
46376,54954
46431,55039
46515,55097
46614,55117
47401,55117
47494,55099
47579,55044
47630,54969
49198,54969
49198,55595
49261,55658
49753,55658
49753,54831
49853,54831
49853,55658
50345,55658
50407,55595
50407,54969
50369,54877
50299,54807
50207,54769
49915,54769
49853,54831
49753,54831
49690,54769
49398,54769
49307,54807
49236,54877
49198,54969
47630,54969
47636,54961
47656,54862
47656,54257
48485,53427
48600,53427
48693,53410
48778,53355
48835,53272
48855,53172
48855,52972
48842,52901
49090,52901
49201,53012
49193,53051
49193,54429
49211,54522
49265,54607
49349,54664
49448,54684
50157,54684
50250,54666
50335,54612
50392,54528
50412,54429
50412,53051
50405,53012
50429,52988
50500,52881
50525,52755
50525,49152
50767,49152
50860,49135
50945,49080
51002,48996
51022,48897
51022,44881
51005,44789
50950,44704
50866,44647
50767,44626
49389,44626
49297,44644
49212,44699
49154,44782
49134,44881
49134,48897
49152,48990
49207,49075
49290,49132
49389,49152
49868,49152
49868,49790
49866,49788
49774,49750
49521,49750
49459,49812
49459,50343
49467,50343
49467,50443
49459,50443
49459,50974
49521,51037
49774,51037
49866,50999
49868,50997
49868,51370
49823,51339
49724,51319
49094,51319
49001,51337
48916,51392
48859,51475
48850,51522
48788,51522
48850,51460
48850,51423
48812,51331
48742,51260
48650,51222
48488,51222
48425,51285
48425,51522
48433,51522
48433,51622
48425,51622
48425,51630
48325,51630
48325,51622
47963,51622
47900,51685
47900,51722
47939,51814
47949,51824
47916,51873
47896,51972
47896,52172
47913,52265
47950,52323
47916,52373
47896,52472
47896,52672
47913,52765
47950,52823
47916,52873
47896,52972
47896,53087
47092,53891
46355,53154
46355,52972
46338,52880
46301,52822
46335,52772
46355,52672
46355,52472
46338,52380
46301,52322
46335,52272
46355,52172
46355,51972
46338,51880
46301,51822
46335,51772
46355,51672
46355,51549
46482,51423
47900,51423
47900,51460
47963,51522
48325,51522
48325,51285
48263,51222
48101,51222
48009,51260
47939,51331
47900,51423
46482,51423
46531,51374
46602,51267
46627,51141
46627,51061
46692,51061
46785,51044
46870,50989
46927,50906
46947,50807
46947,50137
46930,50045
46875,49960
46792,49902
46692,49882
45905,49882
45812,49900
45727,49955
45670,50038
45650,50137
45650,50143
44674,50143
44666,50104
44611,50019
44528,49962
44429,49941
43759,49941
43667,49959
43582,50014
43525,50097
43504,50196
43504,50984
43522,51076
43577,51161
43660,51219
43759,51239
44429,51239
44521,51221
44606,51166
44663,51083
44684,50984
44684,50801
45650,50801
45650,50807
45668,50899
45722,50984
45806,51041
45905,51061
45914,51061
45758,51217
45650,51217
45558,51235
45473,51290
45416,51373
45396,51472
45396,51672
45409,51744
45368,51744
45242,51769
45168,51818
45135,51840
44846,52129
44775,52236
44750,52362
44750,54173
44775,54299
44784,54313
44784,54862
44801,54954
44856,55039
44940,55097
45039,55117
45104,55117
45104,55415
44786,55732
44715,55839
44690,55964
44690,56319
44310,56319
44218,56337
44133,56392
44076,56475
44058,56561
42519,56561
42393,56586
42302,56647
42287,56657
40848,58096
38306,58096
38306,58051
38288,57958
38233,57873
38150,57816
38051,57796
37145,57796
37053,57813
36967,57868
36910,57952
36905,57978
36070,57978
35355,57262
35320,57239
35210,57165
35039,57131
33947,57131
33970,57077
33970,56766
36895,56766
36895,57077
36933,57169
37004,57239
37095,57277
37485,57277
37548,57215
37548,56703
37648,56703
37648,57215
37710,57277
38100,57277
38192,57239
38263,57169
38301,57077
38301,56766
38238,56703
37648,56703
37548,56703
36958,56703
36895,56766
33970,56766
33907,56703
33317,56703
33317,56711
33217,56711
33217,56703
32627,56703
32564,56766
32564,57077
32587,57131
23610,57131
22708,56229
32564,56229
32564,56541
32627,56603
33217,56603
33217,56092
33317,56092
33317,56603
33907,56603
33970,56541
33970,56229
36895,56229
36895,56541
36958,56603
37548,56603
37548,56092
37648,56092
37648,56603
38238,56603
38301,56541
38301,56229
38263,56137
38192,56067
38100,56029
37710,56029
37648,56092
37548,56092
37485,56029
37095,56029
37004,56067
36933,56137
36895,56229
33970,56229
33932,56137
33862,56067
33770,56029
33380,56029
33317,56092
33217,56092
33155,56029
32765,56029
32673,56067
32603,56137
32564,56229
22708,56229
20820,54342
20820,50194
23238,50194
23238,50269
23300,50331
23831,50331
23831,50056
23931,50056
23931,50331
24463,50331
24525,50269
24525,50194
24487,50102
24417,50032
24325,49994
23994,49994
23931,50056
23831,50056
23769,49994
23438,49994
23346,50032
23276,50102
23238,50194
20820,50194
20820,48413
21575,47658
21672,47513
21706,47342
21706,47186
21706,47186
21792,47131
21849,47047
21869,46948
21869,45570
21851,45477
21797,45392
21713,45335
21614,45315
20905,45315
20812,45333
20727,45387
20670,45471
20650,45570
20650,46948
20667,47041
20722,47126
20794,47175
20058,47912
19964,48052
19964,41453
20596,41453
20744,41813
21019,42088
21379,42238
21768,42238
22050,42121
21979,42169
21928,42203
20943,43187
20847,43332
20841,43359
20812,43365
20727,43419
20670,43503
20650,43602
20650,44980
20667,45073
20722,45158
20806,45215
20905,45235
21614,45235
21706,45218
21792,45163
21849,45079
21869,44980
21869,43602
21857,43538
22429,42966
24777,42966
23881,43862
23810,43968
23785,44094
23785,46318
23810,46444
23832,46477
23881,46551
25183,47852
25183,49370
25208,49495
25275,49596
25279,49602
25712,50035
25819,50106
25944,50131
26064,50131
26064,50226
26073,50277
26064,50324
26064,50541
26073,50592
26064,50639
26064,50856
26073,50907
26064,50954
26064,51053
24438,51053
24374,51009
24275,50989
23488,50989
23395,51006
23345,51038
23349,51019
23349,50744
23347,50731
23438,50769
23769,50769
23831,50707
23831,50431
23931,50431
23931,50707
23994,50769
24325,50769
24417,50731
24487,50661
24525,50569
24525,50494
24463,50431
23931,50431
23831,50431
23300,50431
23238,50494
23238,50539
23193,50509
23094,50489
22307,50489
22214,50506
22129,50561
22114,50582
22051,50582
21936,50605
21839,50670
21343,51166
21278,51263
21255,51377
21255,52755
21278,52870
21343,52967
23902,55526
23999,55591
24114,55614
31496,55614
31610,55591
31707,55526
32161,55073
40202,55073
40202,55404
40240,55495
40311,55566
40403,55604
40674,55604
40737,55541
40737,55010
40837,55010
40837,55541
40899,55604
41171,55604
41263,55566
41333,55495
41372,55404
41372,55073
41309,55010
40837,55010
40737,55010
40265,55010
40202,55073
32161,55073
32495,54739
32519,54702
32577,54742
32677,54762
33464,54762
33557,54745
33642,54690
33699,54607
33719,54507
33719,54501
40209,54501
40202,54517
40202,54848
40265,54910
40737,54910
40737,54902
40837,54902
40837,54910
41309,54910
41372,54848
41372,54517
41363,54496
41464,54476
41571,54405
42673,53303
42692,53274
42744,53196
42769,53070
42769,52277
43509,52277
43509,52608
43547,52700
43618,52770
43710,52809
43981,52809
44044,52746
44044,52215
44144,52215
44144,52746
44206,52809
44478,52809
44570,52770
44641,52700
44679,52608
44679,52277
44616,52215
44144,52215
44044,52215
43572,52215
43509,52277
42769,52277
42769,51721
43509,51721
43509,52052
43572,52115
44044,52115
44044,51584
44144,51584
44144,52115
44616,52115
44679,52052
44679,51721
44641,51630
44570,51559
44478,51521
44206,51521
44144,51584
44044,51584
43981,51521
43710,51521
43618,51559
43547,51630
43509,51721
42769,51721
42769,50136
43285,49620
44566,49620
44692,49595
44799,49523
45213,49110
45215,49105
45284,49003
45309,48877
45309,48798
45689,48798
45781,48780
45866,48726
45923,48642
45941,48557
46141,48557
46267,48532
46374,48460
46536,48298
46536,48897
46553,48990
46608,49075
46692,49132
46791,49152
47151,49152
47151,49251
47176,49377
47229,49457
47247,49484
47545,49781
47545,49882
47480,49882
47387,49900
47302,49955
47245,50038
47225,50137
47225,50807
47242,50899
47297,50984
47381,51041
47480,51061
48267,51061
48360,51044
48445,50989
48502,50906
48522,50807
48522,50506
48844,50506
48844,50837
48882,50929
48952,50999
49044,51037
49296,51037
49359,50974
49359,50443
48906,50443
48844,50506
48522,50506
48522,50137
48505,50045
48450,49960
48436,49950
48844,49950
48844,50281
48906,50343
49359,50343
49359,49812
49296,49750
49044,49750
48952,49788
48882,49858
48844,49950
48436,49950
48366,49902
48267,49882
48202,49882
48202,49645
48196,49613
48177,49519
48106,49413
47845,49152
48169,49152
48261,49135
48347,49080
48404,48996
48424,48897
48424,44881
48406,44789
48352,44704
48268,44647
48169,44626
47809,44626
47809,43622
47784,43496
47712,43389
46846,42523
46783,42481
46739,42452
46614,42427
43858,42427
43732,42452
43688,42481
43625,42523
43249,42899
43178,43006
43153,43131
43153,43515
43147,43520
43089,43603
43069,43702
43069,45120
43087,45212
43142,45297
43153,45305
43153,45493
43110,45493
43017,45510
42932,45565
42875,45648
42855,45748
42855,46377
42872,46470
42927,46555
43011,46612
43110,46632
43847,46632
43800,46679
41496,46679
41370,46704
41316,46739
41263,46775
39548,48490
34566,48490
34441,48515
34351,48574
34334,48586
33761,49159
30415,49159
30394,49145
30295,49125
29772,49125
29772,48602
29755,48509
29738,48483
29738,47671
30044,47671
30107,47608
30107,47136
30207,47136
30207,47608
30269,47671
30600,47671
30692,47633
30763,47562
30801,47470
30801,47199
30738,47136
30207,47136
30107,47136
30099,47136
30099,47036
30107,47036
30107,46564
30207,46564
30207,47036
30738,47036
30801,46974
30801,46702
30763,46610
30692,46540
30600,46501
30269,46501
30207,46564
30107,46564
30044,46501
29738,46501
29738,46174
29779,46215
29871,46253
30202,46253
30264,46191
30264,45719
30364,45719
30364,46191
30427,46253
30758,46253
30850,46215
30920,46145
30958,46053
30958,45781
30896,45719
30364,45719
30264,45719
30257,45719
30257,45619
30264,45619
30264,45147
30364,45147
30364,45619
30896,45619
30958,45556
30958,45284
30920,45193
30850,45122
30758,45084
30427,45084
30364,45147
30264,45147
30202,45084
29871,45084
29779,45122
29738,45164
29738,45059
29713,44933
29641,44826
29018,44203
29133,44226
29666,44226
29666,44232
29683,44324
29738,44410
29822,44467
29921,44487
30708,44487
30801,44469
30886,44414
30943,44331
30963,44232
30963,43562
31241,43562
31241,44232
31258,44324
31313,44410
31396,44467
31496,44487
31561,44487
31561,45079
31496,45079
31403,45097
31318,45151
31261,45235
31241,45334
31241,46003
31258,46096
31313,46181
31396,46238
31496,46258
32283,46258
32376,46241
32461,46186
32469,46175
32725,46175
32730,46181
32813,46238
32912,46258
33621,46258
33714,46241
33799,46186
33856,46103
33876,46003
33876,45756
33882,45771
33953,45841
34045,45879
34336,45879
34399,45817
34399,45522
34499,45522
34499,45817
34561,45879
34853,45879
34945,45841
35015,45771
35053,45679
35053,45584
34991,45522
34499,45522
34399,45522
33907,45522
33849,45580
33804,45511
33747,45472
33799,45438
33849,45364
33907,45422
34399,45422
34399,45127
34499,45127
34499,45422
34991,45422
35053,45359
35053,45265
35015,45173
34945,45103
34853,45064
34561,45064
34499,45127
34399,45127
34336,45064
34045,45064
33953,45103
33882,45173
33876,45188
33876,44940
33859,44848
33804,44763
33720,44706
33714,44704
33714,42899
35447,42899
35447,46352
42702,46352
42702,42899
35447,42899
33714,42899
33714,42794
33720,42794
33813,42776
33898,42722
33955,42638
33960,42612
36904,42612
36908,42632
36962,42717
37046,42774
37145,42794
38051,42794
38143,42776
38228,42722
38285,42638
38306,42539
38306,41791
38288,41698
38233,41613
38150,41556
38051,41536
37145,41536
37053,41553
36967,41608
36910,41692
36905,41718
33961,41718
33957,41698
33903,41613
33819,41556
33720,41536
32814,41536
32722,41553
32637,41608
32580,41692
32560,41791
32560,42539
32577,42632
32632,42717
32715,42774
32814,42794
32820,42794
32820,44703
32820,44703
32735,44758
32677,44841
32657,44940
32657,45255
32675,45348
32730,45433
32787,45472
32735,45506
32727,45517
32538,45517
32538,45334
32520,45242
32466,45156
32382,45099
32283,45079
32218,45079
32218,44487
32283,44487
32376,44469
32461,44414
32518,44331
32538,44232
32538,43562
32520,43470
32466,43385
32382,43328
32283,43308
31496,43308
31403,43325
31318,43380
31261,43463
31241,43562
30963,43562
30946,43470
30891,43385
30807,43328
30708,43308
29921,43308
29828,43325
29743,43380
29686,43463
29666,43562
29666,43568
29270,43568
28667,42966
29527,42966
29698,42932
29843,42835
31641,41037
41423,41037
41423,42077
41461,42169
41531,42239
41623,42277
42072,42277
42135,42215
42135,40975
42235,40975
42235,42215
42297,42277
42746,42277
42838,42239
42908,42169
42946,42077
42946,41037
45517,41037
45517,42077
45555,42169
45626,42239
45717,42277
46167,42277
46229,42215
46229,40975
46329,40975
46329,42215
46392,42277
46841,42277
46932,42239
47003,42169
47041,42077
47041,41461
48509,41461
48664,41835
48950,42122
49324,42277
49729,42277
50103,42123
50389,41837
50545,41463
50545,41058
50390,40684
50104,40397
49730,40242
49326,40241
48951,40396
48665,40682
48510,41056
48509,41461
47041,41461
47041,41037
46978,40975
46329,40975
46229,40975
45580,40975
45517,41037
42946,41037
42884,40975
42235,40975
42135,40975
41485,40975
41423,41037
31641,41037
31838,40840
32573,40840
32577,40860
32632,40945
32715,41002
32814,41022
33720,41022
33813,41005
33898,40950
33955,40866
33975,40767
33975,40019
36890,40019
36890,40767
36908,40860
36962,40945
37046,41002
37145,41022
38051,41022
38143,41005
38228,40950
38285,40866
38306,40767
38306,40019
38288,39927
38233,39841
38150,39784
38051,39764
37145,39764
37053,39782
36967,39836
36910,39920
36890,40019
33975,40019
33957,39927
33903,39841
33819,39784
33720,39764
32814,39764
32722,39782
32637,39836
32580,39920
32574,39946
31653,39946
31482,39980
31337,40077
29342,42072
29324,42072
29324,41037
29262,40975
28612,40975
28612,40983
28512,40983
28512,40975
27863,40975
27801,41037
27801,42072
25230,42072
25230,41037
25167,40975
24518,40975
24518,40983
24418,40983
24418,40975
23769,40975
23706,41037
23706,42072
22244,42072
22099,42101
22128,42089
22403,41814
22552,41455
22553,41066
22404,40706
22129,40430
21770,40281
21381,40281
21021,40429
20745,40704
20596,41064
20596,41453
19964,41453
19964,39649
23776,39649
23744,39681
" /> 
<polyline style="fill-rule:evenodd;"
points="30761,52086
30778,52179
30833,52264
30917,52321
31016,52341
31590,52341
31590,53051
31613,53165
31678,53262
31984,53568
31984,53602
31889,53583
31102,53583
31009,53601
30924,53655
30867,53739
30847,53838
30847,53844
30551,53844
30425,53869
30348,53921
30318,53940
29548,54710
27144,54710
27100,54666
27100,54664
27165,54664
27257,54646
27343,54592
27400,54508
27420,54409
27420,54206
27702,54206
27702,54459
27740,54551
27811,54621
27903,54659
28233,54659
28296,54596
28296,54144
28396,54144
28396,54596
28458,54659
28789,54659
28881,54621
28952,54551
28990,54459
28990,54206
28927,54144
28396,54144
28296,54144
27765,54144
27702,54206
27420,54206
27420,53779
27410,53729
27702,53729
27702,53981
27765,54044
28296,54044
28296,53592
28396,53592
28396,54044
28927,54044
28990,53981
28990,53729
28952,53637
28881,53567
28789,53529
28458,53529
28396,53592
28296,53592
28233,53529
27903,53529
27811,53567
27740,53637
27702,53729
27410,53729
27402,53686
27348,53601
27264,53544
27165,53524
27100,53524
27100,53478
27244,53478
27369,53453
27476,53382
27752,53106
27798,53037
27823,52999
27848,52874
27848,52833
27942,52833
27993,52824
28041,52833
28257,52833
28299,52825
28306,52828
28352,52828
28390,52790
28435,52761
28464,52719
28488,52756
28539,52791
28577,52828
28622,52828
28630,52825
28671,52833
28887,52833
28938,52824
28986,52833
29202,52833
29253,52824
29301,52833
29517,52833
29610,52816
29695,52761
29752,52677
29772,52578
29772,52056
30295,52056
30387,52038
30414,52021
30761,52021
30761,52086
" /> 
<polyline style="fill-rule:evenodd;"
points="47151,43758
47151,44626
46791,44626
46698,44644
46613,44699
46556,44782
46536,44881
46536,47368
46005,47899
45941,47899
45926,47820
45871,47735
45788,47678
45689,47658
45149,47658
45106,47629
44980,47604
44854,47629
44811,47658
44272,47658
44179,47675
44094,47730
44037,47814
44017,47913
44017,48543
44034,48635
44089,48721
44172,48778
44272,48798
44595,48798
44430,48962
43149,48962
43023,48987
42943,49041
42917,49058
42208,49767
42137,49874
42112,50000
42112,52934
41372,53674
41372,53498
41309,53435
40837,53435
40837,53443
40737,53443
40737,53435
40265,53435
40202,53498
40202,53829
40209,53844
37120,53844
37120,53682
37292,53682
37384,53664
37469,53609
37526,53526
37547,53427
37547,53037
37529,52944
37474,52859
37391,52802
37292,52782
37120,52782
37120,52682
37292,52682
37384,52664
37469,52609
37526,52526
37547,52427
37547,52037
37529,51944
37474,51859
37391,51802
37292,51782
37120,51782
37120,51682
37292,51682
37384,51664
37469,51609
37526,51526
37547,51427
37547,51037
37529,50944
37474,50859
37391,50802
37292,50782
36292,50782
36199,50799
36114,50854
36057,50938
36037,51037
36037,51427
36054,51519
36109,51605
36192,51662
36292,51682
36463,51682
36463,51782
36292,51782
36199,51799
36114,51854
36057,51938
36037,52037
36037,52427
36054,52519
36109,52605
36192,52662
36292,52682
36463,52682
36463,52782
36292,52782
36199,52799
36114,52854
36057,52938
36037,53037
36037,53427
36054,53519
36109,53605
36192,53662
36292,53682
36463,53682
36463,53844
33719,53844
33719,53838
33702,53745
33647,53660
33563,53603
33464,53583
32677,53583
32584,53601
32582,53602
32582,53444
32559,53330
32495,53233
32188,52927
32188,52341
32763,52341
32855,52324
32940,52269
32972,52223
32986,52244
33070,52301
33169,52321
33956,52321
34049,52304
34134,52249
34191,52166
34211,52066
34211,51844
34494,51844
34494,52116
34532,52208
34602,52278
34694,52316
35025,52316
35087,52254
35087,51782
35187,51782
35187,52254
35250,52316
35581,52316
35673,52278
35743,52208
35781,52116
35781,51844
35718,51782
35187,51782
35087,51782
34556,51782
34494,51844
34211,51844
34211,51397
34202,51347
34494,51347
34494,51619
34556,51682
35087,51682
35087,51210
35187,51210
35187,51682
35718,51682
35781,51619
35781,51347
35743,51256
35673,51185
35581,51147
35250,51147
35187,51210
35087,51210
35025,51147
34694,51147
34602,51185
34532,51256
34494,51347
34202,51347
34194,51304
34139,51219
34055,51162
33956,51142
33169,51142
33076,51160
32991,51214
32973,51242
32945,51200
32862,51142
32763,51122
32188,51122
32188,51082
32180,51041
32166,50968
32101,50871
31677,50446
34765,50446
34783,50464
34889,50535
35015,50561
36081,50561
36109,50605
36192,50662
36292,50682
37292,50682
37384,50664
37469,50609
37526,50526
37547,50427
37547,50037
37529,49944
37474,49859
37391,49802
37292,49782
36292,49782
36199,49799
36114,49854
36080,49903
35151,49903
35134,49885
35107,49868
35027,49814
34901,49789
34868,49789
34959,49698
37363,49698
37761,50096
37761,52913
37786,53039
37854,53139
37858,53145
38176,53464
38253,53516
38254,53519
38309,53605
38392,53662
38492,53682
39492,53682
39584,53664
39669,53609
39726,53526
39747,53427
39747,53037
39729,52944
39728,52942
40202,52942
40202,53273
40265,53335
40737,53335
40737,52804
40837,52804
40837,53335
41309,53335
41372,53273
41372,52942
41333,52850
41263,52780
41171,52742
40899,52742
40837,52804
40737,52804
40674,52742
40403,52742
40311,52780
40240,52850
40202,52942
39728,52942
39674,52859
39591,52802
39492,52782
38492,52782
38435,52793
38419,52777
38419,52667
38492,52682
39492,52682
39584,52664
39669,52609
39726,52526
39747,52427
39747,52037
39729,51944
39674,51859
39591,51802
39492,51782
38492,51782
38419,51796
38419,51667
38492,51682
39492,51682
39584,51664
39669,51609
39726,51526
39747,51427
39747,51037
39729,50944
39674,50859
39591,50802
39492,50782
38492,50782
38419,50796
38419,50667
38442,50677
38879,50677
38942,50614
38942,50282
39042,50282
39042,50614
39104,50677
39541,50677
39633,50639
39704,50568
39742,50477
39742,50344
39679,50282
39042,50282
38942,50282
38934,50282
38934,50182
38942,50182
38942,49849
39042,49849
39042,50182
39679,50182
39742,50119
39742,49987
39704,49895
39633,49825
39541,49787
39104,49787
39042,49849
38942,49849
38879,49787
38442,49787
38379,49813
38323,49728
37742,49147
39685,49147
39810,49122
39917,49051
40627,48340
41856,48340
41856,48593
41894,48684
41964,48755
42056,48793
42702,48793
42764,48730
42764,48278
42864,48278
42864,48730
42927,48793
43572,48793
43664,48755
43735,48684
43773,48593
43773,48340
43710,48278
42864,48278
42764,48278
41918,48278
41856,48340
40627,48340
41105,47863
41856,47863
41856,48115
41918,48178
42764,48178
42764,47725
42864,47725
42864,48178
43710,48178
43773,48115
43773,47863
43735,47771
43664,47701
43572,47663
42927,47663
42864,47725
42764,47725
42702,47663
42056,47663
41964,47701
41894,47771
41856,47863
41105,47863
41632,47336
43937,47336
44062,47311
44169,47240
44563,46846
44634,46739
44656,46627
44966,46627
45028,46565
45028,46112
45128,46112
45128,46565
45191,46627
45522,46627
45614,46589
45684,46519
45722,46427
45722,46175
45659,46112
45128,46112
45028,46112
45020,46112
45020,46012
45028,46012
45028,45560
45128,45560
45128,46012
45659,46012
45722,45950
45722,45698
45684,45606
45614,45536
45522,45498
45191,45498
45128,45560
45028,45560
44966,45498
44635,45498
44610,45508
44563,45436
44501,45374
44639,45374
44732,45357
44737,45354
44775,45370
44869,45370
44932,45307
44932,44461
45032,44461
45032,45307
45094,45370
45189,45370
45281,45332
45351,45261
45389,45169
45389,44523
45327,44461
45032,44461
44932,44461
44924,44461
44924,44361
44932,44361
44932,43515
45032,43515
45032,44361
45327,44361
45389,44298
45389,43653
45351,43561
45281,43490
45189,43452
45094,43452
45032,43515
44932,43515
44869,43452
44775,43452
44738,43467
44639,43447
44324,43447
44232,43465
44230,43466
44139,43447
43824,43447
43811,43450
43811,43268
43994,43084
46478,43084
47151,43758
" /> 
<polyline style="fill-rule:evenodd;"
points="28803,49410
28854,49445
28892,49482
28937,49482
28945,49478
28986,49487
29202,49487
29253,49477
29301,49487
29410,49487
29410,49596
29420,49647
29410,49694
29410,49911
29420,49962
29410,50009
29410,50226
29420,50277
29410,50324
29410,50541
29420,50592
29410,50639
29410,50856
29420,50907
29410,50954
29410,51171
29420,51222
29410,51269
29410,51486
29420,51537
29410,51584
29410,51693
29301,51693
29250,51703
29202,51693
28986,51693
28935,51703
28887,51693
28671,51693
28629,51701
28622,51698
28577,51698
28539,51736
28493,51766
28464,51808
28440,51771
28389,51736
28352,51698
28306,51698
28298,51702
28257,51693
28041,51693
27990,51703
27942,51693
27848,51693
27848,50647
28067,50429
28114,50358
28138,50322
28163,50196
28163,49856
28346,49856
28472,49831
28578,49760
28697,49641
28723,49602
28768,49535
28793,49409
28793,49394
28803,49410
" /> 
<polyline style="fill-rule:evenodd;"
points="29080,45195
29080,46524
29026,46501
28695,46501
28632,46564
28632,47036
28640,47036
28640,47136
28632,47136
28632,47608
28695,47671
29026,47671
29080,47648
29080,48347
28986,48347
28944,48355
28937,48352
28892,48352
28854,48390
28808,48419
28779,48461
28755,48424
28704,48389
28667,48352
28621,48352
28613,48355
28572,48347
28356,48347
28314,48355
28307,48352
28262,48352
28224,48390
28199,48406
28199,48352
28163,48352
28163,48070
28158,48045
28138,47945
28067,47838
27555,47326
27532,47311
27448,47255
27322,47230
26671,47230
26640,47199
27938,47199
27938,47470
27977,47562
28047,47633
28139,47671
28470,47671
28532,47608
28532,47136
28001,47136
27938,47199
26640,47199
26143,46702
27938,46702
27938,46974
28001,47036
28532,47036
28532,46564
28470,46501
28139,46501
28047,46540
27977,46610
27938,46702
26143,46702
26116,46674
26116,46632
26181,46632
26273,46615
26358,46560
26415,46477
26436,46377
26436,46175
26718,46175
26718,46427
26756,46519
26826,46589
26918,46627
27249,46627
27312,46565
27312,46112
27412,46112
27412,46565
27474,46627
27805,46627
27897,46589
27967,46519
28005,46427
28005,46175
27943,46112
27412,46112
27312,46112
26781,46112
26718,46175
26436,46175
26436,45748
26426,45698
26718,45698
26718,45950
26781,46012
27312,46012
27312,45560
27412,45560
27412,46012
27943,46012
28005,45950
28005,45698
27967,45606
27897,45536
27805,45498
27474,45498
27412,45560
27312,45560
27249,45498
26918,45498
26826,45536
26756,45606
26718,45698
26426,45698
26418,45655
26363,45570
26280,45513
26181,45493
26094,45493
26094,45372
26108,45374
26423,45374
26515,45357
26517,45356
26608,45374
26923,45374
27015,45357
27020,45354
27058,45370
27153,45370
27215,45307
27215,44461
27315,44461
27315,45307
27378,45370
27472,45370
27564,45332
27635,45261
27673,45169
27673,44523
27610,44461
27315,44461
27215,44461
27207,44461
27207,44361
27215,44361
27215,44353
27315,44353
27315,44361
27610,44361
27673,44298
27673,43787
29080,45195
" /> 
</g>
<g style="fill:#FFFFFF; fill-opacity:1.0; 
stroke:#FFFFFF; stroke-width:100; stroke-opacity:1; 
stroke-linecap:round; stroke-linejoin:round;">
</g>
<g style="fill:#FFFFFF; fill-opacity:1.0; 
stroke:#FFFFFF; stroke-width:0; stroke-opacity:1; 
stroke-linecap:round; stroke-linejoin:round;">
<circle cx="49527.6" cy="41259.8" r="68.8976" /> 
</g>
<g style="fill:#FFFFFF; fill-opacity:1.0; 
stroke:#FFFFFF; stroke-width:39.3701; stroke-opacity:1; 
stroke-linecap:round; stroke-linejoin:round;">
</g>
<g style="fill:#FFFFFF; fill-opacity:1.0; 
stroke:#FFFFFF; stroke-width:0; stroke-opacity:1; 
stroke-linecap:round; stroke-linejoin:round;">
<circle cx="49527.6" cy="57874" r="68.8976" /> 
</g>
<g style="fill:#FFFFFF; fill-opacity:1.0; 
stroke:#FFFFFF; stroke-width:39.3701; stroke-opacity:1; 
stroke-linecap:round; stroke-linejoin:round;">
</g>
<g style="fill:#FFFFFF; fill-opacity:1.0; 
stroke:#FFFFFF; stroke-width:0; stroke-opacity:1; 
stroke-linecap:round; stroke-linejoin:round;">
<circle cx="21574.8" cy="41259.8" r="68.8976" /> 
</g>
<g style="fill:#FFFFFF; fill-opacity:1.0; 
stroke:#FFFFFF; stroke-width:39.3701; stroke-opacity:1; 
stroke-linecap:round; stroke-linejoin:round;">
</g>
<g style="fill:#FFFFFF; fill-opacity:1.0; 
stroke:#FFFFFF; stroke-width:0; stroke-opacity:1; 
stroke-linecap:round; stroke-linejoin:round;">
<circle cx="21574.8" cy="57874" r="68.8976" /> 
</g>
<g style="fill:#FFFFFF; fill-opacity:1.0; 
stroke:#FFFFFF; stroke-width:39.3701; stroke-opacity:1; 
stroke-linecap:round; stroke-linejoin:round;">
</g>
<g style="fill:#000000; fill-opacity:1.0; 
stroke:#000000; stroke-width:39.3701; stroke-opacity:1; 
stroke-linecap:round; stroke-linejoin:round;">
</g> 
</svg>
