G04 #@! TF.FileFunction,Soldermask,Top*
%FSLAX46Y46*%
G04 Gerber Fmt 4.6, Leading zero omitted, Abs format (unit mm)*
G04 Created by KiCad (PCBNEW no-vcs-found-product) date Fri Nov  4 22:39:12 2016*
%MOMM*%
%LPD*%
G01*
G04 APERTURE LIST*
%ADD10C,0.100000*%
%ADD11R,2.200860X1.200100*%
%ADD12R,2.700000X2.300000*%
%ADD13C,4.300000*%
%ADD14R,3.999180X2.000200*%
%ADD15R,2.000000X2.400000*%
%ADD16R,2.400000X2.000000*%
%ADD17R,1.997660X2.200860*%
%ADD18R,0.950000X2.000000*%
%ADD19R,2.000000X0.950000*%
%ADD20R,1.200000X4.000000*%
%ADD21R,3.000000X6.000000*%
%ADD22R,3.900000X10.600000*%
%ADD23R,2.400000X1.100000*%
%ADD24R,2.940000X1.390600*%
%ADD25R,2.400000X2.100000*%
%ADD26R,2.100000X2.400000*%
%ADD27R,1.543000X0.908000*%
%ADD28C,4.100000*%
%ADD29R,2.200860X3.900120*%
G04 APERTURE END LIST*
D10*
D11*
X84498860Y-116050000D03*
X84498860Y-117950000D03*
X87501140Y-117000000D03*
D12*
X95500000Y-102600000D03*
X84500000Y-108700000D03*
X84500000Y-102600000D03*
X95500000Y-108700000D03*
X84500000Y-148400000D03*
X95500000Y-142300000D03*
X95500000Y-148400000D03*
X84500000Y-142300000D03*
D13*
X125800000Y-104800000D03*
X125800000Y-147000000D03*
D14*
X114349180Y-144500000D03*
X119850820Y-144500000D03*
D15*
X125500000Y-132000000D03*
X125500000Y-128000000D03*
D16*
X68000000Y-137400000D03*
X72000000Y-137400000D03*
X110500000Y-117000000D03*
X114500000Y-117000000D03*
X65500000Y-117000000D03*
X69500000Y-117000000D03*
D14*
X114250820Y-122500000D03*
X108749180Y-122500000D03*
D17*
X79580140Y-131400000D03*
X82419860Y-131400000D03*
D18*
X74700000Y-124250000D03*
X73900000Y-124250000D03*
X73100000Y-124250000D03*
X72300000Y-124250000D03*
X71500000Y-124250000D03*
X70700000Y-124250000D03*
X69900000Y-124250000D03*
X69100000Y-124250000D03*
D19*
X67650000Y-125700000D03*
X67650000Y-126500000D03*
X67650000Y-127300000D03*
X67650000Y-128100000D03*
X67650000Y-128900000D03*
X67650000Y-129700000D03*
X67650000Y-130500000D03*
X67650000Y-131300000D03*
D18*
X69100000Y-132750000D03*
X69900000Y-132750000D03*
X70700000Y-132750000D03*
X71500000Y-132750000D03*
X72300000Y-132750000D03*
X73100000Y-132750000D03*
X73900000Y-132750000D03*
X74700000Y-132750000D03*
D19*
X76150000Y-131300000D03*
X76150000Y-130500000D03*
X76150000Y-129700000D03*
X76150000Y-128900000D03*
X76150000Y-128100000D03*
X76150000Y-127300000D03*
X76150000Y-126500000D03*
X76150000Y-125700000D03*
D20*
X69255000Y-112805000D03*
X67985000Y-112805000D03*
X66715000Y-112805000D03*
D21*
X72550000Y-103950000D03*
X62150000Y-103950000D03*
D20*
X65445000Y-112805000D03*
X114255000Y-112805000D03*
X112985000Y-112805000D03*
X111715000Y-112805000D03*
D21*
X117550000Y-103950000D03*
X107150000Y-103950000D03*
D20*
X110445000Y-112805000D03*
D22*
X120600000Y-119100000D03*
X127200000Y-119100000D03*
D23*
X60660000Y-127970000D03*
X57660000Y-129240000D03*
X60660000Y-130510000D03*
X57660000Y-131780000D03*
X60660000Y-133050000D03*
X57660000Y-134320000D03*
D24*
X93452000Y-127590000D03*
X93452000Y-130130000D03*
X93452000Y-132670000D03*
X99040000Y-127590000D03*
X99040000Y-130130000D03*
X99040000Y-132670000D03*
X99040000Y-135210000D03*
X93452000Y-135210000D03*
D25*
X119400000Y-138500000D03*
X115400000Y-138500000D03*
X121600000Y-128200000D03*
X117600000Y-128200000D03*
D26*
X112000000Y-132500000D03*
X112000000Y-128500000D03*
D25*
X85250000Y-131400000D03*
X89250000Y-131400000D03*
X81000000Y-111500000D03*
X77000000Y-111500000D03*
X81000000Y-116000000D03*
X77000000Y-116000000D03*
D27*
X116525000Y-134805000D03*
X116525000Y-133535000D03*
X116525000Y-132265000D03*
X116525000Y-130995000D03*
X122875000Y-130995000D03*
X122875000Y-132265000D03*
X122875000Y-133535000D03*
X122875000Y-134805000D03*
D28*
X54800000Y-104800000D03*
D13*
X54800000Y-147000000D03*
D29*
X126500000Y-136500640D03*
X126500000Y-141499360D03*
X54000000Y-112500640D03*
X54000000Y-117499360D03*
D25*
X80000000Y-137600000D03*
X84000000Y-137600000D03*
X72600000Y-119600000D03*
X76600000Y-119600000D03*
D26*
X103600000Y-139600000D03*
X103600000Y-135600000D03*
X80250000Y-103750000D03*
X80250000Y-107750000D03*
M02*
