G04 #@! TF.FileFunction,Profile,NP*
%FSLAX46Y46*%
G04 Gerber Fmt 4.6, Leading zero omitted, Abs format (unit mm)*
G04 Created by KiCad (PCBNEW 4.0.4-1.fc24-product) date Sun Dec  4 16:57:25 2016*
%MOMM*%
%LPD*%
G01*
G04 APERTURE LIST*
%ADD10C,0.100000*%
%ADD11C,0.150000*%
G04 APERTURE END LIST*
D10*
D11*
X139000000Y-95400000D02*
X139000000Y-123300000D01*
X137000000Y-95400000D02*
X139000000Y-95400000D01*
X137000000Y-123300000D02*
X137000000Y-95400000D01*
X104200000Y-95400000D02*
X104200000Y-123300000D01*
X102200000Y-95400000D02*
X104200000Y-95400000D01*
X102200000Y-123350000D02*
X102200000Y-95400000D01*
X69400000Y-95400000D02*
X69400000Y-123350000D01*
X67400000Y-95400000D02*
X69400000Y-95400000D01*
X67400000Y-123350000D02*
X67400000Y-95400000D01*
X69400000Y-66400000D02*
X69400000Y-93400000D01*
X67400000Y-66400000D02*
X69400000Y-66400000D01*
X67400000Y-93400000D02*
X67400000Y-66400000D01*
X69400000Y-93400000D02*
X67400000Y-93400000D01*
X104200000Y-66400000D02*
X104200000Y-93400000D01*
X102200000Y-66400000D02*
X104200000Y-66400000D01*
X102200000Y-93400000D02*
X102200000Y-66400000D01*
X104200000Y-93400000D02*
X102200000Y-93400000D01*
X139000000Y-66400000D02*
X139000000Y-93400000D01*
X137000000Y-66400000D02*
X139000000Y-66400000D01*
X137000000Y-93400000D02*
X137000000Y-66400000D01*
X139000000Y-93400000D02*
X137000000Y-93400000D01*
X67400000Y-64400000D02*
X67400000Y-36400000D01*
X69400000Y-64400000D02*
X67400000Y-64400000D01*
X69400000Y-36400000D02*
X69400000Y-64400000D01*
X102200000Y-64400000D02*
X102200000Y-36400000D01*
X104200000Y-64400000D02*
X102200000Y-64400000D01*
X104200000Y-36400000D02*
X104200000Y-64400000D01*
X137000000Y-64400000D02*
X137000000Y-36400000D01*
X139000000Y-64400000D02*
X137000000Y-64400000D01*
X139000000Y-36400000D02*
X139000000Y-64400000D01*
X139000000Y-147350000D02*
X139000000Y-167250000D01*
X136200000Y-147350000D02*
X139000000Y-147350000D01*
X136200000Y-167300000D02*
X136200000Y-147350000D01*
X139000000Y-125250000D02*
X139050000Y-125250000D01*
X139000000Y-145350000D02*
X139000000Y-125250000D01*
X136200000Y-145350000D02*
X139000000Y-145350000D01*
X136200000Y-125300000D02*
X136200000Y-145350000D01*
X104200000Y-147350000D02*
X104200000Y-167300000D01*
X101400000Y-147350000D02*
X104200000Y-147350000D01*
X101400000Y-167350000D02*
X101400000Y-147350000D01*
X104200000Y-145350000D02*
X104200000Y-125300000D01*
X101400000Y-145350000D02*
X104200000Y-145350000D01*
X101400000Y-125350000D02*
X101400000Y-145350000D01*
X69400000Y-147350000D02*
X69400000Y-167350000D01*
X66600000Y-147350000D02*
X69400000Y-147350000D01*
X66600000Y-167350000D02*
X66600000Y-147350000D01*
X69400000Y-145350000D02*
X69400000Y-125350000D01*
X66600000Y-145350000D02*
X69400000Y-145350000D01*
X66600000Y-125350000D02*
X66600000Y-145350000D01*
X156500000Y-125250000D02*
X171000000Y-125250000D01*
X156500000Y-123300000D02*
X156500000Y-125250000D01*
X171800000Y-123300000D02*
X156500000Y-123300000D01*
X154500000Y-125250000D02*
X139000000Y-125250000D01*
X154500000Y-123300000D02*
X154500000Y-125250000D01*
X139000000Y-123300000D02*
X154500000Y-123300000D01*
X121600000Y-125300000D02*
X136200000Y-125300000D01*
X121600000Y-123300000D02*
X121600000Y-125300000D01*
X137000000Y-123300000D02*
X121600000Y-123300000D01*
X119600000Y-125300000D02*
X104200000Y-125300000D01*
X119600000Y-123300000D02*
X119600000Y-125300000D01*
X104200000Y-123300000D02*
X119600000Y-123300000D01*
X86800000Y-125350000D02*
X101400000Y-125350000D01*
X86800000Y-123350000D02*
X86800000Y-125350000D01*
X102200000Y-123350000D02*
X86800000Y-123350000D01*
X84800000Y-125350000D02*
X69400000Y-125350000D01*
X84800000Y-123350000D02*
X84800000Y-125350000D01*
X69400000Y-123350000D02*
X84800000Y-123350000D01*
X52000000Y-125350000D02*
X66600000Y-125350000D01*
X52000000Y-123350000D02*
X52000000Y-125350000D01*
X67400000Y-123350000D02*
X52000000Y-123350000D01*
X50000000Y-125350000D02*
X34600000Y-125350000D01*
X50000000Y-123350000D02*
X50000000Y-125350000D01*
X34600000Y-123350000D02*
X50000000Y-123350000D01*
X34600000Y-36400000D02*
X34600000Y-123350000D01*
X67400000Y-36400000D02*
X34600000Y-36400000D01*
X102200000Y-36400000D02*
X69400000Y-36400000D01*
X137000000Y-36400000D02*
X104200000Y-36400000D01*
X171800000Y-123300000D02*
X171800000Y-79850000D01*
X171800000Y-36400000D02*
X139000000Y-36400000D01*
X171800000Y-79850000D02*
X171800000Y-36400000D01*
X34600000Y-167350000D02*
X34600000Y-125350000D01*
X66600000Y-167350000D02*
X34600000Y-167350000D01*
X101400000Y-167350000D02*
X69400000Y-167350000D01*
X136200000Y-167300000D02*
X104200000Y-167300000D01*
X171000000Y-167250000D02*
X139000000Y-167250000D01*
X171000000Y-125250000D02*
X171000000Y-167250000D01*
M02*
