M48
;DRILL file {KiCad 4.0.4-1.fc24-product} date Sun Dec  4 16:57:34 2016
;FORMAT={-:-/ absolute / inch / decimal}
FMAT,2
INCH,TZ
T1C0.020
T2C0.126
%
G90
G05
M72
T1
X1.9902Y-4.8661
X1.9902Y-4.9252
X2.0256Y-4.8661
X2.0256Y-4.9252
X2.6319Y-5.7441
X2.6319Y-5.7795
X2.6634Y-2.5571
X2.6634Y-2.5925
X2.6634Y-3.6988
X2.6634Y-3.7343
X2.7224Y-2.5571
X2.7224Y-2.5925
X2.7224Y-3.6988
X2.7224Y-3.7343
X2.7224Y-5.7441
X2.7224Y-5.7795
X3.3602Y-4.8661
X3.3602Y-4.9252
X3.3957Y-4.8661
X3.3957Y-4.9252
X4.002Y-5.7441
X4.002Y-5.7795
X4.0335Y-2.5571
X4.0335Y-2.5925
X4.0335Y-3.6988
X4.0335Y-3.7343
X4.0925Y-2.5571
X4.0925Y-2.5925
X4.0925Y-3.6988
X4.0925Y-3.7343
X4.0925Y-5.7441
X4.0925Y-5.7795
X4.7303Y-4.8642
X4.7303Y-4.9232
X4.7657Y-4.8642
X4.7657Y-4.9232
X5.372Y-5.7441
X5.372Y-5.7795
X5.4035Y-2.5571
X5.4035Y-2.5925
X5.4035Y-3.6988
X5.4035Y-3.7343
X5.4626Y-2.5571
X5.4626Y-2.5925
X5.4626Y-3.6988
X5.4626Y-3.7343
X5.4626Y-5.7441
X5.4626Y-5.7795
X6.1043Y-4.8642
X6.1043Y-4.9213
X6.1398Y-4.8642
X6.1398Y-4.9213
T2
X1.7502Y-5.4177
X1.7502Y-6.2177
X2.2002Y-5.4177
X2.2002Y-6.2177
X3.1203Y-5.4177
X3.1203Y-6.2177
X3.5703Y-5.4177
X3.5703Y-6.2177
X4.4904Y-5.4157
X4.4904Y-6.2157
X4.9404Y-5.4157
X4.9404Y-6.2157
X5.8604Y-5.4138
X5.8604Y-6.2138
X6.3104Y-5.4138
X6.3104Y-6.2138
T0
M30
