G04 #@! TF.FileFunction,Legend,Bot*
%FSLAX46Y46*%
G04 Gerber Fmt 4.6, Leading zero omitted, Abs format (unit mm)*
G04 Created by KiCad (PCBNEW 4.0.4-1.fc24-product) date Sun Dec  4 16:57:25 2016*
%MOMM*%
%LPD*%
G01*
G04 APERTURE LIST*
%ADD10C,0.100000*%
%ADD11C,0.150000*%
G04 APERTURE END LIST*
D10*
D11*
X42420000Y-149910000D02*
X41220000Y-149910000D01*
X41220000Y-149910000D02*
X41220000Y-162410000D01*
X41220000Y-162410000D02*
X42420000Y-162410000D01*
X57920000Y-149910000D02*
X59120000Y-149910000D01*
X59120000Y-149910000D02*
X59120000Y-162410000D01*
X59120000Y-162410000D02*
X57920000Y-162410000D01*
X57920000Y-164410000D02*
X42420000Y-164410000D01*
X42420000Y-164410000D02*
X42420000Y-147910000D01*
X42420000Y-147910000D02*
X57910000Y-147910000D01*
X57920000Y-147910000D02*
X57920000Y-164410000D01*
X42420000Y-129590000D02*
X41220000Y-129590000D01*
X41220000Y-129590000D02*
X41220000Y-142090000D01*
X41220000Y-142090000D02*
X42420000Y-142090000D01*
X57920000Y-129590000D02*
X59120000Y-129590000D01*
X59120000Y-129590000D02*
X59120000Y-142090000D01*
X59120000Y-142090000D02*
X57920000Y-142090000D01*
X57920000Y-144090000D02*
X42420000Y-144090000D01*
X42420000Y-144090000D02*
X42420000Y-127590000D01*
X42420000Y-127590000D02*
X57910000Y-127590000D01*
X57920000Y-127590000D02*
X57920000Y-144090000D01*
X77220000Y-149910000D02*
X76020000Y-149910000D01*
X76020000Y-149910000D02*
X76020000Y-162410000D01*
X76020000Y-162410000D02*
X77220000Y-162410000D01*
X92720000Y-149910000D02*
X93920000Y-149910000D01*
X93920000Y-149910000D02*
X93920000Y-162410000D01*
X93920000Y-162410000D02*
X92720000Y-162410000D01*
X92720000Y-164410000D02*
X77220000Y-164410000D01*
X77220000Y-164410000D02*
X77220000Y-147910000D01*
X77220000Y-147910000D02*
X92710000Y-147910000D01*
X92720000Y-147910000D02*
X92720000Y-164410000D01*
X77220000Y-129590000D02*
X76020000Y-129590000D01*
X76020000Y-129590000D02*
X76020000Y-142090000D01*
X76020000Y-142090000D02*
X77220000Y-142090000D01*
X92720000Y-129590000D02*
X93920000Y-129590000D01*
X93920000Y-129590000D02*
X93920000Y-142090000D01*
X93920000Y-142090000D02*
X92720000Y-142090000D01*
X92720000Y-144090000D02*
X77220000Y-144090000D01*
X77220000Y-144090000D02*
X77220000Y-127590000D01*
X77220000Y-127590000D02*
X92710000Y-127590000D01*
X92720000Y-127590000D02*
X92720000Y-144090000D01*
X112020000Y-149860000D02*
X110820000Y-149860000D01*
X110820000Y-149860000D02*
X110820000Y-162360000D01*
X110820000Y-162360000D02*
X112020000Y-162360000D01*
X127520000Y-149860000D02*
X128720000Y-149860000D01*
X128720000Y-149860000D02*
X128720000Y-162360000D01*
X128720000Y-162360000D02*
X127520000Y-162360000D01*
X127520000Y-164360000D02*
X112020000Y-164360000D01*
X112020000Y-164360000D02*
X112020000Y-147860000D01*
X112020000Y-147860000D02*
X127510000Y-147860000D01*
X127520000Y-147860000D02*
X127520000Y-164360000D01*
X112020000Y-129540000D02*
X110820000Y-129540000D01*
X110820000Y-129540000D02*
X110820000Y-142040000D01*
X110820000Y-142040000D02*
X112020000Y-142040000D01*
X127520000Y-129540000D02*
X128720000Y-129540000D01*
X128720000Y-129540000D02*
X128720000Y-142040000D01*
X128720000Y-142040000D02*
X127520000Y-142040000D01*
X127520000Y-144040000D02*
X112020000Y-144040000D01*
X112020000Y-144040000D02*
X112020000Y-127540000D01*
X112020000Y-127540000D02*
X127510000Y-127540000D01*
X127520000Y-127540000D02*
X127520000Y-144040000D01*
X146820000Y-149810000D02*
X145620000Y-149810000D01*
X145620000Y-149810000D02*
X145620000Y-162310000D01*
X145620000Y-162310000D02*
X146820000Y-162310000D01*
X162320000Y-149810000D02*
X163520000Y-149810000D01*
X163520000Y-149810000D02*
X163520000Y-162310000D01*
X163520000Y-162310000D02*
X162320000Y-162310000D01*
X162320000Y-164310000D02*
X146820000Y-164310000D01*
X146820000Y-164310000D02*
X146820000Y-147810000D01*
X146820000Y-147810000D02*
X162310000Y-147810000D01*
X162320000Y-147810000D02*
X162320000Y-164310000D01*
X146820000Y-129490000D02*
X145620000Y-129490000D01*
X145620000Y-129490000D02*
X145620000Y-141990000D01*
X145620000Y-141990000D02*
X146820000Y-141990000D01*
X162320000Y-129490000D02*
X163520000Y-129490000D01*
X163520000Y-129490000D02*
X163520000Y-141990000D01*
X163520000Y-141990000D02*
X162320000Y-141990000D01*
X162320000Y-143990000D02*
X146820000Y-143990000D01*
X146820000Y-143990000D02*
X146820000Y-127490000D01*
X146820000Y-127490000D02*
X162310000Y-127490000D01*
X162320000Y-127490000D02*
X162320000Y-143990000D01*
X44433333Y-153552381D02*
X44433333Y-154266667D01*
X44480953Y-154409524D01*
X44576191Y-154504762D01*
X44719048Y-154552381D01*
X44814286Y-154552381D01*
X43433333Y-154552381D02*
X44004762Y-154552381D01*
X43719048Y-154552381D02*
X43719048Y-153552381D01*
X43814286Y-153695238D01*
X43909524Y-153790476D01*
X44004762Y-153838095D01*
X45433333Y-133052381D02*
X45433333Y-133766667D01*
X45480953Y-133909524D01*
X45576191Y-134004762D01*
X45719048Y-134052381D01*
X45814286Y-134052381D01*
X45004762Y-133147619D02*
X44957143Y-133100000D01*
X44861905Y-133052381D01*
X44623809Y-133052381D01*
X44528571Y-133100000D01*
X44480952Y-133147619D01*
X44433333Y-133242857D01*
X44433333Y-133338095D01*
X44480952Y-133480952D01*
X45052381Y-134052381D01*
X44433333Y-134052381D01*
X79233333Y-153552381D02*
X79233333Y-154266667D01*
X79280953Y-154409524D01*
X79376191Y-154504762D01*
X79519048Y-154552381D01*
X79614286Y-154552381D01*
X78233333Y-154552381D02*
X78804762Y-154552381D01*
X78519048Y-154552381D02*
X78519048Y-153552381D01*
X78614286Y-153695238D01*
X78709524Y-153790476D01*
X78804762Y-153838095D01*
X80233333Y-133052381D02*
X80233333Y-133766667D01*
X80280953Y-133909524D01*
X80376191Y-134004762D01*
X80519048Y-134052381D01*
X80614286Y-134052381D01*
X79804762Y-133147619D02*
X79757143Y-133100000D01*
X79661905Y-133052381D01*
X79423809Y-133052381D01*
X79328571Y-133100000D01*
X79280952Y-133147619D01*
X79233333Y-133242857D01*
X79233333Y-133338095D01*
X79280952Y-133480952D01*
X79852381Y-134052381D01*
X79233333Y-134052381D01*
X114033333Y-153502381D02*
X114033333Y-154216667D01*
X114080953Y-154359524D01*
X114176191Y-154454762D01*
X114319048Y-154502381D01*
X114414286Y-154502381D01*
X113033333Y-154502381D02*
X113604762Y-154502381D01*
X113319048Y-154502381D02*
X113319048Y-153502381D01*
X113414286Y-153645238D01*
X113509524Y-153740476D01*
X113604762Y-153788095D01*
X115033333Y-133002381D02*
X115033333Y-133716667D01*
X115080953Y-133859524D01*
X115176191Y-133954762D01*
X115319048Y-134002381D01*
X115414286Y-134002381D01*
X114604762Y-133097619D02*
X114557143Y-133050000D01*
X114461905Y-133002381D01*
X114223809Y-133002381D01*
X114128571Y-133050000D01*
X114080952Y-133097619D01*
X114033333Y-133192857D01*
X114033333Y-133288095D01*
X114080952Y-133430952D01*
X114652381Y-134002381D01*
X114033333Y-134002381D01*
X148833333Y-153452381D02*
X148833333Y-154166667D01*
X148880953Y-154309524D01*
X148976191Y-154404762D01*
X149119048Y-154452381D01*
X149214286Y-154452381D01*
X147833333Y-154452381D02*
X148404762Y-154452381D01*
X148119048Y-154452381D02*
X148119048Y-153452381D01*
X148214286Y-153595238D01*
X148309524Y-153690476D01*
X148404762Y-153738095D01*
X149833333Y-132952381D02*
X149833333Y-133666667D01*
X149880953Y-133809524D01*
X149976191Y-133904762D01*
X150119048Y-133952381D01*
X150214286Y-133952381D01*
X149404762Y-133047619D02*
X149357143Y-133000000D01*
X149261905Y-132952381D01*
X149023809Y-132952381D01*
X148928571Y-133000000D01*
X148880952Y-133047619D01*
X148833333Y-133142857D01*
X148833333Y-133238095D01*
X148880952Y-133380952D01*
X149452381Y-133952381D01*
X148833333Y-133952381D01*
M02*
