M48
;DRILL file {KiCad 4.0.4-1.fc24-product} date Sun Dec  4 16:57:34 2016
;FORMAT={-:-/ absolute / inch / decimal}
FMAT,2
INCH,TZ
T1C0.016
T2C0.026
T3C0.035
T4C0.051
T5C0.060
%
G90
G05
M72
T1
X4.2165Y-2.9862
X4.3543Y-3.6358
X4.374Y-3.124
X4.5906Y-3.0354
X4.7087Y-3.8524
X4.7185Y-2.9173
X4.748Y-3.0748
X4.7874Y-2.376
X4.9646Y-2.4941
X5.2697Y-3.0748
X5.6457Y-4.1004
X5.6969Y-3.939
X5.8189Y-3.8445
X5.8465Y-3.124
X5.8465Y-3.3366
X5.8976Y-3.1752
X5.8976Y-3.3366
X5.9488Y-3.3878
X5.9528Y-2.9469
X6.0197Y-3.4587
T2
X5.8031Y-3.9409
X5.8031Y-4.0197
X5.8031Y-4.0984
X5.8031Y-4.1772
X5.8031Y-4.2559
X5.8031Y-4.3346
X5.8031Y-4.4134
X5.8031Y-4.4921
X6.3543Y-3.9409
X6.3543Y-4.0197
X6.3543Y-4.0984
X6.3543Y-4.1772
X6.3543Y-4.2559
X6.3543Y-4.3346
X6.3543Y-4.4134
X6.3543Y-4.4921
T3
X1.8002Y-5.0677
X1.8002Y-5.8677
X1.8502Y-5.1677
X1.8502Y-5.9677
X1.9002Y-5.0677
X1.9002Y-5.8677
X1.9502Y-5.1677
X1.9502Y-5.9677
X2.0002Y-5.0677
X2.0002Y-5.8677
X2.0502Y-5.1677
X2.0502Y-5.9677
X2.1002Y-5.0677
X2.1002Y-5.8677
X2.1502Y-5.1677
X2.1502Y-5.9677
X3.1703Y-5.0677
X3.1703Y-5.8677
X3.2203Y-5.1677
X3.2203Y-5.9677
X3.2703Y-5.0677
X3.2703Y-5.8677
X3.3203Y-5.1677
X3.3203Y-5.9677
X3.3703Y-5.0677
X3.3703Y-5.8677
X3.4203Y-5.1677
X3.4203Y-5.9677
X3.4703Y-5.0677
X3.4703Y-5.8677
X3.5203Y-5.1677
X3.5203Y-5.9677
X4.5404Y-5.0657
X4.5404Y-5.8657
X4.5904Y-5.1657
X4.5904Y-5.9657
X4.6404Y-5.0657
X4.6404Y-5.8657
X4.6904Y-5.1657
X4.6904Y-5.9657
X4.7404Y-5.0657
X4.7404Y-5.8657
X4.7904Y-5.1657
X4.7904Y-5.9657
X4.8404Y-5.0657
X4.8404Y-5.8657
X4.8904Y-5.1657
X4.8904Y-5.9657
X5.9104Y-5.0638
X5.9104Y-5.8638
X5.9604Y-5.1638
X5.9604Y-5.9638
X6.0104Y-5.0638
X6.0104Y-5.8638
X6.0604Y-5.1638
X6.0604Y-5.9638
X6.1104Y-5.0638
X6.1104Y-5.8638
X6.1604Y-5.1638
X6.1604Y-5.9638
X6.2104Y-5.0638
X6.2104Y-5.8638
X6.2604Y-5.1638
X6.2604Y-5.9638
T4
X1.4646Y-3.7953
X1.4646Y-4.3957
X1.6417Y-2.0039
X1.6417Y-2.5039
X1.7638Y-3.7953
X1.7638Y-4.2953
X1.9409Y-1.9035
X1.9409Y-2.5039
X2.0748Y-3.7953
X2.0748Y-4.3957
X2.252Y-2.0039
X2.252Y-2.5039
X2.374Y-3.7953
X2.374Y-4.2953
X2.5512Y-1.9035
X2.5512Y-2.5039
X2.8346Y-3.7953
X2.8346Y-4.3957
X3.0118Y-2.0039
X3.0118Y-2.5039
X3.1339Y-3.7953
X3.1339Y-4.2953
X3.311Y-1.9035
X3.311Y-2.5039
X3.4449Y-3.7953
X3.4449Y-4.3957
X3.622Y-2.0039
X3.622Y-2.5039
X3.7441Y-3.7953
X3.7441Y-4.2953
X3.9213Y-1.9035
X3.9213Y-2.5039
T5
X1.5079Y-1.6555
X1.5079Y-4.6319
X1.7079Y-1.6555
X1.7079Y-4.6319
X1.9079Y-1.6555
X1.9079Y-4.6319
X2.1079Y-1.6555
X2.1079Y-4.6319
X2.3079Y-1.6555
X2.3079Y-4.6319
X2.5079Y-1.6555
X2.5079Y-4.6319
X2.878Y-1.6555
X2.878Y-4.6319
X3.078Y-1.6555
X3.078Y-4.6319
X3.278Y-1.6555
X3.278Y-4.6319
X3.478Y-1.6555
X3.478Y-4.6319
X3.678Y-1.6555
X3.678Y-4.6319
X3.878Y-1.6555
X3.878Y-4.6319
X4.248Y-1.6555
X4.248Y-4.6319
X4.448Y-1.6555
X4.448Y-4.6319
X4.648Y-1.6555
X4.648Y-4.6319
X4.848Y-1.6555
X4.848Y-4.6319
X5.048Y-1.6555
X5.048Y-4.6319
X5.248Y-1.6555
X5.248Y-4.6319
X5.622Y-1.6555
X5.822Y-1.6555
X6.022Y-1.6555
X6.222Y-1.6555
X6.422Y-1.6555
X6.622Y-1.6555
T0
M30
